<?xml version="1.0" encoding="UTF-8"?>
<svg version="1.1" xmlns="http://www.w3.org/2000/svg" width="512" height="512">
<path d="M0 0 C6.13052573 3.70468329 9.9448497 8.95587425 12.5625 15.5 C12.5625 23.09 12.5625 30.68 12.5625 38.5 C28.4025 38.5 44.2425 38.5 60.5625 38.5 C60.5625 30.91 60.5625 23.32 60.5625 15.5 C65.08783784 6.44932432 65.08783784 6.44932432 68.5 3.625 C69.14839844 3.07070313 69.79679688 2.51640625 70.46484375 1.9453125 C76.96607557 -2.53412097 83.93390917 -2.17463728 91.5625 -1.5 C98.22209333 0.18085583 102.74797447 4.96378322 106.5625 10.5 C108.5625 15.5 108.5625 15.5 108.5625 38.5 C124.4025 38.5 140.2425 38.5 156.5625 38.5 C156.5625 30.91 156.5625 23.32 156.5625 15.5 C161.08783784 6.44932432 161.08783784 6.44932432 164.5 3.625 C165.14839844 3.07070313 165.79679687 2.51640625 166.46484375 1.9453125 C172.96607557 -2.53412097 179.93390917 -2.17463728 187.5625 -1.5 C194.22209333 0.18085583 198.74797447 4.96378322 202.5625 10.5 C204.5625 15.5 204.5625 15.5 204.5625 38.5 C220.4025 38.5 236.2425 38.5 252.5625 38.5 C252.5625 30.91 252.5625 23.32 252.5625 15.5 C257.08783784 6.44932432 257.08783784 6.44932432 260.5 3.625 C261.14839844 3.07070313 261.79679687 2.51640625 262.46484375 1.9453125 C268.96607557 -2.53412097 275.93390917 -2.17463728 283.5625 -1.5 C290.22209333 0.18085583 294.74797447 4.96378322 298.5625 10.5 C300.28609099 14.15482473 300.80281931 16.99142165 300.7578125 21.01953125 C300.75136719 22.04111328 300.74492187 23.06269531 300.73828125 24.11523438 C300.72152344 25.17033203 300.70476562 26.22542969 300.6875 27.3125 C300.67847656 28.38693359 300.66945313 29.46136719 300.66015625 30.56835938 C300.63665306 33.21246854 300.60379575 35.85611872 300.5625 38.5 C301.2337793 38.49111755 301.90505859 38.48223511 302.59667969 38.4730835 C309.60489356 38.38435505 316.61294695 38.32415969 323.62158203 38.28027344 C326.23460373 38.26020067 328.84758075 38.23293642 331.46044922 38.19824219 C335.22374522 38.14953565 338.98644549 38.12698689 342.75 38.109375 C343.91176758 38.08872986 345.07353516 38.06808472 346.27050781 38.04681396 C354.23120383 38.04462856 359.64981468 39.07128795 365.8046875 44.46484375 C366.34351563 45.11582031 366.88234375 45.76679687 367.4375 46.4375 C367.99179687 47.08589844 368.54609375 47.73429687 369.1171875 48.40234375 C372.03094121 52.63122414 372.81277398 56.30558896 372.81976891 61.39835453 C372.8262178 62.58671408 372.83266669 63.77507362 372.839311 64.99944407 C372.8346652 66.95205225 372.8346652 66.95205225 372.82992554 68.94410706 C372.83366241 70.34388138 372.83826407 71.74365362 372.84365618 73.14342254 C372.85589654 76.9895608 372.85562452 80.83561214 372.85326743 84.68176544 C372.85285954 88.8297274 372.86389556 92.9776614 372.87338257 97.12561035 C372.88999783 105.25103436 372.8954923 113.37642934 372.89660732 121.50186891 C372.89755729 128.10402763 372.90166498 134.70617676 372.90800858 141.30833244 C372.92562028 160.01795604 372.93484724 178.72755669 372.93334763 197.43718863 C372.93326772 198.44590222 372.9331878 199.45461581 372.93310547 200.49389648 C372.93302371 201.50383814 372.93294195 202.5137798 372.93285771 203.55432575 C372.93204421 219.93428986 372.95119803 236.31416214 372.9793822 252.69409967 C373.00807919 269.50434832 373.02192434 286.31455212 373.02019465 303.12482589 C373.01952978 312.56608613 373.02506486 322.00725002 373.04655075 331.44848824 C373.06472041 339.48407487 373.06914452 347.51952147 373.0555319 355.5551197 C373.04898161 359.65691277 373.04895894 363.75843687 373.0662384 367.8602047 C373.08188326 371.61242087 373.07919456 375.36415286 373.06167014 379.1163566 C373.05711379 381.12235176 373.07232441 383.12836143 373.08814943 385.13429934 C373.07895184 386.32005114 373.06975425 387.50580294 373.06027794 388.72748661 C373.06093004 390.26584505 373.06093004 390.26584505 373.06159532 391.83528143 C372.42234999 395.24827459 371.33250392 396.45364243 368.5625 398.5 C367.2425 398.5 365.9225 398.5 364.5625 398.5 C364.5625 403.78 364.5625 409.06 364.5625 414.5 C366.5425 414.83 368.5225 415.16 370.5625 415.5 C372.60184331 418.55901496 372.81713976 419.20987288 372.85302734 422.66088867 C372.86578705 423.49573288 372.87854675 424.33057709 372.89169312 425.1907196 C372.89503159 426.54070793 372.89503159 426.54070793 372.8984375 427.91796875 C372.9050943 428.84918045 372.9117511 429.78039215 372.91860962 430.73982239 C372.92873904 432.71267726 372.93342655 434.68556642 372.93310547 436.65844727 C372.93745858 439.65895168 372.97371914 442.65796098 373.01171875 445.65820312 C373.01759107 447.57811999 373.02155768 449.49804382 373.0234375 451.41796875 C373.03780853 452.30783981 373.05217957 453.19771088 373.06698608 454.11454773 C373.01608667 461.15070417 371.26822154 466.41235752 366.59765625 471.7421875 C365.94667969 472.28101563 365.29570312 472.81984375 364.625 473.375 C363.97660156 473.92929687 363.32820313 474.48359375 362.66015625 475.0546875 C357.93702097 478.30898927 353.62316193 478.79025952 348.00426006 478.75726891 C347.24787295 478.76077498 346.49148584 478.76428105 345.7121779 478.76789337 C343.16910427 478.77722214 340.62625891 478.77228027 338.08317566 478.76742554 C336.24489906 478.77116105 334.40662405 478.77576218 332.56835157 478.78115618 C327.50997315 478.79341378 322.45166074 478.79312247 317.39327085 478.79076743 C311.94051996 478.79035996 306.48779043 478.80139171 301.03504944 478.81088257 C290.34953547 478.8275086 279.66404356 478.83299284 268.97851773 478.83410732 C260.29449093 478.83505703 251.61047141 478.83916342 242.92644691 478.84550858 C218.31597189 478.86312525 193.70551331 478.8723589 169.09503206 478.87084763 C168.43164225 478.87080774 167.76825243 478.87076785 167.0847599 478.87072675 C165.74322379 478.87064587 164.40168768 478.87056228 163.06015157 478.87047596 C142.18777827 478.86925044 121.31546994 478.88426349 100.44311523 478.91162109 C76.99559047 478.9423413 53.54810134 478.95952829 30.10055429 478.95769465 C17.68463809 478.95703012 5.26879517 478.96255006 -7.14710426 478.98405075 C-17.71769601 479.00223831 -28.28818126 479.00662982 -38.85878185 478.9930319 C-44.25316706 478.98649007 -49.64734781 478.98642898 -55.04171371 479.0037384 C-59.97960349 479.01942029 -64.91712587 479.01665547 -69.85500642 478.99917014 C-71.64166474 478.99608947 -73.42835014 478.99977263 -75.21497653 479.01089029 C-93.17081939 479.11522708 -93.17081939 479.11522708 -100.6796875 472.53515625 C-101.21851563 471.88417969 -101.75734375 471.23320312 -102.3125 470.5625 C-102.86679688 469.91410156 -103.42109375 469.26570313 -103.9921875 468.59765625 C-107.82350225 463.03707241 -107.72602922 457.93341922 -107.70492554 451.39671326 C-107.70945665 450.37029175 -107.71398776 449.34387025 -107.71865618 448.28634506 C-107.73132992 444.84246245 -107.7296779 441.39873736 -107.72802734 437.95483398 C-107.73401058 435.48770951 -107.74081566 433.02058692 -107.74838257 430.5534668 C-107.76422986 424.5456168 -107.77049165 418.5378289 -107.77160732 412.52996378 C-107.77255789 407.64786489 -107.77666859 402.76577895 -107.78300858 397.88368416 C-107.8006159 384.04376135 -107.80984784 370.20386955 -107.80834763 356.36393546 C-107.80826772 355.61807748 -107.8081878 354.8722195 -107.80810547 354.10375977 C-107.80802371 353.35699221 -107.80794195 352.61022465 -107.80785771 351.84082777 C-107.80704418 339.72875722 -107.82619993 327.61681085 -107.8543822 315.50477623 C-107.88308759 303.06993329 -107.8969239 290.63515098 -107.89519465 278.20027405 C-107.8945301 271.21821951 -107.90005107 264.23629528 -107.92155075 257.25427055 C-107.94162849 250.69202281 -107.94111304 244.13000387 -107.92651749 237.56772614 C-107.92441847 235.1553997 -107.92919475 232.74305634 -107.9412384 230.33075905 C-107.9565816 227.04561146 -107.94745482 223.76142862 -107.93197632 220.4763031 C-107.94226344 219.51473704 -107.95255057 218.55317098 -107.96314943 217.56246656 C-107.89633885 211.17593307 -107.89633885 211.17593307 -105.65659523 207.87648106 C-103.4375 206.5 -103.4375 206.5 -99.4375 206.5 C-99.4375 201.22 -99.4375 195.94 -99.4375 190.5 C-101.4175 190.17 -103.3975 189.84 -105.4375 189.5 C-107.66034898 186.16572653 -107.69124756 185.10844383 -107.70492554 181.21980286 C-107.71345551 180.12498596 -107.72198547 179.03016907 -107.73077393 177.9021759 C-107.72986755 176.70058334 -107.72896118 175.49899078 -107.72802734 174.26098633 C-107.73474457 172.99568085 -107.74146179 171.73037537 -107.74838257 170.42672729 C-107.76606453 166.95331878 -107.77073903 163.48000878 -107.77201414 160.00655961 C-107.77343575 157.83470717 -107.77770565 155.66287977 -107.78300858 153.49103355 C-107.80152034 145.90863836 -107.80967828 138.32631352 -107.80810547 130.74389648 C-107.80690568 123.68600241 -107.82797279 116.62841496 -107.8595928 109.57059842 C-107.88579463 103.50505574 -107.89647104 97.43961289 -107.89519465 91.37401408 C-107.8946859 87.75417002 -107.90031968 84.13459805 -107.92155075 80.51481056 C-107.94461603 76.47165839 -107.93538849 72.42918639 -107.92333984 68.38598633 C-107.93457886 67.19451492 -107.94581787 66.00304352 -107.95739746 64.77546692 C-107.89739464 56.84385787 -106.84668289 51.39039956 -101.47265625 45.2578125 C-100.82167969 44.71898437 -100.17070313 44.18015625 -99.5 43.625 C-98.52740234 42.79355469 -98.52740234 42.79355469 -97.53515625 41.9453125 C-93.40266317 39.0979709 -89.80217523 38.25004747 -84.82104492 38.27294922 C-83.72028122 38.27310028 -82.61951752 38.27325134 -81.48539734 38.27340698 C-79.71952019 38.28889084 -79.71952019 38.28889084 -77.91796875 38.3046875 C-76.09740715 38.30893234 -76.09740715 38.30893234 -74.24006653 38.31326294 C-70.36827689 38.32444692 -66.49671959 38.3495487 -62.625 38.375 C-59.99805022 38.38503208 -57.37109681 38.39415754 -54.74414062 38.40234375 C-48.30851464 38.42438046 -41.87302392 38.45784059 -35.4375 38.5 C-35.4689209 37.51773438 -35.4689209 37.51773438 -35.50097656 36.515625 C-35.58480383 33.51057672 -35.63636895 30.50577536 -35.6875 27.5 C-35.72101563 26.47003906 -35.75453125 25.44007812 -35.7890625 24.37890625 C-35.88852986 16.57071854 -34.75953483 11.29095028 -29.47265625 5.2578125 C-28.82167969 4.71898437 -28.17070313 4.18015625 -27.5 3.625 C-26.85160156 3.07070313 -26.20320313 2.51640625 -25.53515625 1.9453125 C-18.47077988 -2.92213491 -7.84396301 -3.47595223 0 0 Z " fill="#E4E7EC" transform="translate(123.4375,17.5)"/>
<path d="M0 0 C6.13052573 3.70468329 9.9448497 8.95587425 12.5625 15.5 C12.5625 23.09 12.5625 30.68 12.5625 38.5 C28.4025 38.5 44.2425 38.5 60.5625 38.5 C60.5625 30.91 60.5625 23.32 60.5625 15.5 C65.08783784 6.44932432 65.08783784 6.44932432 68.5 3.625 C69.14839844 3.07070313 69.79679688 2.51640625 70.46484375 1.9453125 C76.96607557 -2.53412097 83.93390917 -2.17463728 91.5625 -1.5 C98.22209333 0.18085583 102.74797447 4.96378322 106.5625 10.5 C108.5625 15.5 108.5625 15.5 108.5625 38.5 C124.4025 38.5 140.2425 38.5 156.5625 38.5 C156.5625 30.91 156.5625 23.32 156.5625 15.5 C161.08783784 6.44932432 161.08783784 6.44932432 164.5 3.625 C165.14839844 3.07070313 165.79679687 2.51640625 166.46484375 1.9453125 C172.96607557 -2.53412097 179.93390917 -2.17463728 187.5625 -1.5 C194.22209333 0.18085583 198.74797447 4.96378322 202.5625 10.5 C204.5625 15.5 204.5625 15.5 204.5625 38.5 C220.4025 38.5 236.2425 38.5 252.5625 38.5 C252.5625 30.91 252.5625 23.32 252.5625 15.5 C257.08783784 6.44932432 257.08783784 6.44932432 260.5 3.625 C261.14839844 3.07070313 261.79679687 2.51640625 262.46484375 1.9453125 C268.96607557 -2.53412097 275.93390917 -2.17463728 283.5625 -1.5 C290.22209333 0.18085583 294.74797447 4.96378322 298.5625 10.5 C300.28609099 14.15482473 300.80281931 16.99142165 300.7578125 21.01953125 C300.75136719 22.04111328 300.74492187 23.06269531 300.73828125 24.11523438 C300.72152344 25.17033203 300.70476562 26.22542969 300.6875 27.3125 C300.67847656 28.38693359 300.66945313 29.46136719 300.66015625 30.56835938 C300.63665306 33.21246854 300.60379575 35.85611872 300.5625 38.5 C301.2337793 38.49111755 301.90505859 38.48223511 302.59667969 38.4730835 C309.60489356 38.38435505 316.61294695 38.32415969 323.62158203 38.28027344 C326.23460373 38.26020067 328.84758075 38.23293642 331.46044922 38.19824219 C335.22374522 38.14953565 338.98644549 38.12698689 342.75 38.109375 C343.91176758 38.08872986 345.07353516 38.06808472 346.27050781 38.04681396 C354.23120383 38.04462856 359.64981468 39.07128795 365.8046875 44.46484375 C366.34351563 45.11582031 366.88234375 45.76679687 367.4375 46.4375 C367.99179687 47.08589844 368.54609375 47.73429687 369.1171875 48.40234375 C372.03094121 52.63122414 372.81277398 56.30558896 372.81976891 61.39835453 C372.8262178 62.58671408 372.83266669 63.77507362 372.839311 64.99944407 C372.8346652 66.95205225 372.8346652 66.95205225 372.82992554 68.94410706 C372.83366241 70.34388138 372.83826407 71.74365362 372.84365618 73.14342254 C372.85589654 76.9895608 372.85562452 80.83561214 372.85326743 84.68176544 C372.85285954 88.8297274 372.86389556 92.9776614 372.87338257 97.12561035 C372.88999783 105.25103436 372.8954923 113.37642934 372.89660732 121.50186891 C372.89755729 128.10402763 372.90166498 134.70617676 372.90800858 141.30833244 C372.92562028 160.01795604 372.93484724 178.72755669 372.93334763 197.43718863 C372.93326772 198.44590222 372.9331878 199.45461581 372.93310547 200.49389648 C372.93302371 201.50383814 372.93294195 202.5137798 372.93285771 203.55432575 C372.93204421 219.93428986 372.95119803 236.31416214 372.9793822 252.69409967 C373.00807919 269.50434832 373.02192434 286.31455212 373.02019465 303.12482589 C373.01952978 312.56608613 373.02506486 322.00725002 373.04655075 331.44848824 C373.06472041 339.48407487 373.06914452 347.51952147 373.0555319 355.5551197 C373.04898161 359.65691277 373.04895894 363.75843687 373.0662384 367.8602047 C373.08188326 371.61242087 373.07919456 375.36415286 373.06167014 379.1163566 C373.05711379 381.12235176 373.07232441 383.12836143 373.08814943 385.13429934 C373.07895184 386.32005114 373.06975425 387.50580294 373.06027794 388.72748661 C373.06093004 390.26584505 373.06093004 390.26584505 373.06159532 391.83528143 C372.42450181 395.23678581 371.28809792 396.42361663 368.5625 398.5 C364.80900538 398.96918683 362.52401547 399.03136381 359.1875 397.1875 C356.55497152 394.45372043 356.43764158 391.84226527 356.43945217 388.22651386 C356.4374613 387.34941698 356.43547043 386.4723201 356.43341923 385.56864452 C356.43633189 384.60492082 356.43924456 383.64119711 356.44224548 382.64826965 C356.44138947 381.62729187 356.44053345 380.60631409 356.43965149 379.55439758 C356.4379901 376.10631593 356.44353 372.65828233 356.44897461 369.21020508 C356.44928079 366.70676265 356.44914772 364.20332013 356.44860935 361.69987774 C356.44840602 355.66149074 356.45269984 349.62312248 356.45911068 343.58474017 C356.46630275 336.6018625 356.467105 329.61899005 356.46789551 322.6361084 C356.47314864 304.19490324 356.48710972 285.7537014 356.5 267.3125 C356.520625 226.124375 356.54125 184.93625 356.5625 142.5 C208.7225 142.5 60.8825 142.5 -91.4375 142.5 C-91.4375 156.36 -91.4375 170.22 -91.4375 184.5 C-94.4375 189.5 -94.4375 189.5 -96.55859375 190.34765625 C-97.32300781 190.41855469 -98.08742188 190.48945313 -98.875 190.5625 C-99.63683594 190.65660156 -100.39867187 190.75070313 -101.18359375 190.84765625 C-104.39092519 190.35293788 -105.40995836 188.98317629 -107.4375 186.5 C-107.94086456 183.98427963 -107.94086456 183.98427963 -107.94543457 181.09954834 C-107.95671387 180.00335678 -107.96799316 178.90716522 -107.97961426 177.77775574 C-107.97151733 176.57975845 -107.96342041 175.38176117 -107.95507812 174.14746094 C-107.9620874 172.88200943 -107.96909668 171.61655792 -107.97631836 170.3127594 C-107.99455223 166.84340562 -107.9874824 163.37452776 -107.97480202 159.90516567 C-107.96466571 156.26938545 -107.97407025 152.63364562 -107.98034668 148.99786377 C-107.98762499 142.88798729 -107.97803459 136.77830415 -107.95898438 130.66845703 C-107.93725403 123.61789636 -107.94423796 116.56779909 -107.96629 109.51724982 C-107.98448549 103.45590764 -107.98698098 97.39470443 -107.97653532 91.33334374 C-107.97031805 87.71690048 -107.96941488 84.10067437 -107.98268127 80.4842453 C-107.99645975 76.44592725 -107.97732276 72.40839747 -107.95507812 68.37011719 C-107.96317505 67.18021683 -107.97127197 65.99031647 -107.97961426 64.76435852 C-107.89896509 56.84572593 -106.83783362 51.38030119 -101.47265625 45.2578125 C-100.82167969 44.71898437 -100.17070313 44.18015625 -99.5 43.625 C-98.52740234 42.79355469 -98.52740234 42.79355469 -97.53515625 41.9453125 C-93.40266317 39.0979709 -89.80217523 38.25004747 -84.82104492 38.27294922 C-83.72028122 38.27310028 -82.61951752 38.27325134 -81.48539734 38.27340698 C-79.71952019 38.28889084 -79.71952019 38.28889084 -77.91796875 38.3046875 C-76.09740715 38.30893234 -76.09740715 38.30893234 -74.24006653 38.31326294 C-70.36827689 38.32444692 -66.49671959 38.3495487 -62.625 38.375 C-59.99805022 38.38503208 -57.37109681 38.39415754 -54.74414062 38.40234375 C-48.30851464 38.42438046 -41.87302392 38.45784059 -35.4375 38.5 C-35.4689209 37.51773438 -35.4689209 37.51773438 -35.50097656 36.515625 C-35.58480383 33.51057672 -35.63636895 30.50577536 -35.6875 27.5 C-35.72101563 26.47003906 -35.75453125 25.44007812 -35.7890625 24.37890625 C-35.88852986 16.57071854 -34.75953483 11.29095028 -29.47265625 5.2578125 C-28.82167969 4.71898437 -28.17070313 4.18015625 -27.5 3.625 C-26.85160156 3.07070313 -26.20320313 2.51640625 -25.53515625 1.9453125 C-18.47077988 -2.92213491 -7.84396301 -3.47595223 0 0 Z " fill="#000000" transform="translate(123.4375,17.5)"/>
<path d="M0 0 C1.20348083 -0.00006042 1.20348083 -0.00006042 2.43127441 -0.00012207 C4.12239443 0.00522359 5.8135146 0.02276578 7.50439453 0.05175781 C10.08573724 0.09362006 12.66446867 0.09282315 15.24609375 0.0859375 C16.89324721 0.09643096 18.54038728 0.10936992 20.1875 0.125 C21.3392572 0.12530212 21.3392572 0.12530212 22.51428223 0.12561035 C27.02599744 0.22473308 30.01087988 0.78722566 33.59375 3.59375 C34.74785254 5.90195508 34.7147797 7.20159276 34.70727539 9.76806641 C34.70716209 11.05917831 34.70716209 11.05917831 34.70704651 12.37637329 C34.70188522 13.30662323 34.69672394 14.23687317 34.69140625 15.1953125 C34.6899913 16.14691254 34.68857635 17.09851257 34.68711853 18.07894897 C34.68151012 21.12558097 34.66895619 24.17214013 34.65625 27.21875 C34.65123608 29.28124894 34.64667299 31.34374903 34.64257812 33.40625 C34.63238781 38.46880081 34.61281402 43.53119363 34.59375 48.59375 C45.15375 48.59375 55.71375 48.59375 66.59375 48.59375 C66.53574219 45.54769531 66.47773438 42.50164062 66.41796875 39.36328125 C66.37895702 36.4078227 66.34860732 33.45239301 66.3190918 30.49682617 C66.29397194 28.44526294 66.25986964 26.39378899 66.21655273 24.3425293 C66.15578998 21.39088909 66.12751508 18.4404335 66.10546875 15.48828125 C66.07966232 14.57351517 66.0538559 13.65874908 66.02726746 12.71626282 C66.02537839 8.41187975 66.20520875 6.19082527 68.59887695 2.51245117 C72.4308681 0.0574403 75.58918914 -0.09418184 80 0 C80.80232056 -0.00004028 81.60464111 -0.00008057 82.43127441 -0.00012207 C84.12239443 0.00522359 85.8135146 0.02276578 87.50439453 0.05175781 C90.08573724 0.09362006 92.66446867 0.09282315 95.24609375 0.0859375 C96.89324721 0.09643096 98.54038728 0.10936992 100.1875 0.125 C100.95533813 0.12520142 101.72317627 0.12540283 102.51428223 0.12561035 C107.02599744 0.22473308 110.01087988 0.78722566 113.59375 3.59375 C114.74785254 5.90195508 114.7147797 7.20159276 114.70727539 9.76806641 C114.70719986 10.62880768 114.70712433 11.48954895 114.70704651 12.37637329 C114.70188522 13.30662323 114.69672394 14.23687317 114.69140625 15.1953125 C114.68928383 16.62271255 114.68928383 16.62271255 114.68711853 18.07894897 C114.68151012 21.12558097 114.66895619 24.17214013 114.65625 27.21875 C114.65123608 29.28124894 114.64667299 31.34374903 114.64257812 33.40625 C114.63238781 38.46880081 114.61281402 43.53119363 114.59375 48.59375 C125.15375 48.59375 135.71375 48.59375 146.59375 48.59375 C146.50673828 44.02466797 146.50673828 44.02466797 146.41796875 39.36328125 C146.37895702 36.4078227 146.34860732 33.45239301 146.3190918 30.49682617 C146.29397194 28.44526294 146.25986964 26.39378899 146.21655273 24.3425293 C146.15578998 21.39088909 146.12751508 18.4404335 146.10546875 15.48828125 C146.07966232 14.57351517 146.0538559 13.65874908 146.02726746 12.71626282 C146.02537839 8.41187975 146.20520875 6.19082527 148.59887695 2.51245117 C152.4308681 0.0574403 155.58918914 -0.09418184 160 0 C160.80232056 -0.00004028 161.60464111 -0.00008057 162.43127441 -0.00012207 C164.12239443 0.00522359 165.8135146 0.02276578 167.50439453 0.05175781 C170.08573724 0.09362006 172.66446867 0.09282315 175.24609375 0.0859375 C176.89324721 0.09643096 178.54038728 0.10936992 180.1875 0.125 C180.95533813 0.12520142 181.72317627 0.12540283 182.51428223 0.12561035 C187.02599744 0.22473308 190.01087988 0.78722566 193.59375 3.59375 C194.74785254 5.90195508 194.7147797 7.20159276 194.70727539 9.76806641 C194.70719986 10.62880768 194.70712433 11.48954895 194.70704651 12.37637329 C194.70188522 13.30662323 194.69672394 14.23687317 194.69140625 15.1953125 C194.68928383 16.62271255 194.68928383 16.62271255 194.68711853 18.07894897 C194.68151012 21.12558097 194.66895619 24.17214013 194.65625 27.21875 C194.65123608 29.28124894 194.64667299 31.34374903 194.64257812 33.40625 C194.63153796 38.46877817 194.61426767 43.53125173 194.59375 48.59375 C195.15771484 48.57803955 195.72167969 48.5623291 196.30273438 48.54614258 C198.89963435 48.48313426 201.49637275 48.44455402 204.09375 48.40625 C205.4240625 48.36854492 205.4240625 48.36854492 206.78125 48.33007812 C214.43125058 48.24570312 220.92292043 49.5445499 226.84375 54.78125 C227.46765625 55.31105469 228.0915625 55.84085937 228.734375 56.38671875 C234.31676958 63.01288039 235.17650114 69.23191285 235.09545898 77.70385742 C235.10356346 79.3321624 235.10356346 79.3321624 235.11183167 80.99336243 C235.12428465 84.56226306 235.10785309 88.13035181 235.08984375 91.69921875 C235.08999878 94.18687482 235.09148847 96.67453113 235.09425354 99.16218567 C235.09563589 104.36628952 235.08310372 109.57011721 235.06030273 114.77416992 C235.03753364 120.11772575 235.02959436 125.46085537 235.03979492 130.80444336 C235.05211571 137.26519642 235.04978383 143.72574148 235.03413582 150.1864872 C235.02961957 152.64688016 235.02928602 155.10728446 235.03320122 157.56767845 C235.03610952 161.0026318 235.01962523 164.43695272 234.99780273 167.87182617 C235.00455521 169.39693314 235.00455521 169.39693314 235.01144409 170.95285034 C234.91789499 179.80938714 234.91789499 179.80938714 231.59375 183.59375 C228.71044172 184.55485276 226.90470068 184.72072371 223.9097681 184.72517776 C222.94136118 184.72901891 221.97295426 184.73286005 220.97520167 184.7368176 C219.37571315 184.73551787 219.37571315 184.73551787 217.74391174 184.73419189 C216.04758422 184.73864858 216.04758422 184.73864858 214.31698745 184.7431953 C210.50762292 184.75190345 206.69828973 184.75339232 202.88891602 184.75488281 C200.16593235 184.7589705 197.44295201 184.76451305 194.7199707 184.76992798 C187.30896074 184.78351385 179.89795619 184.78953614 172.48693585 184.79393864 C167.86144156 184.79670009 163.23594935 184.80093722 158.61045647 184.80544281 C145.80885862 184.81763479 133.00726244 184.82793491 120.20565891 184.8313179 C119.38624221 184.83153747 118.5668255 184.83175703 117.72257799 184.83198325 C116.90118353 184.83220153 116.07978907 184.83241981 115.23350388 184.8326447 C113.56899933 184.83308817 111.90449478 184.83353473 110.23999023 184.83398438 C109.41433569 184.8342058 108.58868114 184.83442723 107.73800676 184.83465537 C94.3519316 184.83860552 80.9659108 184.85606644 67.57985664 184.8793439 C53.84330943 184.90303851 40.10678954 184.91551885 26.37022156 184.91668582 C18.65486594 184.91760354 10.9395812 184.92338031 3.22424507 184.94150543 C-3.34380144 184.9568808 -9.91175517 184.96204204 -16.47981625 184.95376733 C-19.83226103 184.94985189 -23.18436637 184.95245475 -26.53681374 184.96482468 C-30.16784834 184.97744046 -33.79839766 184.97172377 -37.4294281 184.96124268 C-38.49352305 184.96929908 -39.55761801 184.97735548 -40.65395826 184.98565602 C-41.62497293 184.97906618 -42.5959876 184.97247633 -43.59642696 184.9656868 C-44.43474212 184.96628389 -45.27305727 184.96688097 -46.13677591 184.96749616 C-48.9705588 184.50081735 -50.3308094 183.55418337 -52.40625 181.59375 C-53.35332074 178.75253778 -53.53793068 176.98096436 -53.55342102 174.03486633 C-53.56415398 172.63244438 -53.56415398 172.63244438 -53.57510376 171.20169067 C-53.57779266 170.17776215 -53.58048157 169.15383362 -53.58325195 168.09887695 C-53.58982315 167.01888931 -53.59639435 165.93890167 -53.60316467 164.82618713 C-53.62290784 161.24480116 -53.63456308 157.66345715 -53.64453125 154.08203125 C-53.64860678 152.85912069 -53.6526823 151.63621014 -53.65688133 150.37624168 C-53.67774719 143.90260359 -53.69204626 137.42898672 -53.70141602 130.95532227 C-53.70947382 125.59812017 -53.73059082 120.24114243 -53.76293945 114.8840332 C-53.80137329 108.41609537 -53.82018075 101.94838505 -53.82469749 95.48033714 C-53.82956621 93.01681456 -53.84118823 90.5532956 -53.85973549 88.08983803 C-53.88410598 84.6381562 -53.88316509 81.18733739 -53.8762207 77.7355957 C-53.89543579 76.21488464 -53.89543579 76.21488464 -53.91503906 74.66345215 C-53.85998707 67.13921379 -52.25403606 61.80324055 -47.22265625 56.1328125 C-46.47886719 55.50117188 -45.73507813 54.86953125 -44.96875 54.21875 C-43.85693359 53.24808594 -43.85693359 53.24808594 -42.72265625 52.2578125 C-38.63516302 49.32143457 -35.11065984 48.33989725 -30.10546875 48.3984375 C-29.12900391 48.40488281 -28.15253906 48.41132813 -27.14648438 48.41796875 C-26.13908203 48.43472656 -25.13167969 48.45148438 -24.09375 48.46875 C-23.06701172 48.47777344 -22.04027344 48.48679687 -20.98242188 48.49609375 C-18.45679101 48.51958799 -15.9316419 48.55243869 -13.40625 48.59375 C-13.43243408 47.31733643 -13.45861816 46.04092285 -13.4855957 44.72583008 C-13.57620416 39.9830076 -13.63353827 35.24026138 -13.6809082 30.49682617 C-13.70602806 28.44526294 -13.74013036 26.39378899 -13.78344727 24.3425293 C-13.84421002 21.39088909 -13.87248492 18.4404335 -13.89453125 15.48828125 C-13.92033768 14.57351517 -13.9461441 13.65874908 -13.97273254 12.71626282 C-13.97462161 8.41187975 -13.79479125 6.19082527 -11.40112305 2.51245117 C-7.5691319 0.0574403 -4.41081086 -0.09418184 0 0 Z " fill="#010000" transform="translate(165.40625,263.40625)"/>
<path d="M0 0 C0.89490646 0.01110306 1.78981293 0.02220612 2.71183777 0.03364563 C3.73251846 0.03402328 4.75319916 0.03440094 5.80480957 0.03479004 C7.43944405 0.07349968 7.43944405 0.07349968 9.10710144 0.11299133 C10.79448677 0.12360344 10.79448677 0.12360344 12.51596069 0.13442993 C16.10301168 0.16238114 19.68849231 0.22512542 23.27507019 0.28877258 C25.70929241 0.31385431 28.14353914 0.33666769 30.57780457 0.35713196 C36.53992739 0.41221032 42.50113659 0.49584553 48.46257019 0.60127258 C48.47658875 1.48480408 48.47658875 1.48480408 48.4908905 2.38618469 C48.54520894 5.10450274 48.62872859 7.82121106 48.71257019 10.53877258 C48.72674988 11.46496399 48.74092957 12.3911554 48.75553894 13.34541321 C49.01712374 20.80057995 50.55048515 27.13340192 55.42741394 32.94111633 C62.41876945 38.60342208 67.38625593 40.47559643 76.46257019 39.60127258 C82.74996142 38.26041316 87.04371049 35.19008843 91.46257019 30.60127258 C96.8075885 20.03892636 96.8075885 20.03892636 96.46257019 0.60127258 C112.30257019 0.60127258 128.14257019 0.60127258 144.46257019 0.60127258 C144.79257019 7.53127258 145.12257019 14.46127258 145.46257019 21.60127258 C149.41986049 30.50517575 151.88879582 34.22767231 159.83757019 39.03877258 C167.98501566 40.78465376 175.33990293 39.86972286 182.37272644 35.38252258 C187.78360515 31.24681911 188.44190399 28.39777153 191.46257019 21.60127258 C191.79257019 14.67127258 192.12257019 7.74127258 192.46257019 0.60127258 C208.30257019 0.60127258 224.14257019 0.60127258 240.46257019 0.60127258 C240.79257019 7.53127258 241.12257019 14.46127258 241.46257019 21.60127258 C245.41986049 30.50517575 247.88879582 34.22767231 255.83757019 39.03877258 C263.98501566 40.78465376 271.33990293 39.86972286 278.37272644 35.38252258 C283.78360515 31.24681911 284.44190399 28.39777153 287.46257019 21.60127258 C287.79257019 14.67127258 288.12257019 7.74127258 288.46257019 0.60127258 C304.30257019 0.60127258 320.14257019 0.60127258 336.46257019 0.60127258 C336.79257019 7.53127258 337.12257019 14.46127258 337.46257019 21.60127258 C341.41986049 30.50517575 343.88879582 34.22767231 351.83757019 39.03877258 C359.98501566 40.78465376 367.33990293 39.86972286 374.37272644 35.38252258 C379.86916987 31.18141932 382.83138706 25.743693 383.873703 18.9030304 C384.07325512 16.11028371 384.16971249 13.33815991 384.21257019 10.53877258 C384.24221863 9.57777649 384.27186707 8.6167804 384.30241394 7.62666321 C384.37232071 5.28478627 384.42540155 2.94385844 384.46257019 0.60127258 C391.49171509 0.52516833 398.52075361 0.47264986 405.55021667 0.43647766 C407.94120759 0.42139715 410.33217087 0.40092981 412.72306824 0.37495422 C416.16104454 0.33853952 419.59865488 0.3215386 423.03678894 0.30830383 C424.10467148 0.29281998 425.17255402 0.27733612 426.27279663 0.26138306 C435.61781639 0.25926694 435.61781639 0.25926694 439.46257019 3.60127258 C449.74956306 24.17525831 440.46257019 49.59885725 440.46257019 72.60127258 C292.62257019 72.60127258 144.78257019 72.60127258 -7.53742981 72.60127258 C-7.53742981 1.78607892 -7.53742981 1.78607892 0 0 Z " fill="#FB5F66" transform="translate(39.53742980957031,71.39872741699219)"/>
<path d="M0 0 C0.76441406 0.0825 1.52882813 0.165 2.31640625 0.25 C5.29451913 1.30303439 5.91530822 2.19648935 7.4375 5 C7.89219418 8.2488565 7.84444282 11.47932283 7.82276917 14.75524902 C7.83062271 16.25684767 7.83062271 16.25684767 7.83863491 17.78878164 C7.85263621 21.15292914 7.84528474 24.51669522 7.83813477 27.88085938 C7.843875 30.2887252 7.85095682 32.69658814 7.85928345 35.10444641 C7.87441658 40.29420204 7.88053387 45.48388635 7.87875557 50.67366028 C7.87637289 58.18156197 7.8923563 65.6893388 7.91320812 73.19720787 C7.94674052 85.38390421 7.9683982 97.57058938 7.98120117 109.75732422 C7.98197066 110.48671359 7.98274015 111.21610296 7.98353296 111.96759504 C7.98663533 114.92307872 7.98971815 117.87856242 7.992773 120.83404616 C8.00130365 128.97025878 8.01220436 137.10646753 8.02416992 145.24267578 C8.02523794 145.97117719 8.02630596 146.6996786 8.02740634 147.45025581 C8.04549041 159.59127251 8.07147755 171.73226259 8.10230106 183.87325335 C8.12086749 191.36355806 8.13177158 198.85380304 8.13282298 206.34413111 C8.1340555 212.08024146 8.14510923 217.81629891 8.15976334 223.55238914 C8.1640543 225.90826737 8.16489546 228.26415471 8.16208839 230.62003517 C8.15870331 233.8283674 8.16743424 237.03644396 8.17921448 240.24475098 C8.17523338 241.18365346 8.17125229 242.12255595 8.16715056 243.08991003 C8.17276595 243.94883934 8.17838135 244.80776866 8.18416691 245.69272614 C8.18481901 246.43329081 8.18547112 247.17385549 8.18614298 247.93686152 C8.47959396 250.34550723 9.16454881 251.9418986 10.4375 254 C13.36102095 255.46176048 16.2930597 255.13811415 19.49721336 255.12863445 C20.23614197 255.13038749 20.97507057 255.13214053 21.73639095 255.13394669 C24.23804641 255.13863682 26.73964451 255.13613349 29.24130249 255.13371277 C31.04271608 255.13557923 32.84412926 255.13787927 34.64554179 255.14057809 C39.61579299 255.14672294 44.58602743 255.14655936 49.55628157 255.14538372 C54.90879548 255.14518038 60.26130392 255.15069199 65.61381531 255.15544128 C76.10789321 255.1637631 86.6019655 255.16649682 97.09604643 255.16705366 C105.62237757 255.1675281 114.14870684 255.16957923 122.67503738 255.17275429 C146.82545929 255.18156505 170.97587674 255.18617301 195.12630026 255.18542381 C197.08100331 255.18536388 197.08100331 255.18536388 199.07519531 255.18530273 C200.37991372 255.18526185 201.68463213 255.18522097 203.02888747 255.18517885 C224.181307 255.18477227 245.33370874 255.19434388 266.48612313 255.2084411 C288.18244512 255.22278722 309.87875842 255.22971226 331.57508528 255.22884732 C343.76509516 255.22851474 355.95508639 255.23128853 368.14509201 255.24202538 C378.52297618 255.25110721 388.90083324 255.25332479 399.27871965 255.24651595 C404.57734527 255.24323897 409.87591882 255.24323626 415.17453957 255.2518692 C420.02034191 255.25968343 424.86605045 255.25835522 429.71185036 255.24958507 C431.46958943 255.2480388 433.22733532 255.24990817 434.98506634 255.25544515 C437.36552763 255.26245005 439.74565485 255.25725539 442.12610435 255.24888897 C442.81612356 255.25385715 443.50614277 255.25882533 444.21707165 255.26394406 C447.75333028 255.23748221 450.52644572 255.12489169 453.4375 253 C454.69271406 249.23435783 454.57294759 245.71115283 454.578125 241.7890625 C454.59645096 240.13540287 454.61602108 238.48175665 454.63671875 236.828125 C454.66569298 234.22535527 454.68750029 231.62344936 454.68798828 229.02050781 C454.69132692 226.5050829 454.7258929 223.99164221 454.765625 221.4765625 C454.7585553 220.70245026 454.7514856 219.92833801 454.74420166 219.13076782 C454.8341814 215.12545492 455.27666434 213.20766423 457.75683594 210.00537109 C460.4375 208 460.4375 208 464 207.4375 C467.4375 208 467.4375 208 469.61914062 209.44042969 C472.36783154 213.30955907 472.01072102 216.87720122 471.96875 221.515625 C471.9725769 222.44542175 471.97640381 223.37521851 471.98034668 224.33319092 C471.98306676 226.30010053 471.97569882 228.26704625 471.95898438 230.23388672 C471.9376726 233.22576986 471.95873236 236.21522514 471.984375 239.20703125 C471.98172985 241.12240109 471.976601 243.03776943 471.96875 244.953125 C471.97684692 245.83985901 471.98494385 246.72659302 471.99328613 247.64019775 C471.88903383 254.64658563 470.12490723 259.93325696 465.47265625 265.2421875 C464.82167969 265.78101563 464.17070312 266.31984375 463.5 266.875 C462.85160156 267.42929687 462.20320313 267.98359375 461.53515625 268.5546875 C456.81202097 271.80898927 452.49816193 272.29025952 446.87926006 272.25726891 C446.12287295 272.26077498 445.36648584 272.26428105 444.5871779 272.26789337 C442.04410427 272.27722214 439.50125891 272.27228027 436.95817566 272.26742554 C435.11989906 272.27116105 433.28162405 272.27576218 431.44335157 272.28115618 C426.38497315 272.29341378 421.32666074 272.29312247 416.26827085 272.29076743 C410.81551996 272.29035996 405.36279043 272.30139171 399.91004944 272.31088257 C389.22453547 272.3275086 378.53904356 272.33299284 367.85351773 272.33410732 C359.16949093 272.33505703 350.48547141 272.33916342 341.80144691 272.34550858 C317.19097189 272.36312525 292.58051331 272.3723589 267.97003206 272.37084763 C267.30664225 272.37080774 266.64325243 272.37076785 265.9597599 272.37072675 C264.61822379 272.37064587 263.27668768 272.37056228 261.93515157 272.37047596 C241.06277827 272.36925044 220.19046994 272.38426349 199.31811523 272.41162109 C175.87059047 272.4423413 152.42310134 272.45952829 128.97555429 272.45769465 C116.55963809 272.45703012 104.14379517 272.46255006 91.72789574 272.48405075 C81.15730399 272.50223831 70.58681874 272.50662982 60.01621815 272.4930319 C54.62183294 272.48649007 49.22765219 272.48642898 43.83328629 272.5037384 C38.89539651 272.51942029 33.95787413 272.51665547 29.01999358 272.49917014 C27.23333526 272.49608947 25.44664986 272.49977263 23.66002347 272.51089029 C5.70418061 272.61522708 5.70418061 272.61522708 -1.8046875 266.03515625 C-2.34351563 265.38417969 -2.88234375 264.73320312 -3.4375 264.0625 C-3.99179687 263.41410156 -4.54609375 262.76570313 -5.1171875 262.09765625 C-8.94850225 256.53707241 -8.85102922 251.43341922 -8.82992554 244.89671326 C-8.83445665 243.87029175 -8.83898776 242.84387025 -8.84365618 241.78634506 C-8.85632992 238.34246245 -8.8546779 234.89873736 -8.85302734 231.45483398 C-8.85901058 228.98770951 -8.86581566 226.52058692 -8.87338257 224.0534668 C-8.88922986 218.0456168 -8.89549165 212.0378289 -8.89660732 206.02996378 C-8.89755789 201.14786489 -8.90166859 196.26577895 -8.90800858 191.38368416 C-8.9256159 177.54376135 -8.93484784 163.70386955 -8.93334763 149.86393546 C-8.93326772 149.11807748 -8.9331878 148.3722195 -8.93310547 147.60375977 C-8.93302371 146.85699221 -8.93294195 146.11022465 -8.93285771 145.34082777 C-8.93204418 133.22875722 -8.95119993 121.11681085 -8.9793822 109.00477623 C-9.00808759 96.56993329 -9.0219239 84.13515098 -9.02019465 71.70027405 C-9.0195301 64.71821951 -9.02505107 57.73629528 -9.04655075 50.75427055 C-9.06662849 44.19202281 -9.06611304 37.63000387 -9.05151749 31.06772614 C-9.04941847 28.6553997 -9.05419475 26.24305634 -9.0662384 23.83075905 C-9.0815816 20.54561146 -9.07245482 17.26142862 -9.05697632 13.9763031 C-9.06726344 13.01473704 -9.07755057 12.05317098 -9.08814943 11.06246656 C-9.02087427 4.63152299 -9.02087427 4.63152299 -6.67246437 1.39601231 C-4.1366768 -0.28173671 -2.98695426 -0.40432545 0 0 Z " fill="#000000" transform="translate(24.5625,224)"/>
<path d="M0 0 C6.67710997 1.11285166 6.67710997 1.11285166 10.375 5.3125 C16.49182614 11.80066803 23.05742833 14.99835586 32 15.4375 C41.04750926 15.32878494 48.35150881 10.98368013 54.625 4.6875 C55.23601562 4.01074219 55.84703125 3.33398438 56.4765625 2.63671875 C58.7857259 0.15584833 59.85995408 0.0105695 63.3125 -0.25 C68.99376243 0.13517033 71.52687934 2.4553347 75.3125 6.4375 C81.03244596 12.34478044 87.8479552 15.03717637 96 15.4375 C105.04750926 15.32878494 112.35150881 10.98368013 118.625 4.6875 C119.23601562 4.01074219 119.84703125 3.33398438 120.4765625 2.63671875 C122.7857259 0.15584833 123.85995408 0.0105695 127.3125 -0.25 C132.99376243 0.13517033 135.52687934 2.4553347 139.3125 6.4375 C145.03244596 12.34478044 151.8479552 15.03717637 160 15.4375 C169.04750926 15.32878494 176.35150881 10.98368013 182.625 4.6875 C183.23601562 4.01074219 183.84703125 3.33398438 184.4765625 2.63671875 C186.7857259 0.15584833 187.85995408 0.0105695 191.3125 -0.25 C196.99376243 0.13517033 199.52687934 2.4553347 203.3125 6.4375 C209.03244596 12.34478044 215.8479552 15.03717637 224 15.4375 C231.82571813 15.343466 238.59513293 12.14163365 244.32421875 6.85546875 C245.61896965 5.48673209 246.8789553 4.08344399 248.0859375 2.63671875 C250 1 250 1 256 0 C256 18.48 256 36.96 256 56 C171.52 56 87.04 56 0 56 C0 37.52 0 19.04 0 0 Z " fill="#FBB75F" transform="translate(128,376)"/>
<path d="M0 0 C1.00121462 -0.00638882 2.00242925 -0.01277764 3.03398371 -0.01936007 C6.39297471 -0.03463534 9.75079105 -0.01413097 13.10974121 0.00622559 C15.51613252 0.00272517 17.92252152 -0.00293249 20.3289032 -0.0105896 C26.18880369 -0.02337612 32.04838899 -0.01288464 37.90823877 0.00852364 C44.73239629 0.03253941 51.55647449 0.03081892 58.38066489 0.02821773 C70.55686776 0.02452769 82.7329074 0.04535179 94.90905762 0.07946777 C106.72387823 0.11255907 118.53852753 0.12672606 130.35339355 0.1204834 C143.21931008 0.11371883 156.08515484 0.1161815 168.95106077 0.1358428 C169.97165748 0.13740203 169.97165748 0.13740203 171.01287231 0.13899276 C172.37940866 0.14108365 173.74594498 0.14319462 175.11248127 0.14532593 C179.86912707 0.15222056 184.62575076 0.152891 189.38240051 0.15144348 C195.78460503 0.14985316 202.18664739 0.16475279 208.58880043 0.19067001 C210.94102801 0.19784309 213.29327741 0.19990998 215.64551353 0.19655228 C218.85138343 0.19284841 222.0566507 0.20754761 225.26245117 0.22705078 C226.1977587 0.22172286 227.13306623 0.21639493 228.0967164 0.21090555 C232.90730671 0.26154788 236.25424829 0.43262648 240.13122559 3.62145996 C241.5143134 6.38763559 241.24332755 8.63163996 241.22888184 11.72302246 C241.22565918 12.93474121 241.22243652 14.14645996 241.21911621 15.39489746 C241.2107373 16.66591309 241.2023584 17.93692871 241.19372559 19.24645996 C241.18695801 21.16458496 241.18695801 21.16458496 241.18005371 23.12145996 C241.16823762 26.28817288 241.15176373 29.45479352 241.13122559 32.62145996 C240.54099609 32.73465576 239.9507666 32.84785156 239.34265137 32.96447754 C229.92527345 34.89045344 223.04722165 39.03191151 216.60388184 46.20349121 C214.32238631 48.40026276 212.01631274 48.63948551 208.94372559 49.12145996 C203.46126963 48.40244934 200.96090874 45.40396016 197.13122559 41.62145996 C191.20841598 36.02522131 185.78478819 33.50584024 177.63122559 33.24645996 C168.1072079 33.5362641 161.05967417 37.54076151 154.44372559 44.30895996 C153.8829834 44.91095215 153.32224121 45.51294434 152.74450684 46.13317871 C150.35987837 48.33304178 148.10562731 48.62547538 144.94372559 49.12145996 C139.46126963 48.40244934 136.96090874 45.40396016 133.13122559 41.62145996 C127.20841598 36.02522131 121.78478819 33.50584024 113.63122559 33.24645996 C104.1072079 33.5362641 97.05967417 37.54076151 90.44372559 44.30895996 C89.8829834 44.91095215 89.32224121 45.51294434 88.74450684 46.13317871 C86.35987837 48.33304178 84.10562731 48.62547538 80.94372559 49.12145996 C75.46126963 48.40244934 72.96090874 45.40396016 69.13122559 41.62145996 C63.20841598 36.02522131 57.78478819 33.50584024 49.63122559 33.24645996 C40.1072079 33.5362641 33.05967417 37.54076151 26.44372559 44.30895996 C25.8829834 44.91095215 25.32224121 45.51294434 24.74450684 46.13317871 C22.35987837 48.33304178 20.10562731 48.62547538 16.94372559 49.12145996 C12.17984247 48.4966884 10.62295807 46.80480776 7.24450684 43.57067871 C0.70576702 37.53956749 -6.10897117 33.99260548 -14.86877441 32.62145996 C-15.01414254 28.22597505 -15.10287389 23.83110909 -15.18127441 19.43395996 C-15.22316895 18.18808105 -15.26506348 16.94220215 -15.30822754 15.65856934 C-15.32434082 14.45651855 -15.3404541 13.25446777 -15.35705566 12.01599121 C-15.38323975 10.91102295 -15.40942383 9.80605469 -15.43640137 8.66760254 C-13.83419801 0.06945575 -7.26345672 -0.09721171 0 0 Z " fill="#FB5F66" transform="translate(142.8687744140625,327.3785400390625)"/>
<path d="M0 0 C9.94370834 8.62331428 19.18166031 24.89969125 21.5 37.77734375 C21.8860781 45.60749012 19.00729229 52.11240483 13.8125 57.875 C8.02840808 63.17913535 1.12233059 64.64585486 -6.58984375 64.3359375 C-14.11883009 63.28651639 -18.63912818 58.92413955 -23.3671875 53.22265625 C-25.40546399 50.44806457 -26.44239764 48.41531447 -27 45 C-27.11472656 44.33097656 -27.22945313 43.66195312 -27.34765625 42.97265625 C-28.41685301 31.28925164 -20.71188076 19.76549872 -14.8125 10.1875 C-14.18915771 9.17405518 -14.18915771 9.17405518 -13.55322266 8.14013672 C-9.9120151 2.44610923 -7.11305838 -1.16131565 0 0 Z " fill="#030303" transform="translate(339,192)"/>
<path d="M0 0 C9.94370834 8.62331428 19.18166031 24.89969125 21.5 37.77734375 C21.8860781 45.60749012 19.00729229 52.11240483 13.8125 57.875 C8.02840808 63.17913535 1.12233059 64.64585486 -6.58984375 64.3359375 C-14.11883009 63.28651639 -18.63912818 58.92413955 -23.3671875 53.22265625 C-25.40546399 50.44806457 -26.44239764 48.41531447 -27 45 C-27.11472656 44.33097656 -27.22945312 43.66195312 -27.34765625 42.97265625 C-28.41685301 31.28925164 -20.71188076 19.76549872 -14.8125 10.1875 C-14.18915771 9.17405518 -14.18915771 9.17405518 -13.55322266 8.14013672 C-9.9120151 2.44610923 -7.11305838 -1.16131565 0 0 Z " fill="#030303" transform="translate(259,192)"/>
<path d="M0 0 C9.94370834 8.62331428 19.18166031 24.89969125 21.5 37.77734375 C21.8860781 45.60749012 19.00729229 52.11240483 13.8125 57.875 C8.02840808 63.17913535 1.12233059 64.64585486 -6.58984375 64.3359375 C-14.11883009 63.28651639 -18.63912818 58.92413955 -23.3671875 53.22265625 C-25.40546399 50.44806457 -26.44239764 48.41531447 -27 45 C-27.11472656 44.33097656 -27.22945312 43.66195312 -27.34765625 42.97265625 C-28.41685301 31.28925164 -20.71188076 19.76549872 -14.8125 10.1875 C-14.18915771 9.17405518 -14.18915771 9.17405518 -13.55322266 8.14013672 C-9.9120151 2.44610923 -7.11305838 -1.16131565 0 0 Z " fill="#030303" transform="translate(179,192)"/>
<path d="M0 0 C12.53846154 0 12.53846154 0 16 3 C17.41697193 5.83394387 17.11945929 8.20873738 17.11352539 11.37744141 C17.11367142 12.03122269 17.11381744 12.68500397 17.1139679 13.3585968 C17.11327036 15.52295227 17.1054854 17.68722204 17.09765625 19.8515625 C17.09579151 21.35086012 17.09436787 22.85015834 17.09336853 24.34945679 C17.08954779 28.29831622 17.07972128 32.24713896 17.06866455 36.19598389 C17.05844091 40.22440087 17.05386887 44.25282378 17.04882812 48.28125 C17.03809862 56.18751873 17.0205054 64.09375057 17 72 C11.72 72 6.44 72 1 72 C0.67 48.24 0.34 24.48 0 0 Z " fill="#FA4A5A" transform="translate(463,72)"/>
<path d="M0 0 C4.23848364 0.88301743 5.42854262 2.11730128 8 5.625 C8.73290616 9.59258571 8.652778 13.50675896 8.59375 17.53125 C8.59379028 18.68870728 8.59383057 19.84616455 8.59387207 21.03869629 C8.58851653 23.48304684 8.57093268 25.92739694 8.54199219 28.37158203 C8.50015061 32.11153833 8.50092365 35.84969293 8.5078125 39.58984375 C8.49731945 41.96615834 8.48438074 44.34246365 8.46875 46.71875 C8.46854858 47.8365686 8.46834717 48.95438721 8.46813965 50.1060791 C8.44427185 51.67295471 8.44427185 51.67295471 8.41992188 53.27148438 C8.41150269 54.1868396 8.4030835 55.10219482 8.39440918 56.04528809 C7.917351 59.16558226 6.83073373 61.07382635 5 63.625 C2.19084526 65.02957737 0.11189466 64.87395157 -3 64.625 C-6.1359157 62.84515595 -6.84102736 62.10191793 -8 58.625 C-8.11226312 56.91865843 -8.16896412 55.20839861 -8.19287109 53.49853516 C-8.21696548 51.93143295 -8.21696548 51.93143295 -8.24154663 50.33267212 C-8.28602343 45.56488736 -8.32704304 40.79724045 -8.35009766 36.02929688 C-8.36667624 33.51325239 -8.39399082 30.99725536 -8.43212891 28.48144531 C-8.48682216 24.85456909 -8.50875922 21.22879524 -8.5234375 17.6015625 C-8.54610687 16.47746979 -8.56877625 15.35337708 -8.59213257 14.19522095 C-8.57101223 6.40644147 -8.57101223 6.40644147 -5.65478516 2.41552734 C-3 0.625 -3 0.625 0 0 Z " fill="#E4E7EC" transform="translate(400,31.375)"/>
<path d="M0 0 C4.23848364 0.88301743 5.42854262 2.11730128 8 5.625 C8.73290616 9.59258571 8.652778 13.50675896 8.59375 17.53125 C8.59379028 18.68870728 8.59383057 19.84616455 8.59387207 21.03869629 C8.58851653 23.48304684 8.57093268 25.92739694 8.54199219 28.37158203 C8.50015061 32.11153833 8.50092365 35.84969293 8.5078125 39.58984375 C8.49731945 41.96615834 8.48438074 44.34246365 8.46875 46.71875 C8.46854858 47.8365686 8.46834717 48.95438721 8.46813965 50.1060791 C8.44427185 51.67295471 8.44427185 51.67295471 8.41992188 53.27148438 C8.41150269 54.1868396 8.4030835 55.10219482 8.39440918 56.04528809 C7.917351 59.16558226 6.83073373 61.07382635 5 63.625 C2.19084526 65.02957737 0.11189466 64.87395157 -3 64.625 C-6.1359157 62.84515595 -6.84102736 62.10191793 -8 58.625 C-8.11226312 56.91865843 -8.16896412 55.20839861 -8.19287109 53.49853516 C-8.21696548 51.93143295 -8.21696548 51.93143295 -8.24154663 50.33267212 C-8.28602343 45.56488736 -8.32704304 40.79724045 -8.35009766 36.02929688 C-8.36667624 33.51325239 -8.39399082 30.99725536 -8.43212891 28.48144531 C-8.48682216 24.85456909 -8.50875922 21.22879524 -8.5234375 17.6015625 C-8.54610687 16.47746979 -8.56877625 15.35337708 -8.59213257 14.19522095 C-8.57101223 6.40644147 -8.57101223 6.40644147 -5.65478516 2.41552734 C-3 0.625 -3 0.625 0 0 Z " fill="#E4E7EC" transform="translate(304,31.375)"/>
<path d="M0 0 C4.23848364 0.88301743 5.42854262 2.11730128 8 5.625 C8.73290616 9.59258571 8.652778 13.50675896 8.59375 17.53125 C8.59379028 18.68870728 8.59383057 19.84616455 8.59387207 21.03869629 C8.58851653 23.48304684 8.57093268 25.92739694 8.54199219 28.37158203 C8.50015061 32.11153833 8.50092365 35.84969293 8.5078125 39.58984375 C8.49731945 41.96615834 8.48438074 44.34246365 8.46875 46.71875 C8.46854858 47.8365686 8.46834717 48.95438721 8.46813965 50.1060791 C8.44427185 51.67295471 8.44427185 51.67295471 8.41992188 53.27148438 C8.41150269 54.1868396 8.4030835 55.10219482 8.39440918 56.04528809 C7.917351 59.16558226 6.83073373 61.07382635 5 63.625 C2.19084526 65.02957737 0.11189466 64.87395157 -3 64.625 C-6.1359157 62.84515595 -6.84102736 62.10191793 -8 58.625 C-8.11226312 56.91865843 -8.16896412 55.20839861 -8.19287109 53.49853516 C-8.21696548 51.93143295 -8.21696548 51.93143295 -8.24154663 50.33267212 C-8.28602343 45.56488736 -8.32704304 40.79724045 -8.35009766 36.02929688 C-8.36667624 33.51325239 -8.39399082 30.99725536 -8.43212891 28.48144531 C-8.48682216 24.85456909 -8.50875922 21.22879524 -8.5234375 17.6015625 C-8.54610687 16.47746979 -8.56877625 15.35337708 -8.59213257 14.19522095 C-8.57101223 6.40644147 -8.57101223 6.40644147 -5.65478516 2.41552734 C-3 0.625 -3 0.625 0 0 Z " fill="#E4E7EC" transform="translate(208,31.375)"/>
<path d="M0 0 C4.23848364 0.88301743 5.42854262 2.11730128 8 5.625 C8.73290616 9.59258571 8.652778 13.50675896 8.59375 17.53125 C8.59379028 18.68870728 8.59383057 19.84616455 8.59387207 21.03869629 C8.58851653 23.48304684 8.57093268 25.92739694 8.54199219 28.37158203 C8.50015061 32.11153833 8.50092365 35.84969293 8.5078125 39.58984375 C8.49731945 41.96615834 8.48438074 44.34246365 8.46875 46.71875 C8.46854858 47.8365686 8.46834717 48.95438721 8.46813965 50.1060791 C8.44427185 51.67295471 8.44427185 51.67295471 8.41992188 53.27148438 C8.41150269 54.1868396 8.4030835 55.10219482 8.39440918 56.04528809 C7.917351 59.16558226 6.83073373 61.07382635 5 63.625 C2.19084526 65.02957737 0.11189466 64.87395157 -3 64.625 C-6.1359157 62.84515595 -6.84102736 62.10191793 -8 58.625 C-8.11226312 56.91865843 -8.16896412 55.20839861 -8.19287109 53.49853516 C-8.21696548 51.93143295 -8.21696548 51.93143295 -8.24154663 50.33267212 C-8.28602343 45.56488736 -8.32704304 40.79724045 -8.35009766 36.02929688 C-8.36667624 33.51325239 -8.39399082 30.99725536 -8.43212891 28.48144531 C-8.48682216 24.85456909 -8.50875922 21.22879524 -8.5234375 17.6015625 C-8.54610687 16.47746979 -8.56877625 15.35337708 -8.59213257 14.19522095 C-8.57101223 6.40644147 -8.57101223 6.40644147 -5.65478516 2.41552734 C-3 0.625 -3 0.625 0 0 Z " fill="#E4E7EC" transform="translate(112,31.375)"/>
<path d="M0 0 C0 18.48 0 36.96 0 56 C-5.28 56 -10.56 56 -16 56 C-16.34170173 49.72084928 -16.62891529 43.44239304 -16.86669922 37.15844727 C-16.95507524 35.02301706 -17.05810555 32.88813955 -17.17626953 30.75415039 C-17.34397441 27.67884419 -17.45818179 24.60537352 -17.5625 21.52734375 C-17.62566406 20.57915268 -17.68882812 19.63096161 -17.75390625 18.65403748 C-17.84579099 14.6427168 -17.86692851 12.06774792 -15.27587891 8.87649536 C-13.25861142 7.10163035 -11.19953597 5.53971883 -9 4 C-7.63875 2.7934375 -7.63875 2.7934375 -6.25 1.5625 C-4 0 -4 0 0 0 Z " fill="#FBA951" transform="translate(384,376)"/>
<path d="M0 0 C12.53846154 0 12.53846154 0 16 3 C17.38308781 5.76617563 17.11210196 8.01018 17.09765625 11.1015625 C17.09443359 12.31328125 17.09121094 13.525 17.08789062 14.7734375 C17.07951172 16.04445313 17.07113281 17.31546875 17.0625 18.625 C17.05798828 19.90375 17.05347656 21.1825 17.04882812 22.5 C17.03701203 25.66671292 17.02053815 28.83333356 17 32 C16.43152344 32.10957031 15.86304688 32.21914063 15.27734375 32.33203125 C14.50519531 32.49058594 13.73304688 32.64914062 12.9375 32.8125 C12.18339844 32.96332031 11.42929687 33.11414063 10.65234375 33.26953125 C7.32677543 34.18540942 4.17048249 35.64122179 1 37 C0.67 24.79 0.34 12.58 0 0 Z " fill="#F94A5A" transform="translate(367,328)"/>
<path d="M0 0 C5.28 0 10.56 0 16 0 C16 10.56 16 21.12 16 32 C10.72 32 5.44 32 0 32 C0 21.44 0 10.88 0 0 Z " fill="#D8DBE0" transform="translate(328,280)"/>
<path d="M0 0 C5.28 0 10.56 0 16 0 C16 10.56 16 21.12 16 32 C10.72 32 5.44 32 0 32 C0 21.44 0 10.88 0 0 Z " fill="#D8DBE0" transform="translate(248,280)"/>
<path d="M0 0 C5.28 0 10.56 0 16 0 C16 10.56 16 21.12 16 32 C10.72 32 5.44 32 0 32 C0 21.44 0 10.88 0 0 Z " fill="#D8DBE0" transform="translate(168,280)"/>
<path d="M0 0 C3 1 3 1 4.640625 3.6953125 C5.17171875 4.82710937 5.7028125 5.95890625 6.25 7.125 C7.06210937 8.79949219 7.06210937 8.79949219 7.890625 10.5078125 C9.16213525 14.51038351 8.98680938 16.94862681 8 21 C5.73498601 23.60057161 4.42150709 23.94731161 1 24.375 C-2.42150709 23.94731161 -3.73498601 23.60057161 -6 21 C-7.57360318 14.94537445 -6.48025511 11.75511503 -3.5625 6.5625 C-3.05493164 5.60827148 -3.05493164 5.60827148 -2.53710938 4.63476562 C-1.70768013 3.08104605 -0.85606297 1.5392055 0 0 Z " fill="#F3B15C" transform="translate(335,216)"/>
<path d="M0 0 C3 1 3 1 4.640625 3.6953125 C5.17171875 4.82710937 5.7028125 5.95890625 6.25 7.125 C7.06210937 8.79949219 7.06210937 8.79949219 7.890625 10.5078125 C9.16213525 14.51038351 8.98680938 16.94862681 8 21 C5.73498601 23.60057161 4.42150709 23.94731161 1 24.375 C-2.42150709 23.94731161 -3.73498601 23.60057161 -6 21 C-7.57360318 14.94537445 -6.48025511 11.75511503 -3.5625 6.5625 C-3.05493164 5.60827148 -3.05493164 5.60827148 -2.53710938 4.63476562 C-1.70768013 3.08104605 -0.85606297 1.5392055 0 0 Z " fill="#F3B15C" transform="translate(255,216)"/>
<path d="M0 0 C3 1 3 1 4.640625 3.6953125 C5.17171875 4.82710937 5.7028125 5.95890625 6.25 7.125 C7.06210938 8.79949219 7.06210938 8.79949219 7.890625 10.5078125 C9.16213525 14.51038351 8.98680938 16.94862681 8 21 C5.73498601 23.60057161 4.42150709 23.94731161 1 24.375 C-2.42150709 23.94731161 -3.73498601 23.60057161 -6 21 C-7.57360318 14.94537445 -6.48025511 11.75511503 -3.5625 6.5625 C-3.05493164 5.60827148 -3.05493164 5.60827148 -2.53710938 4.63476562 C-1.70768013 3.08104605 -0.85606297 1.5392055 0 0 Z " fill="#F3B15C" transform="translate(175,216)"/>
</svg>
