<?xml version="1.0" encoding="UTF-8"?>
<svg version="1.1" xmlns="http://www.w3.org/2000/svg" width="512" height="512">
<path d="M0 0 C1.8279678 -0.00679667 1.8279678 -0.00679667 3.69286424 -0.01373065 C7.05883318 -0.02416965 10.42458773 -0.02570586 13.7905575 -0.02334189 C17.42738843 -0.02293251 21.0641879 -0.0339845 24.70100403 -0.04345703 C31.82037725 -0.06004226 38.93971735 -0.06556547 46.05910828 -0.06668179 C51.8492381 -0.06763352 57.63935704 -0.07175008 63.42948341 -0.07808304 C79.86229113 -0.09568938 96.29507276 -0.10492296 112.72788998 -0.10342209 C113.61306302 -0.10334218 114.49823607 -0.10326227 115.41023254 -0.10317993 C116.29649231 -0.10309817 117.18275208 -0.10301641 118.09586821 -0.10293217 C132.45201091 -0.10211964 146.80804859 -0.12125057 161.16416093 -0.14945666 C175.92131638 -0.17822081 190.67842069 -0.19199499 205.43560487 -0.19026911 C213.71401392 -0.18960639 221.99231291 -0.19504694 230.27069664 -0.21662521 C237.32038041 -0.23488363 244.36990422 -0.23914632 251.41960146 -0.22560637 C255.01217728 -0.21909984 258.60444667 -0.21887474 262.19699287 -0.23631287 C266.10265982 -0.25507479 270.00788516 -0.24242849 273.91357422 -0.22705078 C275.03364386 -0.23733791 276.15371351 -0.24762503 277.30772465 -0.25822389 C294.63857085 -0.10819636 308.68377712 7.23927844 320.77424622 19.26742554 C321.40073059 19.85910522 322.02721497 20.45078491 322.67268372 21.06039429 C332.74050151 31.37876864 338.60826554 46.90400726 338.83674622 61.16976929 C338.81612122 62.19199585 338.79549622 63.21422241 338.77424622 64.26742554 C339.7784259 64.22101929 340.78260559 64.17461304 341.81721497 64.12680054 C353.41809849 63.75322243 364.68153428 64.69258986 373.93440247 72.51742554 C374.5415509 73.09492554 375.14869934 73.67242554 375.77424622 74.26742554 C376.47420715 74.92742554 377.17416809 75.58742554 377.89533997 76.26742554 C385.91502806 84.50783899 388.89056875 94.46589771 388.90567398 105.84481239 C388.90951513 106.93617772 388.91335627 108.02754304 388.91731381 109.15198004 C388.91644733 110.34029343 388.91558085 111.52860681 388.91468811 112.75292969 C388.91914479 114.65902183 388.91914479 114.65902183 388.92369151 116.60362089 C388.931739 120.12419253 388.93354983 123.64474375 388.93428898 127.1653235 C388.93614347 130.96507959 388.94369282 134.76482519 388.95042419 138.5645752 C388.96399226 146.8705444 388.97002992 155.17650876 388.97443485 163.4824872 C388.97719998 168.67173012 388.98143784 173.86097119 388.98593903 179.05021286 C388.99812994 193.42604518 389.00842945 207.80187602 389.01181412 222.17771339 C389.01203368 223.09737863 389.01225325 224.01704387 389.01247947 224.96457776 C389.01269775 225.88640742 389.01291602 226.80823708 389.01314092 227.75800097 C389.01358438 229.62588859 389.01403094 231.4937762 389.01448059 233.36166382 C389.01470202 234.28819489 389.01492345 235.21472597 389.01515159 236.16933374 C389.01909803 251.1761424 389.03654815 266.18290245 389.05984011 281.18969233 C389.08357677 296.60783136 389.09601703 312.02594601 389.09718204 327.4441036 C389.09809752 336.0964055 389.10381787 344.74864408 389.12200165 353.4009285 C389.13743392 360.76979662 389.14250471 368.13858184 389.13426355 375.50746305 C389.13036802 379.26389815 389.13123261 383.02016645 389.14532089 386.77658081 C389.16048686 390.85784631 389.15216087 394.93873918 389.14173889 399.02001953 C389.1538235 400.78241311 389.1538235 400.78241311 389.16615224 402.5804106 C389.0847715 416.25136149 385.87726405 427.84454753 376.52424622 438.07992554 C365.79161804 448.08131971 352.70305365 448.62869144 338.77424622 448.26742554 C338.74846497 449.05504272 338.72268372 449.84265991 338.69612122 450.65414429 C337.63433703 471.04522685 329.1709308 485.70864511 314.52033997 499.36898804 C302.76705006 509.19586395 289.48870663 512.57575625 274.54849243 512.53485107 C273.32984723 512.53938219 272.11120203 512.5439133 270.85562819 512.54858172 C267.48965926 512.55902072 264.1239047 512.56055693 260.75793493 512.55819297 C257.121104 512.55778358 253.48430454 512.56883557 249.8474884 512.57830811 C242.72811518 512.59489334 235.60877508 512.60041655 228.48938415 512.60153286 C222.69925433 512.6024846 216.90913539 512.60660115 211.11900902 512.61293411 C194.6862013 512.63054045 178.25341967 512.63977404 161.82060245 512.63827316 C160.93542941 512.63819325 160.05025636 512.63811334 159.13825989 512.63803101 C158.25200012 512.63794924 157.36574035 512.63786748 156.45262422 512.63778324 C142.09648153 512.63697071 127.74044384 512.65610164 113.3843315 512.68430774 C98.62717605 512.71307188 83.87007175 512.72684606 69.11288756 512.72512019 C60.83447851 512.72445746 52.55617952 512.72989801 44.27779579 512.75147629 C37.22811202 512.76973471 30.17858821 512.7739974 23.12889097 512.76045744 C19.53631515 512.75395092 15.94404576 512.75372581 12.35149956 512.77116394 C8.44583261 512.78992587 4.54060728 512.77727956 0.63491821 512.76190186 C-0.48515143 512.77218898 -1.60522107 512.78247611 -2.75923222 512.79307497 C-19.92247145 512.64449836 -34.99977963 505.06669649 -47.22575378 493.26742554 C-58.18486651 480.4973521 -63.29676281 466.90734155 -64.22575378 450.26742554 C-64.90041687 450.2883728 -65.57507996 450.30932007 -66.27018738 450.3309021 C-69.38021945 450.4149714 -72.49001138 450.46636998 -75.60075378 450.51742554 C-76.66165222 450.55094116 -77.72255066 450.58445679 -78.81559753 450.61898804 C-87.30829403 450.7231929 -94.637329 449.20645083 -101.53825378 444.01742554 C-107.89842371 437.50934469 -111.15235582 430.68974698 -111.25700378 421.53305054 C-110.75693801 412.48186008 -107.6692235 405.71089525 -101.22575378 399.26742554 C-88.75105653 390.99567288 -81.51436102 393.26742554 -64.22575378 393.26742554 C-64.22575378 375.77742554 -64.22575378 358.28742554 -64.22575378 340.26742554 C-71.48575378 340.26742554 -78.74575378 340.26742554 -86.22575378 340.26742554 C-96.16378205 337.28601706 -101.9477873 334.63358146 -107.70622253 326.06430054 C-111.28941747 318.87203922 -112.1656992 310.85132086 -110.16325378 303.07992554 C-107.01906848 294.18315009 -101.4038192 288.76925583 -93.22575378 284.26742554 C-84.04969799 281.20874027 -73.89816587 283.26742554 -64.22575378 283.26742554 C-64.22575378 265.44742554 -64.22575378 247.62742554 -64.22575378 229.26742554 C-72.80575378 229.26742554 -81.38575378 229.26742554 -90.22575378 229.26742554 C-99.49400273 224.63330106 -104.23554384 221.55012978 -109.10075378 212.95492554 C-112.20107532 202.7927605 -111.5055324 194.46256293 -106.53825378 185.07992554 C-100.1635163 177.32686644 -96.41623731 175.32457059 -86.22575378 172.26742554 C-78.96575378 172.26742554 -71.70575378 172.26742554 -64.22575378 172.26742554 C-64.22575378 154.77742554 -64.22575378 137.28742554 -64.22575378 119.26742554 C-72.14575378 119.26742554 -80.06575378 119.26742554 -88.22575378 119.26742554 C-98.47258234 115.16869411 -104.50750194 112.07642279 -109.22575378 102.26742554 C-111.8823199 95.09995756 -111.98747374 87.18521253 -109.40153503 79.96664429 C-108.45164179 77.97299483 -107.40933252 76.13038701 -106.22575378 74.26742554 C-105.68950378 73.40117554 -105.15325378 72.53492554 -104.60075378 71.64242554 C-99.47373499 66.51540674 -92.92081785 62.468014 -85.56852722 62.15390015 C-84.58400574 62.15913696 -83.59948425 62.16437378 -82.58512878 62.16976929 C-81.51520691 62.17299194 -80.44528503 62.1762146 -79.34294128 62.17953491 C-78.23176941 62.18791382 -77.12059753 62.19629272 -75.97575378 62.20492554 C-74.28579285 62.21169312 -74.28579285 62.21169312 -72.56169128 62.21859741 C-69.78299161 62.23037156 -67.00439969 62.24681714 -64.22575378 62.26742554 C-64.1393866 61.26324585 -64.05301941 60.25906616 -63.96403503 59.22445679 C-62.61550977 45.4270926 -58.92255081 34.2898829 -50.22575378 23.26742554 C-49.76555847 22.64351929 -49.30536316 22.01961304 -48.83122253 21.37680054 C-37.02265402 6.26727772 -18.47259702 -0.05057658 0 0 Z " fill="#FEF6E7" transform="translate(117.22575378417969,-0.267425537109375)"/>
<path d="M0 0 C1.8279678 -0.00679667 1.8279678 -0.00679667 3.69286424 -0.01373065 C7.05883318 -0.02416965 10.42458773 -0.02570586 13.7905575 -0.02334189 C17.42738843 -0.02293251 21.0641879 -0.0339845 24.70100403 -0.04345703 C31.82037725 -0.06004226 38.93971735 -0.06556547 46.05910828 -0.06668179 C51.8492381 -0.06763352 57.63935704 -0.07175008 63.42948341 -0.07808304 C79.86229113 -0.09568938 96.29507276 -0.10492296 112.72788998 -0.10342209 C113.61306302 -0.10334218 114.49823607 -0.10326227 115.41023254 -0.10317993 C116.29649231 -0.10309817 117.18275208 -0.10301641 118.09586821 -0.10293217 C132.45201091 -0.10211964 146.80804859 -0.12125057 161.16416093 -0.14945666 C175.92131638 -0.17822081 190.67842069 -0.19199499 205.43560487 -0.19026911 C213.71401392 -0.18960639 221.99231291 -0.19504694 230.27069664 -0.21662521 C237.32038041 -0.23488363 244.36990422 -0.23914632 251.41960146 -0.22560637 C255.01217728 -0.21909984 258.60444667 -0.21887474 262.19699287 -0.23631287 C266.10265982 -0.25507479 270.00788516 -0.24242849 273.91357422 -0.22705078 C275.03364386 -0.23733791 276.15371351 -0.24762503 277.30772465 -0.25822389 C294.63857085 -0.10819636 308.68377712 7.23927844 320.77424622 19.26742554 C321.40073059 19.85910522 322.02721497 20.45078491 322.67268372 21.06039429 C332.74050151 31.37876864 338.60826554 46.90400726 338.83674622 61.16976929 C338.81612122 62.19199585 338.79549622 63.21422241 338.77424622 64.26742554 C339.7784259 64.22101929 340.78260559 64.17461304 341.81721497 64.12680054 C353.41809849 63.75322243 364.68153428 64.69258986 373.93440247 72.51742554 C374.5415509 73.09492554 375.14869934 73.67242554 375.77424622 74.26742554 C376.47420715 74.92742554 377.17416809 75.58742554 377.89533997 76.26742554 C385.91502806 84.50783899 388.89056875 94.46589771 388.90567398 105.84481239 C388.90951513 106.93617772 388.91335627 108.02754304 388.91731381 109.15198004 C388.91644733 110.34029343 388.91558085 111.52860681 388.91468811 112.75292969 C388.91914479 114.65902183 388.91914479 114.65902183 388.92369151 116.60362089 C388.931739 120.12419253 388.93354983 123.64474375 388.93428898 127.1653235 C388.93614347 130.96507959 388.94369282 134.76482519 388.95042419 138.5645752 C388.96399226 146.8705444 388.97002992 155.17650876 388.97443485 163.4824872 C388.97719998 168.67173012 388.98143784 173.86097119 388.98593903 179.05021286 C388.99812994 193.42604518 389.00842945 207.80187602 389.01181412 222.17771339 C389.01203368 223.09737863 389.01225325 224.01704387 389.01247947 224.96457776 C389.01269775 225.88640742 389.01291602 226.80823708 389.01314092 227.75800097 C389.01358438 229.62588859 389.01403094 231.4937762 389.01448059 233.36166382 C389.01470202 234.28819489 389.01492345 235.21472597 389.01515159 236.16933374 C389.01909803 251.1761424 389.03654815 266.18290245 389.05984011 281.18969233 C389.08357677 296.60783136 389.09601703 312.02594601 389.09718204 327.4441036 C389.09809752 336.0964055 389.10381787 344.74864408 389.12200165 353.4009285 C389.13743392 360.76979662 389.14250471 368.13858184 389.13426355 375.50746305 C389.13036802 379.26389815 389.13123261 383.02016645 389.14532089 386.77658081 C389.16048686 390.85784631 389.15216087 394.93873918 389.14173889 399.02001953 C389.1538235 400.78241311 389.1538235 400.78241311 389.16615224 402.5804106 C389.0847715 416.25136149 385.87726405 427.84454753 376.52424622 438.07992554 C365.79161804 448.08131971 352.70305365 448.62869144 338.77424622 448.26742554 C338.74846497 449.05504272 338.72268372 449.84265991 338.69612122 450.65414429 C337.63433703 471.04522685 329.1709308 485.70864511 314.52033997 499.36898804 C302.76705006 509.19586395 289.48870663 512.57575625 274.54849243 512.53485107 C273.32984723 512.53938219 272.11120203 512.5439133 270.85562819 512.54858172 C267.48965926 512.55902072 264.1239047 512.56055693 260.75793493 512.55819297 C257.121104 512.55778358 253.48430454 512.56883557 249.8474884 512.57830811 C242.72811518 512.59489334 235.60877508 512.60041655 228.48938415 512.60153286 C222.69925433 512.6024846 216.90913539 512.60660115 211.11900902 512.61293411 C194.6862013 512.63054045 178.25341967 512.63977404 161.82060245 512.63827316 C160.93542941 512.63819325 160.05025636 512.63811334 159.13825989 512.63803101 C158.25200012 512.63794924 157.36574035 512.63786748 156.45262422 512.63778324 C142.09648153 512.63697071 127.74044384 512.65610164 113.3843315 512.68430774 C98.62717605 512.71307188 83.87007175 512.72684606 69.11288756 512.72512019 C60.83447851 512.72445746 52.55617952 512.72989801 44.27779579 512.75147629 C37.22811202 512.76973471 30.17858821 512.7739974 23.12889097 512.76045744 C19.53631515 512.75395092 15.94404576 512.75372581 12.35149956 512.77116394 C8.44583261 512.78992587 4.54060728 512.77727956 0.63491821 512.76190186 C-0.48515143 512.77218898 -1.60522107 512.78247611 -2.75923222 512.79307497 C-19.92247145 512.64449836 -34.99977963 505.06669649 -47.22575378 493.26742554 C-58.18486651 480.4973521 -63.29676281 466.90734155 -64.22575378 450.26742554 C-64.90041687 450.2883728 -65.57507996 450.30932007 -66.27018738 450.3309021 C-69.38021945 450.4149714 -72.49001138 450.46636998 -75.60075378 450.51742554 C-76.66165222 450.55094116 -77.72255066 450.58445679 -78.81559753 450.61898804 C-87.30829403 450.7231929 -94.637329 449.20645083 -101.53825378 444.01742554 C-107.89842371 437.50934469 -111.15235582 430.68974698 -111.25700378 421.53305054 C-110.75693801 412.48186008 -107.6692235 405.71089525 -101.22575378 399.26742554 C-88.75105653 390.99567288 -81.51436102 393.26742554 -64.22575378 393.26742554 C-64.22575378 375.77742554 -64.22575378 358.28742554 -64.22575378 340.26742554 C-71.48575378 340.26742554 -78.74575378 340.26742554 -86.22575378 340.26742554 C-96.16378205 337.28601706 -101.9477873 334.63358146 -107.70622253 326.06430054 C-111.28941747 318.87203922 -112.1656992 310.85132086 -110.16325378 303.07992554 C-107.01906848 294.18315009 -101.4038192 288.76925583 -93.22575378 284.26742554 C-84.04969799 281.20874027 -73.89816587 283.26742554 -64.22575378 283.26742554 C-64.22575378 265.44742554 -64.22575378 247.62742554 -64.22575378 229.26742554 C-72.80575378 229.26742554 -81.38575378 229.26742554 -90.22575378 229.26742554 C-99.49400273 224.63330106 -104.23554384 221.55012978 -109.10075378 212.95492554 C-112.20107532 202.7927605 -111.5055324 194.46256293 -106.53825378 185.07992554 C-100.1635163 177.32686644 -96.41623731 175.32457059 -86.22575378 172.26742554 C-78.96575378 172.26742554 -71.70575378 172.26742554 -64.22575378 172.26742554 C-64.22575378 154.77742554 -64.22575378 137.28742554 -64.22575378 119.26742554 C-72.14575378 119.26742554 -80.06575378 119.26742554 -88.22575378 119.26742554 C-98.47258234 115.16869411 -104.50750194 112.07642279 -109.22575378 102.26742554 C-111.8823199 95.09995756 -111.98747374 87.18521253 -109.40153503 79.96664429 C-108.45164179 77.97299483 -107.40933252 76.13038701 -106.22575378 74.26742554 C-105.68950378 73.40117554 -105.15325378 72.53492554 -104.60075378 71.64242554 C-99.47373499 66.51540674 -92.92081785 62.468014 -85.56852722 62.15390015 C-84.58400574 62.15913696 -83.59948425 62.16437378 -82.58512878 62.16976929 C-81.51520691 62.17299194 -80.44528503 62.1762146 -79.34294128 62.17953491 C-78.23176941 62.18791382 -77.12059753 62.19629272 -75.97575378 62.20492554 C-74.28579285 62.21169312 -74.28579285 62.21169312 -72.56169128 62.21859741 C-69.78299161 62.23037156 -67.00439969 62.24681714 -64.22575378 62.26742554 C-64.1393866 61.26324585 -64.05301941 60.25906616 -63.96403503 59.22445679 C-62.61550977 45.4270926 -58.92255081 34.2898829 -50.22575378 23.26742554 C-49.76555847 22.64351929 -49.30536316 22.01961304 -48.83122253 21.37680054 C-37.02265402 6.26727772 -18.47259702 -0.05057658 0 0 Z M-37.83122253 32.28305054 C-44.7336315 41.2781819 -48.55365052 50.8908343 -48.22575378 62.26742554 C-47.61167664 62.28200806 -46.99759949 62.29659058 -46.36491394 62.31161499 C-43.52629393 62.38704499 -40.6887312 62.4833833 -37.85075378 62.57992554 C-36.40249207 62.61376343 -36.40249207 62.61376343 -34.92497253 62.64828491 C-26.02259566 62.97689614 -18.01154374 64.11780339 -11.22575378 70.26742554 C-10.56575378 70.26742554 -9.90575378 70.26742554 -9.22575378 70.26742554 C-8.94989441 70.83461304 -8.67403503 71.40180054 -8.38981628 71.98617554 C-7.62161326 73.49164724 -6.80394235 74.97300103 -5.93669128 76.42367554 C-2.14522395 83.07537261 -1.13508697 88.67278228 -2.22575378 96.26742554 C-4.16114784 103.33112262 -7.11253331 108.74719944 -12.85075378 113.39242554 C-24.47334374 119.84941996 -34.66294514 118.65093424 -48.22575378 119.26742554 C-48.22575378 137.08742554 -48.22575378 154.90742554 -48.22575378 173.26742554 C-39.64575378 173.59742554 -31.06575378 173.92742554 -22.22575378 174.26742554 C-13.16872072 178.79594207 -6.91992352 182.18129878 -3.28825378 191.57992554 C-0.74144345 200.99345235 -1.79879557 208.13609533 -6.52653503 216.66586304 C-10.91064701 223.37808965 -15.56316976 224.86183264 -23.22575378 228.26742554 C-35.60075378 228.76242554 -35.60075378 228.76242554 -48.22575378 229.26742554 C-48.22575378 247.08742554 -48.22575378 264.90742554 -48.22575378 283.26742554 C-40.30575378 283.59742554 -32.38575378 283.92742554 -24.22575378 284.26742554 C-14.78015803 287.08453304 -9.98045154 290.03321039 -4.98356628 298.32992554 C-1.2146561 305.60782107 -1.13149992 313.12321307 -3.28825378 320.95492554 C-6.91992352 330.3535523 -13.16872072 333.738909 -22.22575378 338.26742554 C-30.80575378 338.59742554 -39.38575378 338.92742554 -48.22575378 339.26742554 C-48.22575378 357.08742554 -48.22575378 374.90742554 -48.22575378 393.26742554 C-40.63575378 393.59742554 -33.04575378 393.92742554 -25.22575378 394.26742554 C-14.68463324 397.15131701 -9.93878447 400.53761779 -4.46012878 409.92758179 C-1.17744362 416.15014005 -1.19079666 423.45550426 -3.01481628 430.17367554 C-4.61076711 434.31583799 -6.07241764 437.15023078 -9.22575378 440.26742554 C-9.22575378 440.92742554 -9.22575378 441.58742554 -9.22575378 442.26742554 C-12.03100224 443.68917646 -14.85815577 445.03852438 -17.72575378 446.32992554 C-18.47856628 446.6715271 -19.23137878 447.01312866 -20.00700378 447.36508179 C-23.83405897 448.9215074 -27.30709488 449.41608477 -31.42887878 449.58383179 C-32.40856628 449.62572632 -33.38825378 449.66762085 -34.39762878 449.71078491 C-35.41341003 449.75010132 -36.42919128 449.78941772 -37.47575378 449.82992554 C-38.50700378 449.87310913 -39.53825378 449.91629272 -40.60075378 449.96078491 C-43.14229248 450.06668236 -45.68392575 450.16875997 -48.22575378 450.26742554 C-48.67495755 460.85774468 -45.0128569 471.34880731 -38.03825378 479.34555054 C-37.14106628 480.29687866 -37.14106628 480.29687866 -36.22575378 481.26742554 C-35.39044128 482.21875366 -35.39044128 482.21875366 -34.53825378 483.18930054 C-30.32300956 487.75581511 -25.80063568 490.60035809 -20.22575378 493.26742554 C-19.49541931 493.62779907 -18.76508484 493.98817261 -18.01261902 494.35946655 C-9.01030098 498.2233215 -0.13462721 497.71796089 9.46174622 497.51742554 C11.14596964 497.49731928 12.83021639 497.47907584 14.51448059 497.46273804 C18.60165479 497.41909277 22.68768692 497.35029781 26.77424622 497.26742554 C26.77522302 496.4454525 26.77619983 495.62347947 26.77720624 494.77659816 C26.83542932 446.10160485 26.90918886 397.42665635 27.0032325 348.75171838 C27.01450118 342.91230913 27.02563955 337.07289964 27.03669739 331.23348999 C27.03890107 330.07092778 27.04110475 328.90836556 27.04337522 327.71057419 C27.07878496 308.86591651 27.10362831 290.02125887 27.12459324 271.17658021 C27.14632604 251.85219695 27.17935235 232.52785702 27.22294778 213.20351058 C27.24950803 201.2713479 27.26717115 189.33923924 27.27359226 177.40704844 C27.2788328 169.23395775 27.29500462 161.06093514 27.31991187 152.88788088 C27.3339728 148.16657976 27.34308066 143.44540061 27.33925438 138.72407722 C27.33586146 134.4067787 27.3461081 130.08974139 27.36748173 125.77249644 C27.3727803 124.20584058 27.3729527 122.6391578 27.36764184 121.07250198 C27.36118227 118.95192684 27.37294531 116.83222793 27.38948536 114.71172619 C27.39138396 113.53117568 27.39328256 112.35062518 27.3952387 111.13430041 C27.77424622 108.26742554 27.77424622 108.26742554 29.07954377 106.38028175 C31.87551855 104.54425566 34.53210979 105.03584436 37.77424622 105.26742554 C39.25924622 105.76242554 39.25924622 105.76242554 40.77424622 106.26742554 C41.10424622 235.29742554 41.43424622 364.32742554 41.77424622 497.26742554 C81.33299622 497.32930054 120.89174622 497.39117554 161.64924622 497.45492554 C174.14010071 497.48223755 186.6309552 497.50954956 199.50032043 497.53768921 C210.69686766 497.5477225 210.69686766 497.5477225 221.89341736 497.55375671 C226.88051863 497.55655168 231.8675241 497.56779433 236.854599 497.58415222 C243.21899679 497.60475082 249.58325554 497.610895 255.94768357 497.60664237 C258.28149705 497.60753144 260.61531546 497.61346764 262.94910026 497.62507093 C266.10704451 497.64004051 269.26445191 497.63637827 272.42240906 497.62818909 C273.33073549 497.63692708 274.23906193 497.64566507 275.17491341 497.65466785 C287.6807128 497.56778324 299.93256916 492.52652785 309.15315247 484.01351929 C318.50298642 473.94273428 322.87909098 462.29865441 322.95002747 448.70492554 C322.97321524 447.00439218 322.99733214 445.30387129 323.02229309 443.60336304 C323.05746333 440.93042513 323.08679365 438.25795002 323.10017395 435.58480835 C323.11563761 432.99928455 323.15581918 430.41509664 323.20002747 427.82992554 C323.19811905 427.03191528 323.19621063 426.23390503 323.19424438 425.41171265 C323.27295779 421.84343593 323.48901378 419.66831355 325.58357239 416.72445679 C327.77424622 415.26742554 327.77424622 415.26742554 331.39924622 415.39242554 C334.77424622 416.26742554 334.77424622 416.26742554 336.77424622 418.26742554 C337.07484564 420.63251914 337.26939633 423.01184435 337.39924622 425.39242554 C337.47401184 426.67375366 337.54877747 427.95508179 337.62580872 429.27523804 C337.67479309 430.26265991 337.72377747 431.25008179 337.77424622 432.26742554 C340.60863759 432.37644059 343.43874825 432.45520458 346.27424622 432.51742554 C347.06573059 432.55094116 347.85721497 432.58445679 348.67268372 432.61898804 C355.68013041 432.73386421 360.69080378 430.9211199 366.01643372 426.33773804 C366.8246759 425.37480835 366.8246759 425.37480835 367.64924622 424.39242554 C368.20354309 423.75562866 368.75783997 423.11883179 369.32893372 422.46273804 C372.23505836 418.04857034 373.0248879 413.65923686 373.001297 408.44564819 C373.00114594 407.32493927 373.00099487 406.20423035 373.00083923 405.04956055 C372.99051666 403.85559662 372.98019409 402.66163269 372.96955872 401.43148804 C372.96672882 400.19699921 372.96389893 398.96251038 372.96098328 397.69061279 C372.94981144 393.75778404 372.92471186 389.82518516 372.89924622 385.89242554 C372.88808447 383.22185595 372.8800874 380.55128852 372.87190247 377.88070679 C372.84988187 371.34286828 372.81643381 364.80516334 372.77424622 358.26742554 C371.89558899 358.69039917 371.01693176 359.1133728 370.11164856 359.54916382 C362.36631715 363.10219251 356.03857116 365.16761307 347.39924622 365.14242554 C345.99158997 365.17336304 345.99158997 365.17336304 344.55549622 365.20492554 C342.29415906 365.25107528 340.03594677 365.271958 337.77424622 365.26742554 C337.76022766 366.19808838 337.76022766 366.19808838 337.7459259 367.14755249 C337.69223627 369.95915231 337.60858976 372.76908534 337.52424622 375.57992554 C337.51006653 376.55639038 337.49588684 377.53285522 337.48127747 378.53890991 C337.43293762 379.94559937 337.43293762 379.94559937 337.38362122 381.38070679 C337.35220032 382.67681885 337.35220032 382.67681885 337.32014465 383.99911499 C336.77424622 386.26742554 336.77424622 386.26742554 334.96272278 388.08065796 C331.64675944 389.87883933 329.33437963 389.19042309 325.77424622 388.26742554 C323.51156696 384.87340666 323.5247818 383.72738671 323.52649975 379.74962807 C323.52211775 378.59518468 323.51773575 377.44074128 323.51322097 376.25131476 C323.5185663 374.97712601 323.52391163 373.70293725 323.52941895 372.39013672 C323.52799718 371.02737766 323.52568513 369.66461928 323.5225566 368.30186307 C323.51644033 364.54837895 323.52271164 360.79500019 323.53086722 357.04152369 C323.53744329 352.99629606 323.53245038 348.9510821 323.52864075 344.90585327 C323.52341175 337.89140522 323.52491804 330.87698477 323.53041649 323.86253738 C323.53862491 312.76907338 323.52740534 301.67566902 323.51321411 290.58221436 C323.50861262 286.78668418 323.50416229 282.99115383 323.49977589 279.1956234 C323.49812867 277.772653 323.49812867 277.772653 323.49644819 276.32093573 C323.48426871 265.51713128 323.47672105 254.71332491 323.47077942 243.90951538 C323.47023136 242.92173782 323.4696833 241.93396025 323.46911863 240.91625004 C323.46066858 224.92703107 323.46399246 208.93782896 323.46993377 192.9486099 C323.475557 176.52820511 323.46198637 160.107885 323.43238097 143.68750608 C323.41486207 133.56311953 323.41318073 123.43897809 323.43202613 113.31459276 C323.4436581 106.36834415 323.43714138 99.42226041 323.41655692 92.47603317 C323.40526907 88.47232708 323.40198757 84.46904633 323.4207325 80.46535873 C323.43777053 76.7920513 323.4313888 73.1195196 323.40723393 69.44625895 C323.40034354 67.5044838 323.41783124 65.56266797 323.43650168 63.62097037 C323.28953265 49.40576417 317.84779521 37.21841591 307.71565247 27.24008179 C297.38542522 18.57785454 286.20302263 15.10558607 273.02368164 15.14717102 C271.54106928 15.14588938 271.54106928 15.14588938 270.02850515 15.14458185 C266.71350918 15.14293354 263.3985637 15.14843786 260.08357239 15.15390015 C257.70848085 15.15418218 255.33338922 15.15402396 252.95829773 15.15345764 C247.17639126 15.15320015 241.39450136 15.1575382 235.61259868 15.1638953 C228.88415493 15.17104569 222.15571353 15.17254063 215.42726652 15.17368347 C203.42842096 15.17587146 191.42958222 15.1825247 179.43074036 15.19198608 C167.77579279 15.20116674 156.12084706 15.20824438 144.46589661 15.2124939 C143.74734429 15.21275662 143.02879197 15.21301934 142.28846534 15.21329003 C138.68365735 15.21459508 135.07884935 15.21585878 131.47404134 15.21710193 C101.57410487 15.22746667 71.67417634 15.24515251 41.77424622 15.26742554 C41.76544685 16.38495964 41.76544685 16.38495964 41.75646973 17.52507019 C41.69858182 24.54395343 41.62652808 31.56251451 41.5385313 38.58107471 C41.49379071 42.18947431 41.45454317 45.79776005 41.42781067 49.40634155 C41.40181381 52.88842139 41.36143827 56.37006393 41.31105995 59.8518734 C41.28623857 61.82767753 41.27633682 63.80365074 41.26660156 65.77958679 C41.2468074 66.98060532 41.22701324 68.18162384 41.20661926 69.41903687 C41.1955162 70.47826859 41.18441315 71.53750031 41.17297363 72.62882996 C40.77424622 75.26742554 40.77424622 75.26742554 39.38858032 77.11463928 C37.20129728 78.67656492 35.74395854 78.57045651 33.08674622 78.45492554 C31.87438293 78.41432007 31.87438293 78.41432007 30.63752747 78.37289429 C30.02264465 78.3380896 29.40776184 78.30328491 28.77424622 78.26742554 C27.78043142 74.93588766 27.62081472 71.86657706 27.56892395 68.39730835 C27.53900612 66.62592499 27.53900612 66.62592499 27.50848389 64.8187561 C27.49177139 63.54884827 27.4750589 62.27894043 27.45783997 60.97055054 C27.43705887 59.66664368 27.41627777 58.36273682 27.39486694 57.01931763 C27.33979385 53.56046746 27.29031982 50.10155913 27.24201965 46.64260864 C27.19169649 43.10994316 27.136067 39.57736165 27.08088684 36.04476929 C26.973486 29.11906091 26.87200125 22.1932766 26.77424622 15.26742554 C21.90373198 15.14205589 17.03419478 15.05227199 12.16242981 14.99276733 C10.51187239 14.96791437 8.86142152 14.93401891 7.21125793 14.89022827 C-10.70632423 14.42731202 -25.63058169 18.16176908 -37.83122253 32.28305054 Z " fill="#010101" transform="translate(117.22575378417969,-0.267425537109375)"/>
<path d="M0 0 C0.78915298 0.0028299 1.57830597 0.00565979 2.39137268 0.00857544 C4.88737797 0.01968193 7.38301123 0.04476795 9.87890625 0.0703125 C11.58137499 0.08035465 13.28384941 0.08947833 14.98632812 0.09765625 C19.13816201 0.1195899 23.28972127 0.15405273 27.44140625 0.1953125 C27.45686745 1.29072357 27.45686745 1.29072357 27.47264099 2.40826416 C27.57066512 9.29424973 27.67318656 16.18015528 27.78074551 23.06599808 C27.8358828 26.60597943 27.88928786 30.14596918 27.9387207 33.68603516 C27.9956421 37.75692563 28.06012182 41.827666 28.125 45.8984375 C28.14171249 47.16834534 28.15842499 48.43825317 28.17564392 49.74664307 C28.20556175 51.51802643 28.20556175 51.51802643 28.23608398 53.32519531 C28.25940041 54.88406464 28.25940041 54.88406464 28.28318787 56.47442627 C28.42234214 58.86746647 28.75871732 60.90675325 29.44140625 63.1953125 C32.08140625 63.5253125 34.72140625 63.8553125 37.44140625 64.1953125 C36.45140625 64.6903125 36.45140625 64.6903125 35.44140625 65.1953125 C35.44140625 73.1153125 35.44140625 81.0353125 35.44140625 89.1953125 C33.79140625 89.8553125 32.14140625 90.5153125 30.44140625 91.1953125 C27.66235988 93.97435887 28.18720919 95.62079071 28.17969322 99.51656532 C28.17569716 100.17565037 28.1717011 100.83473543 28.16758394 101.51379275 C28.15653003 103.74385805 28.15982203 105.97367849 28.16293335 108.20376587 C28.15793499 109.8100422 28.15206056 111.41631601 28.14538062 113.02258623 C28.12951089 117.4532925 28.12614612 121.88393549 28.12473202 126.31466675 C28.12105007 131.08633752 28.10590072 135.85797307 28.09211731 140.62962341 C28.06980259 148.90240742 28.05481469 157.17517897 28.04475021 165.4479866 C28.03018802 177.40919349 28.0046582 189.37035699 27.97641893 201.33153848 C27.93090609 220.73598815 27.8943099 240.14044404 27.86328125 259.54492188 C27.83311407 278.39877416 27.79877226 297.25261118 27.75878906 316.10644531 C27.75632751 317.26786115 27.75386597 318.42927698 27.75132982 319.62588723 C27.73895558 325.45214983 27.72649898 331.27841224 27.71400142 337.10467458 C27.6103664 385.46819926 27.52118538 433.83174298 27.44140625 482.1953125 C22.57089201 482.32068214 17.70135481 482.41046605 12.82958984 482.4699707 C11.17903242 482.49482367 9.52858155 482.52871912 7.87841797 482.57250977 C-7.32321504 482.96525712 -19.94502945 480.97436919 -31.55859375 470.1953125 C-32.19410156 469.62683594 -32.82960938 469.05835938 -33.484375 468.47265625 C-41.32989533 461.09753115 -45.29113979 452.72187249 -47.55859375 442.1953125 C-47.62163379 439.8628309 -47.63799289 437.52729454 -47.55859375 435.1953125 C-46.94975342 435.1859668 -46.34091309 435.17662109 -45.71362305 435.16699219 C-28.13402673 435.36961343 -28.13402673 435.36961343 -12.41015625 428.5625 C-10.55859375 427.1953125 -10.55859375 427.1953125 -8.55859375 427.1953125 C-8.27113281 426.61910156 -7.98367187 426.04289062 -7.6875 425.44921875 C-6.97035702 424.01741425 -6.24943368 422.58749214 -5.5234375 421.16015625 C-5.18441406 420.49113281 -4.84539062 419.82210938 -4.49609375 419.1328125 C-4.15449219 418.46121094 -3.81289062 417.78960937 -3.4609375 417.09765625 C-0.55314921 410.96738398 -0.36986019 403.77631068 -2.5 397.359375 C-4.82303021 392.50941225 -7.41479263 388.70160575 -11.55859375 385.1953125 C-12.13609375 384.6590625 -12.71359375 384.1228125 -13.30859375 383.5703125 C-24.08672868 376.98367449 -34.90755248 378.74535777 -47.55859375 378.1953125 C-47.55859375 360.3753125 -47.55859375 342.5553125 -47.55859375 324.1953125 C-38.97859375 323.8653125 -30.39859375 323.5353125 -21.55859375 323.1953125 C-12.50156069 318.66679597 -6.25276348 315.28143926 -2.62109375 305.8828125 C-0.07474996 296.47101013 -1.12708817 289.32202254 -5.86328125 280.796875 C-10.50572282 273.6727596 -15.1763773 272.54819908 -23.55859375 269.1953125 C-31.47859375 268.8653125 -39.39859375 268.5353125 -47.55859375 268.1953125 C-47.55859375 250.3753125 -47.55859375 232.5553125 -47.55859375 214.1953125 C-35.18359375 213.7003125 -35.18359375 213.7003125 -22.55859375 213.1953125 C-14.04134608 210.15872855 -8.96687339 207.0838129 -4.55859375 199.1953125 C-3.93984375 198.1021875 -3.32109375 197.0090625 -2.68359375 195.8828125 C-0.26661741 187.96050116 -0.75037421 179.60773982 -4.55859375 172.1953125 C-9.09849104 165.22152582 -13.79555117 163.07683379 -21.55859375 159.1953125 C-30.13859375 158.8653125 -38.71859375 158.5353125 -47.55859375 158.1953125 C-47.55859375 140.3753125 -47.55859375 122.5553125 -47.55859375 104.1953125 C-40.29859375 103.8653125 -33.03859375 103.5353125 -25.55859375 103.1953125 C-16.77471735 100.94104333 -10.94973732 98.99665308 -5.87109375 91.3203125 C-1.6782507 84.1212801 -0.50489868 77.49968158 -1.55859375 69.1953125 C-2.87292564 65.61876623 -4.60798032 62.45815679 -6.55859375 59.1953125 C-6.86023438 58.48375 -7.161875 57.7721875 -7.47265625 57.0390625 C-8.85767813 54.68751456 -10.05529684 54.21567809 -12.55859375 53.1953125 C-13.29078125 52.85371094 -14.02296875 52.51210937 -14.77734375 52.16015625 C-15.53015625 51.82113281 -16.28296875 51.48210937 -17.05859375 51.1328125 C-17.81140625 50.79121094 -18.56421875 50.44960937 -19.33984375 50.09765625 C-23.16689894 48.54123064 -26.63993485 48.04665327 -30.76171875 47.87890625 C-32.23125 47.81606445 -32.23125 47.81606445 -33.73046875 47.75195312 C-35.25414063 47.69297852 -35.25414063 47.69297852 -36.80859375 47.6328125 C-37.83984375 47.58962891 -38.87109375 47.54644531 -39.93359375 47.50195312 C-42.47513245 47.39605568 -45.01676571 47.29397807 -47.55859375 47.1953125 C-47.97138587 34.06852307 -42.68271193 24.12523571 -34.18359375 14.5078125 C-23.78948563 5.3510982 -14.2110768 -0.19524766 0 0 Z " fill="#58A0A4" transform="translate(116.55859375,14.8046875)"/>
<path d="M0 0 C17.26066579 -0.47847841 32.01195888 0.88248346 45.3828125 13.26171875 C55.82331475 24.48399774 59.77421592 37.02562861 59.61231995 52.14039612 C59.61577572 53.51820579 59.62143823 54.89601136 59.62908787 56.27380413 C59.64370186 60.02228081 59.62765067 63.77006925 59.60623491 67.51848948 C59.58862979 71.57497073 59.60019135 75.63138462 59.60824585 79.68788147 C59.61841672 86.70442105 59.61090444 93.7207584 59.59158516 100.73727608 C59.56401794 110.88612981 59.56794967 121.03478911 59.58017098 131.1836642 C59.59953232 147.65802642 59.5996436 164.13232428 59.5847168 180.60668945 C59.58383066 181.5911728 59.58294453 182.57565614 59.58203154 183.58997231 C59.57839706 187.57965674 59.57467965 191.56934109 59.57086498 195.55902535 C59.56038624 206.56156573 59.55215124 217.56410695 59.5456543 228.56665039 C59.54477194 230.04565866 59.54477194 230.04565866 59.54387177 231.55454589 C59.53460031 247.98085209 59.54105022 264.40711985 59.55796474 280.83341926 C59.56756251 290.96156127 59.56237594 301.08949708 59.53819703 311.21761589 C59.52247752 318.14778169 59.52060139 325.07785937 59.52973027 332.00803674 C59.53446896 336.00863128 59.53248168 340.00894219 59.51309395 344.0094986 C59.49545031 347.66886651 59.49602222 351.32775499 59.51127302 354.98712944 C59.51456374 356.94304585 59.49799861 358.89896424 59.48081213 360.85480791 C59.48917623 362.01124235 59.49754032 363.16767679 59.50615788 364.3591547 C59.50496639 365.35912607 59.50377491 366.35909744 59.50254732 367.38937098 C60.1438667 370.75501167 61.27974121 371.96864965 64 374 C69.05692899 373.85718492 69.05692899 373.85718492 73 371 C73.37004294 368.77341846 73.37004294 368.77341846 73.4140625 366.2109375 C73.45273437 365.26992188 73.49140625 364.32890625 73.53125 363.359375 C73.5621875 362.37453125 73.593125 361.3896875 73.625 360.375 C73.66367187 359.38242187 73.70234375 358.38984375 73.7421875 357.3671875 C73.8366314 354.91164615 73.92219875 352.4561159 74 350 C74.58378418 349.9906543 75.16756836 349.98130859 75.76904297 349.97167969 C90.92117899 349.95144352 90.92117899 349.95144352 105 345 C106.33151472 344.32970845 107.66463207 343.66258186 109 343 C109.10178459 350.81035171 109.17162714 358.62053106 109.21972656 366.43139648 C109.23752053 369.08633686 109.2670388 371.74040532 109.30175781 374.39526367 C109.35051626 378.22065084 109.37302497 382.0454515 109.390625 385.87109375 C109.41127014 387.04957382 109.43191528 388.22805389 109.45318604 389.44224548 C109.4553704 397.54337265 108.34765765 404.01342558 103.03515625 410.33984375 C102.38417969 410.86707031 101.73320312 411.39429688 101.0625 411.9375 C100.41410156 412.48277344 99.76570313 413.02804687 99.09765625 413.58984375 C93.68281459 417.2299887 89.01616729 417.25487005 82.6875 417.125 C81.85154297 417.11597656 81.01558594 417.10695313 80.15429688 417.09765625 C78.10274031 417.07420989 76.05133223 417.03834266 74 417 C73.97421875 416.02417969 73.9484375 415.04835938 73.921875 414.04296875 C73.83679688 412.13451172 73.83679688 412.13451172 73.75 410.1875 C73.70359375 408.92292969 73.6571875 407.65835937 73.609375 406.35546875 C73.3075177 402.97790169 73.3075177 402.97790169 71.1796875 401.04296875 C67.85430318 399.45179023 65.49062791 400.09502239 62 401 C59.48375161 404.77437258 59.72093988 407.77818526 59.7265625 412.1484375 C59.70624115 413.81120425 59.68538986 415.4739646 59.6640625 417.13671875 C59.6416599 419.74077739 59.62506925 422.34458057 59.61914062 424.94873047 C59.56249563 439.72457732 58.31438585 451.87082722 49 464 C48.4225 464.86625 47.845 465.7325 47.25 466.625 C39.74003989 474.55218011 27.96293049 481.69395363 16.82641602 482.07421875 C14.27922183 482.09837947 11.73467579 482.08719298 9.1875 482.0625 C8.30384766 482.05798828 7.42019531 482.05347656 6.50976562 482.04882812 C4.33981441 482.03709866 2.16989828 482.01916495 0 482 C1.08667969 481.14921875 1.08667969 481.14921875 2.1953125 480.28125 C15.00505291 469.86218538 23.61839434 457.49188332 26 441 C26.09048113 438.68689141 26.13078426 436.37153949 26.13422108 434.05666447 C26.13657331 433.37888587 26.13892554 432.70110728 26.14134905 432.00278994 C26.14800252 429.73313133 26.14758193 427.46353044 26.14717102 425.19386292 C26.15047193 423.54945395 26.15419797 421.90504579 26.1583125 420.26063865 C26.1683149 415.7425232 26.17204646 411.22442104 26.17470181 406.70629609 C26.1786101 401.83285276 26.18818809 396.95941991 26.19691467 392.08598328 C26.2166645 380.31671272 26.22674353 368.54744132 26.23564246 356.77815834 C26.24002789 351.23277554 26.24539405 345.68739369 26.25063133 340.14201164 C26.26764232 321.70261744 26.28213578 303.26322382 26.28938007 284.82382298 C26.2912899 280.04018211 26.29321024 275.25654124 26.29516602 270.47290039 C26.29564976 269.28398215 26.2961335 268.0950639 26.2966319 266.87011784 C26.30492957 247.61682068 26.33026267 228.3635857 26.36274669 209.11031569 C26.39584107 189.33370504 26.413831 169.55712596 26.41702431 149.78048748 C26.41918723 138.68059523 26.42790392 127.58079365 26.45348549 116.48092842 C26.47522498 107.02643043 26.48322692 97.57204514 26.47351871 88.11752499 C26.46898341 83.29742764 26.47081532 78.47756267 26.49028015 73.65749741 C26.50797986 69.2361595 26.5068593 64.81522233 26.49138286 60.39387976 C26.48901707 58.80294993 26.49327632 57.21199184 26.50521151 55.62110502 C26.63173989 37.62644186 22.91307179 21.79029639 9.875 8.5 C6.71881002 5.47489778 3.44188267 2.69471241 0 0 Z " fill="#FEF0D5" transform="translate(381,15)"/>
<path d="M0 0 C10.09906175 7.7520967 16.83919646 15.95160861 22.4375 27.3125 C23.12392578 28.69501953 23.12392578 28.69501953 23.82421875 30.10546875 C29.32321985 43.47672405 28.00276964 60.58417273 22.9140625 73.8984375 C18.90990032 83.15673843 13.39449073 90.04630968 6.4375 97.3125 C9.66200112 99.98324064 12.89712789 102.25022927 16.5 104.375 C36.56517573 117.0306634 49.17980471 136.85229891 56.6875 159 C58.24154069 165.8636797 58.58530056 172.67993101 58.75 179.6875 C58.79471436 180.74118774 58.79471436 180.74118774 58.84033203 181.81616211 C58.87746198 185.08399227 58.89577887 186.82691941 56.6015625 189.2578125 C53.58216425 190.72936038 51.7584619 190.85469786 48.4375 190.3125 C45.0431108 187.6607892 43.58212242 186.23553133 42.90625 181.921875 C42.9165625 180.64828125 42.926875 179.3746875 42.9375 178.0625 C42.47233116 157.74855301 32.84631722 139.78614005 18.6875 125.546875 C8.96950901 116.93800254 -2.6036329 111.50436027 -14.7421875 107.1015625 C-16.5625 106.3125 -16.5625 106.3125 -18.5625 104.3125 C-19.10213415 98.73628049 -19.10213415 98.73628049 -18.5625 96.3125 C-16.02074508 93.23594144 -13.30833696 91.47868425 -9.8125 89.625 C0.19257556 83.74572879 5.83429519 74.88379286 9.546875 64.0859375 C12.47676331 51.67246336 11.32591907 38.74692255 4.9296875 27.7109375 C-2.60648276 16.10874049 -11.63553413 10.62148862 -24.5625 6.3125 C-39.15306782 4.9581881 -51.98703131 6.03462226 -63.69140625 15.59765625 C-71.30962772 22.57970056 -78.7497236 31.62299436 -79.75537109 42.37451172 C-80.26918074 57.47428742 -79.57151649 69.34818742 -69.375 81.390625 C-64.57960073 86.47540182 -59.24330636 90.32879284 -53.3828125 94.11328125 C-51.5625 95.3125 -51.5625 95.3125 -50.5625 96.3125 C-49.97273069 102.56405466 -49.97273069 102.56405466 -52.203125 105.39453125 C-54.92418257 107.60651679 -57.31252957 108.55248583 -60.625 109.6875 C-82.5004373 117.7533037 -96.75049464 132.28672612 -106.84765625 152.94140625 C-111.08495215 162.72102074 -112.81205246 173.28830291 -113.15625 183.88671875 C-113.63500708 186.74545092 -114.24733569 187.61650754 -116.5625 189.3125 C-119.9375 190.3125 -119.9375 190.3125 -123.5625 190.3125 C-126.5 188.625 -126.5 188.625 -128.5625 185.3125 C-131.868908 167.67832398 -122.60670039 145.66331785 -113.08886719 131.24047852 C-104.3914292 118.58653767 -93.44243499 108.64217904 -80.25 100.94140625 C-77.52972378 99.43851727 -77.52972378 99.43851727 -75.5625 97.3125 C-76.0471875 96.89742188 -76.531875 96.48234375 -77.03125 96.0546875 C-88.09683516 85.88286114 -95.0898911 71.63967971 -95.97265625 56.65234375 C-96.57112069 39.65568591 -93.71653323 27.27714795 -83.5625 13.3125 C-83.10230469 12.66796875 -82.64210937 12.0234375 -82.16796875 11.359375 C-62.80709315 -13.41361856 -25.22342878 -17.60749045 0 0 Z " fill="#040404" transform="translate(330.5625,108.6875)"/>
<path d="M0 0 C22.54761905 0 22.54761905 0 30.45703125 7.890625 C34.26211071 13.09250579 35.37587873 17.81506235 35.40405273 24.18530273 C35.41091599 24.86597809 35.41777924 25.54665344 35.42485046 26.24795532 C35.44300919 28.47671944 35.43929699 30.70477223 35.43359375 32.93359375 C35.43816085 34.49626389 35.44346799 36.05893203 35.44947815 37.62159729 C35.45838779 40.88884669 35.45601082 44.15585138 35.44604492 47.4230957 C35.43455824 51.59367748 35.45477232 55.76341215 35.48396206 59.93388271 C35.50237801 63.15885207 35.50202093 66.38362044 35.49632454 69.60862923 C35.49617198 71.14550019 35.50216185 72.68238535 35.51461601 74.21920586 C35.58274203 84.00303853 35.12288589 90.78576196 28.875 98.6875 C19.22637414 106.44835123 13.5884013 106 0 106 C0 71.02 0 36.04 0 0 Z " fill="#FB9B5C" transform="translate(455,80)"/>
<path d="M0 0 C1.08507631 -0.00596161 1.08507631 -0.00596161 2.19207335 -0.01204365 C4.61657063 -0.02166992 7.04048488 -0.0098469 9.46496582 0.00190735 C11.20288816 -0.00052051 12.94080911 -0.00423978 14.6787262 -0.00915527 C19.39975617 -0.01856868 24.12057898 -0.00913505 28.84159279 0.00417686 C33.77916118 0.01548438 38.71671926 0.01138439 43.65429688 0.00942993 C51.94652699 0.00854674 60.23867538 0.01963271 68.53088379 0.03804016 C78.12166198 0.05920816 87.71232045 0.06271781 97.30311728 0.0564782 C106.52420224 0.05078596 115.74524498 0.05642856 124.96632385 0.06765175 C128.89287597 0.07229959 132.81940229 0.07317078 136.74595642 0.0710659 C141.36868133 0.06918397 145.99128417 0.07727962 150.61398125 0.0931263 C152.31193474 0.09737329 154.00990061 0.09821692 155.70785713 0.0954361 C158.0229019 0.09221952 160.33758075 0.1012827 162.65258789 0.11352539 C163.94896431 0.11557826 165.24534073 0.11763113 166.58100128 0.11974621 C169.62681328 0.35857977 171.33269605 0.6614445 173.82629395 2.3742218 C175.3721627 5.46595932 175.11988916 7.96851733 174.82629395 11.3742218 C173.25749207 13.56903839 173.25749207 13.56903839 170.82629395 15.3742218 C167.56538391 15.87758636 167.56538391 15.87758636 163.61462402 15.88215637 C162.88715627 15.88839633 162.15968851 15.8946363 161.41017628 15.90106535 C158.97172988 15.91702461 156.53427907 15.90438038 154.0958252 15.89179993 C152.34804704 15.89721977 150.60027346 15.90434165 148.85250854 15.91304016 C144.10458068 15.93129291 139.35700004 15.92419796 134.60906601 15.91152382 C129.64346115 15.90140625 124.67788628 15.91078604 119.71228027 15.91706848 C111.37295181 15.92434851 103.03376498 15.91474785 94.69445801 15.89570618 C85.04906648 15.87393676 75.40401313 15.88098788 65.7586298 15.9030118 C57.48166792 15.92115566 49.20480794 15.92372909 40.9278326 15.91325712 C35.98244113 15.90701661 31.03720869 15.90620187 26.09182739 15.91940308 C21.44272635 15.93094621 16.7940619 15.92296408 12.14500809 15.89982605 C10.4373815 15.89453072 8.72971825 15.89606681 7.02210617 15.90487671 C4.69356042 15.91578377 2.36641971 15.90212905 0.03796387 15.88215637 C-1.91766228 15.87989422 -1.91766228 15.87989422 -3.91279602 15.87758636 C-7.70869709 15.29163886 -8.88885582 14.39973328 -11.17370605 11.3742218 C-11.94615573 8.41505798 -11.57150748 6.50690802 -11.17370605 3.3742218 C-7.88694499 -0.20284754 -4.67045185 -0.00060432 0 0 Z " fill="#000000" transform="translate(214.1737060546875,348.6257781982422)"/>
<path d="M0 0 C0.10178459 7.81035171 0.17162714 15.62053106 0.21972656 23.43139648 C0.23752053 26.08633686 0.2670388 28.74040532 0.30175781 31.39526367 C0.35051626 35.22065084 0.37302497 39.0454515 0.390625 42.87109375 C0.41127014 44.04957382 0.43191528 45.22805389 0.45318604 46.44224548 C0.4553704 54.54337265 -0.65234235 61.01342558 -5.96484375 67.33984375 C-6.61582031 67.86707031 -7.26679688 68.39429688 -7.9375 68.9375 C-8.58589844 69.48277344 -9.23429687 70.02804687 -9.90234375 70.58984375 C-15.31718541 74.2299887 -19.98383271 74.25487005 -26.3125 74.125 C-27.56643555 74.11146484 -27.56643555 74.11146484 -28.84570312 74.09765625 C-30.89725969 74.07420989 -32.94866777 74.03834266 -35 74 C-35.00257813 73.03578125 -35.00515625 72.0715625 -35.0078125 71.078125 C-35.04648437 69.81484375 -35.08515625 68.5515625 -35.125 67.25 C-35.14820313 65.99703125 -35.17140625 64.7440625 -35.1953125 63.453125 C-35.46085937 62.31359375 -35.72640625 61.1740625 -36 60 C-36.99257813 59.43796875 -37.98515625 58.8759375 -39.0078125 58.296875 C-42 56 -42 56 -42.58837891 53.51269531 C-42.80916256 50.322449 -42.81785981 47.19695085 -42.75 44 C-42.77320313 42.906875 -42.79640625 41.81375 -42.8203125 40.6875 C-42.79804193 37.65870251 -42.70123041 34.94807741 -42 32 C-40.0257394 30.62884251 -38.02552341 29.29423054 -36 28 C-35.07292264 24.43693267 -35.11523726 20.91590751 -35.125 17.25 C-35.104375 16.26644531 -35.08375 15.28289062 -35.0625 14.26953125 C-35.0154316 11.84550842 -34.99555508 9.42438611 -35 7 C-34.41621582 6.9906543 -33.83243164 6.98130859 -33.23095703 6.97167969 C-22.01775451 6.74586593 -9.36369566 0 0 0 Z " fill="#FCD58D" transform="translate(490,358)"/>
<path d="M0 0 C0.11647085 7.38937559 0.20500427 14.77854939 0.25906086 22.16866112 C0.28502161 25.60121742 0.32016534 29.03314022 0.37719727 32.46533203 C0.44252573 36.42212013 0.46629239 40.37866259 0.48828125 44.3359375 C0.51408768 45.55300385 0.5398941 46.77007019 0.56648254 48.02401733 C0.56898172 55.70342196 -0.4872026 61.64512181 -5 68 C-13.87691719 76.64736345 -22.32574918 76 -35 76 C-35 53.23 -35 30.46 -35 7 C-25.1 6.505 -25.1 6.505 -15 6 C-12.41979801 5.23822608 -2.73389417 0 0 0 Z " fill="#579DA1" transform="translate(490,193)"/>
<path d="M0 0 C0.09303702 7.29359622 0.16393443 14.58706267 0.20724869 21.88113403 C0.22804671 25.26878958 0.25621887 28.65603656 0.30175781 32.04345703 C0.35044693 35.94574646 0.37300929 39.84746152 0.390625 43.75 C0.41127014 44.95551514 0.43191528 46.16103027 0.45318604 47.40307617 C0.4553279 55.48905837 -0.52126839 60.87083328 -5.859375 67.20703125 C-15.67865524 75.54530435 -20.84723042 75 -35 75 C-35 52.56 -35 30.12 -35 7 C-27.74 6.67 -20.48 6.34 -13 6 C-11.44918386 5.3505129 -2.68663908 0 0 0 Z " fill="#F9758F" transform="translate(490,276)"/>
<path d="M0 0 C1.92814796 -0.00574036 1.92814796 -0.00574036 3.89524841 -0.01159668 C6.60606278 -0.01746911 9.31634722 -0.00900172 12.02709961 0.00976562 C15.48951321 0.03257816 18.95068792 0.01940535 22.41305637 -0.00452423 C25.73380186 -0.02250755 29.05421939 -0.00989378 32.375 0 C34.23143883 -0.01214539 34.23143883 -0.01214539 36.12538147 -0.02453613 C42.56930854 0.04561649 46.74909819 0.1302678 51.62109375 4.53125 C52.21921875 5.046875 52.81734375 5.5625 53.43359375 6.09375 C56.24254966 9.49406505 55.97538743 13.35058452 55.62109375 17.53125 C53.29766801 22.08873896 50.4281623 25.61136927 45.62109375 27.53125 C41.19461142 28.12762419 36.8008146 28.09161123 32.33984375 28.0625 C31.05299683 28.0663269 29.7661499 28.07015381 28.44030762 28.07409668 C25.72351761 28.07997549 23.00725568 28.07148231 20.29052734 28.05273438 C16.82023836 28.02994436 13.35118695 28.04307635 9.8809433 28.06702423 C6.55464608 28.08501143 3.22867605 28.07239205 -0.09765625 28.0625 C-1.33841919 28.07059692 -2.57918213 28.07869385 -3.85754395 28.08703613 C-10.3082516 28.01700486 -14.50295138 27.94004752 -19.37890625 23.53125 C-19.97703125 23.015625 -20.57515625 22.5 -21.19140625 21.96875 C-23.73956902 18.88413191 -23.66353957 15.37532182 -23.5859375 11.5234375 C-23.2673174 8.45747053 -22.38735279 6.86363953 -20.37890625 4.53125 C-13.93503753 -0.34500798 -7.87583858 -0.05161054 0 0 Z " fill="#B4E7DF" transform="translate(45.37890625,407.46875)"/>
<path d="M0 0 C1.16155609 -0.0127597 2.32311218 -0.02551941 3.51986694 -0.03866577 C4.77095245 -0.04089142 6.02203796 -0.04311707 7.31103516 -0.04541016 C8.60071198 -0.05206696 9.89038879 -0.05872375 11.21914673 -0.06558228 C13.94772692 -0.07754389 16.67618061 -0.08126429 19.40478516 -0.08007812 C22.89073455 -0.07987505 26.37586766 -0.10716906 29.86162376 -0.14162254 C33.19893925 -0.16929136 36.53610653 -0.1680421 39.87353516 -0.17041016 C41.1205722 -0.18478119 42.36760925 -0.19915222 43.6524353 -0.21395874 C54.43146151 -0.15716587 54.43146151 -0.15716587 59.22509766 4.29052734 C61.97884388 7.55154261 63.11997108 9.55464133 63.72509766 13.79052734 C62.97208376 19.06162465 60.759815 21.87351741 56.90454102 25.43310547 C51.88817479 28.64193742 45.71133549 27.85928 39.97900391 27.82177734 C38.69452866 27.82560425 37.41005341 27.82943115 36.08665466 27.83337402 C33.37406055 27.83925349 30.66199524 27.83075894 27.94946289 27.81201172 C24.48823875 27.78924452 21.02825702 27.80233881 17.56707859 27.82630157 C14.2459567 27.84431132 10.92516099 27.83166488 7.60400391 27.82177734 C6.36840225 27.82987427 5.1328006 27.83797119 3.85975647 27.84631348 C-2.87583665 27.77318463 -7.36020494 27.44874154 -12.77490234 23.29052734 C-15.43174351 19.51952698 -16.43294369 15.9728715 -16.26318359 11.31787109 C-15.19969337 6.90225967 -11.82332717 3.54876308 -8.02938843 1.21835327 C-5.22979042 0.06618842 -3.02670586 0.02259649 0 0 Z " fill="#B4E7DF" transform="translate(37.77490234375,76.70947265625)"/>
<path d="M0 0 C1.76741043 -0.01902626 1.76741043 -0.01902626 3.57052612 -0.03843689 C4.83518707 -0.03550125 6.09984802 -0.03256561 7.40283203 -0.02954102 C9.3649614 -0.03740379 9.3649614 -0.03740379 11.36672974 -0.04542542 C14.13228009 -0.05434408 16.89754151 -0.05194886 19.66308594 -0.04199219 C23.19266879 -0.030518 26.72124883 -0.05069469 30.2507 -0.07990932 C33.63479557 -0.10276198 37.01866131 -0.09580037 40.40283203 -0.09204102 C42.29375076 -0.10889198 42.29375076 -0.10889198 44.22286987 -0.12608337 C51.03317094 -0.072151 55.5477309 0.22303866 61.03564453 4.40405273 C63.97941052 7.82261969 64.57465099 10.89616985 64.38720703 15.41186523 C63.62390719 19.73723098 61.24383589 22.52611585 57.77635193 25.04577637 C54.5750348 26.63232786 52.43344603 26.79600846 48.87182617 26.82397461 C47.65028336 26.83988647 46.42874054 26.85579834 45.17018127 26.87219238 C43.85863571 26.8723938 42.54709015 26.87259521 41.19580078 26.87280273 C39.82726227 26.87990981 38.45872672 26.8876096 37.0901947 26.89587402 C34.22630524 26.90929723 31.36269135 26.91089741 28.4987793 26.9050293 C24.83891192 26.89913366 21.18037136 26.92972622 17.52076054 26.97014618 C14.69560189 26.99606688 11.87076096 26.99889679 9.0454998 26.99525452 C7.0436105 26.99775857 5.04178831 27.02242356 3.04005432 27.04748535 C-7.08060507 26.97058703 -7.08060507 26.97058703 -10.75170898 24.01538086 C-13.92852943 20.26615086 -14.8087439 17.83049214 -15.33935547 12.96655273 C-14.88592664 8.65897887 -13.7371883 6.70147556 -10.96435547 3.40405273 C-7.21560249 0.68687282 -4.60045829 0.02404639 0 0 Z " fill="#B3E6DE" transform="translate(36.96435546875,297.595947265625)"/>
<path d="M0 0 C1.22176941 -0.01283524 2.44353882 -0.02567047 3.70233154 -0.03889465 C5.04276118 -0.04706329 6.3831954 -0.05450679 7.72363281 -0.0612793 C8.39832863 -0.06535482 9.07302444 -0.06943035 9.76816559 -0.07362938 C13.34120884 -0.09449245 16.91421369 -0.1087915 20.48730469 -0.11816406 C24.1705452 -0.12921237 27.85317887 -0.1635922 31.53620529 -0.20333576 C34.37417693 -0.22953961 37.21200502 -0.23785931 40.05008698 -0.24144554 C42.06527826 -0.24865989 44.08037128 -0.27508576 46.09539795 -0.30183411 C57.47394295 -0.27486611 57.47394295 -0.27486611 62.17675781 4.17700195 C64.52801485 7.07688563 65.13260622 8.83640392 65.61425781 12.55200195 C65.1049944 16.77161305 64.0944236 20.02529881 61.17675781 23.17700195 C56.98702494 25.60908584 53.91271072 26.55582946 49.08300781 26.58105469 C47.90158203 26.59373886 46.72015625 26.60642303 45.50292969 26.61949158 C44.24029297 26.61655594 42.97765625 26.6136203 41.67675781 26.6105957 C39.71319336 26.61845848 39.71319336 26.61845848 37.70996094 26.6264801 C34.94619062 26.63538829 32.18270962 26.63301401 29.41894531 26.62304688 C25.88817303 26.6115503 22.35839989 26.63178908 18.82775879 26.66096401 C15.44403969 26.68378376 12.06055192 26.67685738 8.67675781 26.6730957 C7.41412109 26.68432968 6.15148437 26.69556366 4.85058594 26.70713806 C-6.10496569 26.62014699 -6.10496569 26.62014699 -10.82324219 22.17700195 C-13.41948034 18.369186 -14.47151833 14.86324265 -14.31933594 10.20825195 C-13.38446641 6.38043971 -10.70037077 3.7485288 -7.82324219 1.17700195 C-5.13038704 -0.16942562 -3.01519863 0.02751196 0 0 Z " fill="#B3E6DE" transform="translate(35.8232421875,187.822998046875)"/>
<path d="M0 0 C1.68616928 -0.01292336 1.68616928 -0.01292336 3.40640259 -0.02610779 C7.12142981 -0.04880692 10.83570519 -0.04202149 14.55078125 -0.03295898 C17.13240789 -0.03819254 19.7140326 -0.04446804 22.2956543 -0.05174255 C27.70599373 -0.06215395 33.11604586 -0.05790326 38.52636719 -0.04296875 C44.77560776 -0.02604134 51.02415013 -0.04189237 57.27331448 -0.07419163 C63.29245817 -0.1041203 69.31124665 -0.10607004 75.33047485 -0.09669304 C77.88856922 -0.09587208 80.44667797 -0.10276286 83.00473022 -0.11746407 C86.57919422 -0.13485768 90.15215921 -0.12040836 93.7265625 -0.09765625 C94.78541656 -0.10934845 95.84427063 -0.12104065 96.93521118 -0.13308716 C101.7288065 -0.07091781 104.09128056 -0.03931868 108.02807617 2.88148499 C110.2689564 6.11966796 110.5205095 7.67223129 109.86328125 11.53344727 C108.63804626 13.68571568 108.63804626 13.68571568 106.86328125 15.53344727 C104.62843323 16.03401852 104.62843323 16.03401852 101.96704102 16.03465271 C100.95755402 16.04448685 99.94806702 16.05432098 98.9079895 16.06445312 C97.80139984 16.05478516 96.69481018 16.04511719 95.5546875 16.03515625 C93.805616 16.04326073 93.805616 16.04326073 92.02120972 16.05152893 C88.15581096 16.06406543 84.29114986 16.04749149 80.42578125 16.02954102 C77.74681582 16.02969589 75.06787717 16.0311288 72.38891602 16.03395081 C66.76993142 16.03665363 61.15116035 16.02317138 55.53222656 16 C49.03433869 15.9733896 42.53680785 15.97164277 36.03888416 15.98338836 C29.79018901 15.99416468 23.54162312 15.9879803 17.29293823 15.97383308 C14.63272478 15.96930712 11.97250081 15.96899172 9.31228638 15.97289848 C5.59859466 15.97579905 1.88549237 15.95935801 -1.828125 15.9375 C-2.93471466 15.94200165 -4.04130432 15.9465033 -5.181427 15.95114136 C-6.6956575 15.93628441 -6.6956575 15.93628441 -8.24047852 15.92112732 C-9.11873795 15.91869742 -9.99699738 15.91626753 -10.90187073 15.913764 C-13.65003112 15.44609399 -14.53022215 14.79111072 -16.13671875 12.53344727 C-16.84451852 6.9595241 -16.84451852 6.9595241 -16.13671875 4.53344727 C-11.56444054 -0.66664003 -6.43031654 -0.03963102 0 0 Z " fill="#080707" transform="translate(249.13671875,397.466552734375)"/>
<path d="M0 0 C7.58889362 -0.09286979 15.17772797 -0.16385075 22.76706123 -0.20724869 C26.29152694 -0.22808269 29.81560253 -0.25632202 33.33984375 -0.30175781 C37.39587043 -0.35371956 41.45149029 -0.37297967 45.5078125 -0.390625 C46.76739777 -0.41127014 48.02698303 -0.43191528 49.32473755 -0.45318604 C60.12112468 -0.45594851 60.12112468 -0.45594851 65 4 C65.598125 4.515625 66.19625 5.03125 66.8125 5.5625 C69.62145591 8.96281505 69.35429368 12.81933452 69 17 C66.68012 21.55053384 63.81664069 25.10922418 59 27 C54.49946385 27.55360914 50.03616707 27.46484667 45.5078125 27.390625 C44.20673553 27.38496521 42.90565857 27.37930542 41.56515503 27.37347412 C38.12240319 27.35827244 34.68033682 27.31903993 31.237854 27.2746582 C27.71855947 27.23358604 24.19915312 27.21543779 20.6796875 27.1953125 C13.78617848 27.15253873 6.89312224 27.08435522 0 27 C0 26.67 0 26.34 0 26 C10.89 26 21.78 26 33 26 C34.46519633 20.87181285 35.27646116 17.95850422 35.25 12.9375 C35.25515625 11.95652344 35.2603125 10.97554688 35.265625 9.96484375 C35.0628258 6.42077314 35.0628258 6.42077314 33 1 C22.11 1 11.22 1 0 1 C0 0.67 0 0.34 0 0 Z " fill="#90CFC6" transform="translate(32,408)"/>
<path d="M0 0 C7.58889362 -0.09286979 15.17772797 -0.16385075 22.76706123 -0.20724869 C26.29152694 -0.22808269 29.81560253 -0.25632202 33.33984375 -0.30175781 C37.39587043 -0.35371956 41.45149029 -0.37297967 45.5078125 -0.390625 C46.76739777 -0.41127014 48.02698303 -0.43191528 49.32473755 -0.45318604 C60.2254519 -0.4559752 60.2254519 -0.4559752 65 4 C67.75374623 7.26101527 68.89487343 9.26411399 69.5 13.5 C68.74724393 18.76929248 66.52786086 21.57408284 62.69482422 25.15136719 C57.62050887 28.39808281 51.29320407 27.48545004 45.5078125 27.390625 C44.20673553 27.38496521 42.90565857 27.37930542 41.56515503 27.37347412 C38.12240319 27.35827244 34.68033682 27.31903993 31.237854 27.2746582 C27.71855947 27.23358604 24.19915312 27.21543779 20.6796875 27.1953125 C13.78617848 27.15253873 6.89312224 27.08435522 0 27 C0 26.67 0 26.34 0 26 C10.89 26 21.78 26 33 26 C34.46519633 20.87181285 35.27646116 17.95850422 35.25 12.9375 C35.25515625 11.95652344 35.2603125 10.97554687 35.265625 9.96484375 C35.0628258 6.42077314 35.0628258 6.42077314 33 1 C22.11 1 11.22 1 0 1 C0 0.67 0 0.34 0 0 Z " fill="#90CFC6" transform="translate(32,77)"/>
<path d="M0 0 C4.35393904 -0.11673963 8.70747211 -0.18743418 13.0625 -0.25 C14.29162109 -0.28351563 15.52074219 -0.31703125 16.78710938 -0.3515625 C23.75486662 -0.42668657 28.40336032 -0.32467612 34 4 C36.94376599 7.41856695 37.53900646 10.49211711 37.3515625 15.0078125 C36.58991353 19.32382331 34.20706131 22.10754861 30.76879883 24.6496582 C27.41220867 26.28666553 25.1099864 26.34397242 21.38671875 26.29296875 C20.13955078 26.28330078 18.89238281 26.27363281 17.60742188 26.26367188 C16.31384766 26.23853516 15.02027344 26.21339844 13.6875 26.1875 C11.71813477 26.16719727 11.71813477 26.16719727 9.70898438 26.14648438 C6.47223923 26.11117443 3.23632895 26.0618528 0 26 C0.48678223 25.08089844 0.97356445 24.16179687 1.47509766 23.21484375 C3.21826517 19.53984698 3.40161971 17.04619595 3.375 13 C3.38273437 11.824375 3.39046875 10.64875 3.3984375 9.4375 C2.96558575 5.70309278 1.86524232 3.2370343 0 0 Z " fill="#96D9CF" transform="translate(64,298)"/>
<path d="M0 0 C4.54144994 -0.11647041 9.08251394 -0.18734502 13.625 -0.25 C15.55279297 -0.30027344 15.55279297 -0.30027344 17.51953125 -0.3515625 C29.33716293 -0.474025 29.33716293 -0.474025 34 4 C36.35125704 6.89988368 36.9558484 8.65940197 37.4375 12.375 C36.92823659 16.5946111 35.91766579 19.84829685 33 23 C28.65262855 25.55823049 25.53156435 26.36473663 20.5078125 26.29296875 C19.30898437 26.28330078 18.11015625 26.27363281 16.875 26.26367188 C15.6375 26.23853516 14.4 26.21339844 13.125 26.1875 C11.86429688 26.17396484 10.60359375 26.16042969 9.3046875 26.14648438 C6.20268546 26.11123435 3.10156466 26.06195504 0 26 C0.48726563 24.98035156 0.97453125 23.96070313 1.4765625 22.91015625 C3.00039679 19.34287633 3.40321949 16.34589938 3.375 12.4375 C3.38273437 11.36371094 3.39046875 10.28992188 3.3984375 9.18359375 C2.9482007 5.58611344 1.67774619 3.18582954 0 0 Z " fill="#96D9CF" transform="translate(64,188)"/>
</svg>
