<?xml version="1.0" encoding="UTF-8"?>
<svg version="1.1" xmlns="http://www.w3.org/2000/svg" width="512" height="512">
<path d="M0 0 C6.56698223 3.80023726 12.33671148 8.88903889 18.17089844 13.70556641 C21.0686304 16.07147404 24.02862099 18.35271713 27 20.625 C28.46759766 21.75035156 28.46759766 21.75035156 29.96484375 22.8984375 C30.98707031 23.67445312 32.00929688 24.45046875 33.0625 25.25 C33.62569757 25.75086089 34.18889515 26.25172178 34.76915932 26.76776028 C40.11046735 31.29238431 44.01346175 32.10048645 50.89990234 31.94360352 C51.85061111 31.94620178 52.80131989 31.94880005 53.78083801 31.95147705 C55.83295201 31.95318465 57.8851147 31.9411623 59.9370842 31.91674995 C63.19227086 31.8783897 66.44569665 31.87686446 69.70108032 31.88450623 C76.61349783 31.89381377 83.52523742 31.85497793 90.4375 31.8125 C98.4448981 31.76769052 106.45169464 31.74287853 114.45921707 31.75706291 C117.65352262 31.75396199 120.84653132 31.72030684 124.0406189 31.68495178 C143.93004994 31.60473144 143.93004994 31.60473144 151.93807983 38.97657776 C159.03079296 46.17828483 159.4372596 54.57520962 159.40238953 64.13391113 C159.38707446 65.68302734 159.37142656 67.23214028 159.35546875 68.78125 C159.34986562 70.38406983 159.34559891 71.98689485 159.34260559 73.58972168 C159.33121315 77.78522204 159.30179505 81.98040523 159.26849365 86.17578125 C159.23767121 90.4661022 159.22407437 94.75647497 159.20898438 99.046875 C159.17691924 107.44806136 159.12579173 115.8489911 159.0625 124.25 C159.66884277 124.54100586 160.27518555 124.83201172 160.89990234 125.13183594 C163.76896037 126.61527303 166.14072849 128.51259691 168.6875 130.5 C169.24671143 130.93473633 169.80592285 131.36947266 170.38208008 131.81738281 C171.61508411 132.77651591 172.8468797 133.73720398 174.07763672 134.69921875 C176.14393357 136.31362436 178.21408237 137.92297804 180.28515625 139.53125 C184.1029101 142.49657773 187.91780355 145.46556012 191.73193359 148.43554688 C196.25247084 151.95499301 200.7751305 155.47171197 205.2980957 158.98803711 C209.12568544 161.96412469 212.95127476 164.94272611 216.7734375 167.92578125 C218.32803898 169.13813114 219.88272532 170.35037223 221.4375 171.5625 C222.18386719 172.14491455 222.93023437 172.7273291 223.69921875 173.32739258 C229.0244829 177.47208918 234.41537319 181.5146565 239.875 185.48046875 C242.49564897 187.60038658 243.94863191 189.19219833 244.31665033 192.61098325 C244.31860125 193.55187791 244.32055218 194.49277257 244.32256222 195.46217918 C244.32962781 196.54840486 244.3366934 197.63463053 244.3439731 198.75377214 C244.34155802 199.95170794 244.33914293 201.14964373 244.33665466 202.38388062 C244.34189134 203.65290084 244.34712802 204.92192107 244.35252339 206.22939646 C244.36673405 209.75887592 244.3683661 213.28826746 244.36792648 216.81777143 C244.36957198 220.62154947 244.38263342 224.42529099 244.39411926 228.22904968 C244.41698841 236.5491898 244.4248918 244.86930444 244.42994571 253.18947172 C244.43320024 258.38249944 244.4397212 263.57551973 244.4469471 268.76854324 C244.46651484 283.14083557 244.48291826 297.51312097 244.48582363 311.88542747 C244.4860112 312.8054914 244.48619877 313.72555533 244.48639202 314.67349998 C244.48675828 316.5387663 244.48712198 318.40403263 244.48748314 320.26929896 C244.48766595 321.19524475 244.48784876 322.12119055 244.48803711 323.07519531 C244.48830793 324.46580502 244.48830793 324.46580502 244.48858423 325.88450785 C244.49212722 340.91244433 244.51915663 355.94023763 244.556535 370.96812443 C244.59458589 386.38953048 244.61398087 401.81086542 244.61428314 417.23231947 C244.61486841 425.89398905 244.62340496 434.5554878 244.65228081 443.21711349 C244.67675165 450.59142276 244.68410677 457.96549892 244.66903328 465.33983777 C244.66184682 469.1035939 244.66279559 472.86688931 244.68544388 476.63059425 C244.70974597 480.70812164 244.69544723 484.7845934 244.67723083 488.8621521 C244.6904308 490.05562645 244.70363077 491.24910081 244.71723074 492.47874105 C244.63547879 500.45356529 244.63547879 500.45356529 241.73501682 504.48517799 C238.4425805 506.65936976 235.96409311 506.84638692 232.0625 507.25 C230.47348274 507.99242193 230.47348274 507.99242193 228.85236412 508.74984229 C224.8773742 510.51116812 221.0991873 510.66822323 216.79967403 510.62752342 C215.9914172 510.63188374 215.18316037 510.63624407 214.35041091 510.64073652 C211.64285465 510.65168226 208.93580874 510.64127397 206.22825623 510.63095093 C204.26720817 510.63440775 202.30616206 510.63917248 200.34512001 510.64513266 C194.95671876 510.65766878 189.56847668 510.65146035 184.18007481 510.64217401 C178.36883848 510.63539463 172.55762979 510.6458592 166.74639893 510.65411377 C155.36263723 510.6674649 143.97893482 510.66456728 132.59517079 510.65587585 C123.34528796 510.64910548 114.09542178 510.64817978 104.84553719 510.6514473 C102.87211345 510.65213684 102.87211345 510.65213684 100.85882257 510.65284032 C98.85631331 510.65355413 96.85380406 510.65427777 94.85129481 510.655021 C69.82712732 510.66419804 44.80299218 510.65587735 19.77882968 510.63973031 C-2.45662762 510.62549182 -24.69203338 510.62676876 -46.92749023 510.64111328 C-71.90733743 510.65717439 -96.88715604 510.66354888 -121.86700767 510.65427649 C-124.52945609 510.65331433 -127.19190452 510.65237771 -129.85435295 510.6514473 C-131.16439614 510.65098447 -132.47443933 510.65052164 -133.8241808 510.65004479 C-143.06579861 510.64745212 -152.30739816 510.65183184 -161.54901314 510.65888596 C-172.80727707 510.66729034 -184.06547823 510.6650431 -195.32373495 510.64904372 C-201.07024319 510.64114698 -206.8166467 510.63809336 -212.56315422 510.64799118 C-217.82031386 510.65690937 -223.07727135 510.65205273 -228.33441257 510.63605852 C-230.23940985 510.63269853 -232.1444241 510.634432 -234.04941053 510.64168589 C-236.63335691 510.65077283 -239.21660555 510.64148801 -241.80051517 510.62752342 C-242.91696678 510.63805867 -242.91696678 510.63805867 -244.05597296 510.64880675 C-248.77205091 510.59766289 -251.86724199 509.57912284 -255.9375 507.25 C-258.2524419 506.69249406 -260.53367336 506.32622266 -262.88671875 505.97265625 C-265.67046748 504.99171622 -266.41028648 503.75377888 -267.9375 501.25 C-268.31584883 498.76481825 -268.31584883 498.76481825 -268.32061005 495.91477299 C-268.32966669 494.82655626 -268.33872333 493.73833954 -268.34805441 492.61714655 C-268.34006252 490.82461212 -268.34006252 490.82461212 -268.33190918 488.99586487 C-268.33800028 487.72599021 -268.34409139 486.45611556 -268.35036707 485.14775985 C-268.36679867 481.62049485 -268.36444221 478.09345288 -268.3589921 474.56616294 C-268.35632586 470.76307472 -268.370846 466.9600465 -268.38308716 463.15698242 C-268.40416024 455.70551862 -268.40868095 448.2541326 -268.40689927 440.80264253 C-268.40559265 434.74727857 -268.4093907 428.6919389 -268.41682434 422.63657951 C-268.41892349 420.89363589 -268.42102109 419.15069227 -268.42311716 417.40774864 C-268.42416069 416.54029197 -268.42520422 415.6728353 -268.42627937 414.77909207 C-268.44518914 398.36663739 -268.44412921 381.9542274 -268.43731004 365.54176634 C-268.4317334 350.52035413 -268.45256382 335.49911241 -268.48567051 320.47774006 C-268.51938579 305.06081538 -268.53457859 289.64397243 -268.52995348 274.22701019 C-268.52770667 265.56871753 -268.53298273 256.91058246 -268.55784607 248.25232124 C-268.57883127 240.8816858 -268.58247896 233.51129439 -268.56354648 226.14064903 C-268.55437146 222.37891837 -268.55329881 218.61764302 -268.57390213 214.85594749 C-268.59597657 210.78064764 -268.57943794 206.70642656 -268.55895996 202.63111877 C-268.57147781 201.43832654 -268.58399566 200.24553431 -268.59689283 199.01659685 C-268.50061976 190.12087414 -268.50061976 190.12087414 -265.50730133 187.0705862 C-264.65926689 186.46979276 -263.81123245 185.86899931 -262.9375 185.25 C-262.36386719 184.75153564 -261.79023438 184.25307129 -261.19921875 183.73950195 C-260.67972656 183.32659912 -260.16023438 182.91369629 -259.625 182.48828125 C-258.73494263 181.77792725 -258.73494263 181.77792725 -257.8269043 181.05322266 C-257.20340088 180.56128418 -256.57989746 180.0693457 -255.9375 179.5625 C-255.27596924 179.0370459 -254.61443848 178.5115918 -253.93286133 177.97021484 C-248.80331699 173.90663762 -243.62686301 169.90629646 -238.4296875 165.9296875 C-234.3531363 162.8078764 -230.30157684 159.6541168 -226.25 156.5 C-225.11195923 155.61405151 -225.11195923 155.61405151 -223.95092773 154.71020508 C-222.39578346 153.49941301 -220.84068951 152.28855631 -219.28564453 151.07763672 C-216.95052017 149.26013402 -214.6141529 147.44424212 -212.27734375 145.62890625 C-211.51574951 145.03706543 -210.75415527 144.44522461 -209.96948242 143.83544922 C-208.46092109 142.66339697 -206.95197575 141.49183877 -205.44262695 140.32080078 C-201.86673741 137.54311146 -198.30328649 134.7520469 -194.765625 131.92578125 C-193.79351074 131.1517395 -193.79351074 131.1517395 -192.80175781 130.36206055 C-191.58944055 129.39503272 -190.38026864 128.42404393 -189.17480469 127.44848633 C-185.15982584 124.25 -185.15982584 124.25 -182.9375 124.25 C-182.94638245 123.36796402 -182.95526489 122.48592804 -182.9644165 121.5771637 C-183.04480064 113.23596735 -183.10558502 104.89490243 -183.14474869 96.55340672 C-183.16556058 92.26566001 -183.19375992 87.97823528 -183.23925781 83.69067383 C-183.2829457 79.54741724 -183.30668515 75.40446896 -183.31700897 71.26099968 C-183.32435943 69.68584279 -183.33871267 68.11070142 -183.36042023 66.53567696 C-183.49704542 56.20512305 -182.56596033 48.79940992 -176.8125 40 C-168.16193943 31.72555076 -159.571882 31.69281308 -148.17211914 31.89015198 C-147.15699249 31.91454409 -146.14186584 31.9389362 -145.09597778 31.96406746 C-141.88059678 32.03643699 -138.66703313 32.06894064 -135.45092773 32.08995056 C-126.31386399 32.15319993 -117.17861534 32.25871565 -108.04345703 32.45874023 C-102.43574161 32.57868778 -96.83086509 32.62840729 -91.22192383 32.6357708 C-89.10404955 32.65180014 -86.98618688 32.69332835 -84.86938477 32.76259041 C-70.20726422 33.23186754 -61.72100315 30.75300475 -50.74780273 20.79393005 C-50.11127777 20.19507429 -49.47475281 19.59621853 -48.81893921 18.97921562 C-46.00610501 16.39396237 -42.9895221 14.10518613 -39.9375 11.8125 C-38.40609375 10.63880859 -38.40609375 10.63880859 -36.84375 9.44140625 C-25.64603024 0.99796433 -14.47198266 -6.53181768 0 0 Z " fill="#FEEA39" transform="translate(267.9375,1.75)"/>
<path d="M0 0 C6.56698223 3.80023726 12.33671148 8.88903889 18.17089844 13.70556641 C21.0686304 16.07147404 24.02862099 18.35271713 27 20.625 C28.46759766 21.75035156 28.46759766 21.75035156 29.96484375 22.8984375 C30.98707031 23.67445312 32.00929688 24.45046875 33.0625 25.25 C33.62569757 25.75086089 34.18889515 26.25172178 34.76915932 26.76776028 C40.11046735 31.29238431 44.01346175 32.10048645 50.89990234 31.94360352 C51.85061111 31.94620178 52.80131989 31.94880005 53.78083801 31.95147705 C55.83295201 31.95318465 57.8851147 31.9411623 59.9370842 31.91674995 C63.19227086 31.8783897 66.44569665 31.87686446 69.70108032 31.88450623 C76.61349783 31.89381377 83.52523742 31.85497793 90.4375 31.8125 C98.4448981 31.76769052 106.45169464 31.74287853 114.45921707 31.75706291 C117.65352262 31.75396199 120.84653132 31.72030684 124.0406189 31.68495178 C143.93004994 31.60473144 143.93004994 31.60473144 151.93807983 38.97657776 C159.03079296 46.17828483 159.4372596 54.57520962 159.40238953 64.13391113 C159.38707446 65.68302734 159.37142656 67.23214028 159.35546875 68.78125 C159.34986562 70.38406983 159.34559891 71.98689485 159.34260559 73.58972168 C159.33121315 77.78522204 159.30179505 81.98040523 159.26849365 86.17578125 C159.23767121 90.4661022 159.22407437 94.75647497 159.20898438 99.046875 C159.17691924 107.44806136 159.12579173 115.8489911 159.0625 124.25 C159.66884277 124.54100586 160.27518555 124.83201172 160.89990234 125.13183594 C163.76896037 126.61527303 166.14072849 128.51259691 168.6875 130.5 C169.24671143 130.93473633 169.80592285 131.36947266 170.38208008 131.81738281 C171.61508411 132.77651591 172.8468797 133.73720398 174.07763672 134.69921875 C176.14393357 136.31362436 178.21408237 137.92297804 180.28515625 139.53125 C184.1029101 142.49657773 187.91780355 145.46556012 191.73193359 148.43554688 C196.25247084 151.95499301 200.7751305 155.47171197 205.2980957 158.98803711 C209.12568544 161.96412469 212.95127476 164.94272611 216.7734375 167.92578125 C218.32803898 169.13813114 219.88272532 170.35037223 221.4375 171.5625 C222.18386719 172.14491455 222.93023437 172.7273291 223.69921875 173.32739258 C229.0244829 177.47208918 234.41537319 181.5146565 239.875 185.48046875 C242.49564897 187.60038658 243.94863191 189.19219833 244.31665033 192.61098325 C244.31860125 193.55187791 244.32055218 194.49277257 244.32256222 195.46217918 C244.32962781 196.54840486 244.3366934 197.63463053 244.3439731 198.75377214 C244.34155802 199.95170794 244.33914293 201.14964373 244.33665466 202.38388062 C244.34189134 203.65290084 244.34712802 204.92192107 244.35252339 206.22939646 C244.36673405 209.75887592 244.3683661 213.28826746 244.36792648 216.81777143 C244.36957198 220.62154947 244.38263342 224.42529099 244.39411926 228.22904968 C244.41698841 236.5491898 244.4248918 244.86930444 244.42994571 253.18947172 C244.43320024 258.38249944 244.4397212 263.57551973 244.4469471 268.76854324 C244.46651484 283.14083557 244.48291826 297.51312097 244.48582363 311.88542747 C244.4860112 312.8054914 244.48619877 313.72555533 244.48639202 314.67349998 C244.48675828 316.5387663 244.48712198 318.40403263 244.48748314 320.26929896 C244.48766595 321.19524475 244.48784876 322.12119055 244.48803711 323.07519531 C244.48830793 324.46580502 244.48830793 324.46580502 244.48858423 325.88450785 C244.49212722 340.91244433 244.51915663 355.94023763 244.556535 370.96812443 C244.59458589 386.38953048 244.61398087 401.81086542 244.61428314 417.23231947 C244.61486841 425.89398905 244.62340496 434.5554878 244.65228081 443.21711349 C244.67675165 450.59142276 244.68410677 457.96549892 244.66903328 465.33983777 C244.66184682 469.1035939 244.66279559 472.86688931 244.68544388 476.63059425 C244.70974597 480.70812164 244.69544723 484.7845934 244.67723083 488.8621521 C244.6904308 490.05562645 244.70363077 491.24910081 244.71723074 492.47874105 C244.63547879 500.45356529 244.63547879 500.45356529 241.73501682 504.48517799 C238.4425805 506.65936976 235.96409311 506.84638692 232.0625 507.25 C230.47348274 507.99242193 230.47348274 507.99242193 228.85236412 508.74984229 C224.8773742 510.51116812 221.0991873 510.66822323 216.79967403 510.62752342 C215.9914172 510.63188374 215.18316037 510.63624407 214.35041091 510.64073652 C211.64285465 510.65168226 208.93580874 510.64127397 206.22825623 510.63095093 C204.26720817 510.63440775 202.30616206 510.63917248 200.34512001 510.64513266 C194.95671876 510.65766878 189.56847668 510.65146035 184.18007481 510.64217401 C178.36883848 510.63539463 172.55762979 510.6458592 166.74639893 510.65411377 C155.36263723 510.6674649 143.97893482 510.66456728 132.59517079 510.65587585 C123.34528796 510.64910548 114.09542178 510.64817978 104.84553719 510.6514473 C102.87211345 510.65213684 102.87211345 510.65213684 100.85882257 510.65284032 C98.85631331 510.65355413 96.85380406 510.65427777 94.85129481 510.655021 C69.82712732 510.66419804 44.80299218 510.65587735 19.77882968 510.63973031 C-2.45662762 510.62549182 -24.69203338 510.62676876 -46.92749023 510.64111328 C-71.90733743 510.65717439 -96.88715604 510.66354888 -121.86700767 510.65427649 C-124.52945609 510.65331433 -127.19190452 510.65237771 -129.85435295 510.6514473 C-131.16439614 510.65098447 -132.47443933 510.65052164 -133.8241808 510.65004479 C-143.06579861 510.64745212 -152.30739816 510.65183184 -161.54901314 510.65888596 C-172.80727707 510.66729034 -184.06547823 510.6650431 -195.32373495 510.64904372 C-201.07024319 510.64114698 -206.8166467 510.63809336 -212.56315422 510.64799118 C-217.82031386 510.65690937 -223.07727135 510.65205273 -228.33441257 510.63605852 C-230.23940985 510.63269853 -232.1444241 510.634432 -234.04941053 510.64168589 C-236.63335691 510.65077283 -239.21660555 510.64148801 -241.80051517 510.62752342 C-242.91696678 510.63805867 -242.91696678 510.63805867 -244.05597296 510.64880675 C-248.77205091 510.59766289 -251.86724199 509.57912284 -255.9375 507.25 C-258.2524419 506.69249406 -260.53367336 506.32622266 -262.88671875 505.97265625 C-265.67046748 504.99171622 -266.41028648 503.75377888 -267.9375 501.25 C-268.31584883 498.76481825 -268.31584883 498.76481825 -268.32061005 495.91477299 C-268.32966669 494.82655626 -268.33872333 493.73833954 -268.34805441 492.61714655 C-268.34006252 490.82461212 -268.34006252 490.82461212 -268.33190918 488.99586487 C-268.33800028 487.72599021 -268.34409139 486.45611556 -268.35036707 485.14775985 C-268.36679867 481.62049485 -268.36444221 478.09345288 -268.3589921 474.56616294 C-268.35632586 470.76307472 -268.370846 466.9600465 -268.38308716 463.15698242 C-268.40416024 455.70551862 -268.40868095 448.2541326 -268.40689927 440.80264253 C-268.40559265 434.74727857 -268.4093907 428.6919389 -268.41682434 422.63657951 C-268.41892349 420.89363589 -268.42102109 419.15069227 -268.42311716 417.40774864 C-268.42416069 416.54029197 -268.42520422 415.6728353 -268.42627937 414.77909207 C-268.44518914 398.36663739 -268.44412921 381.9542274 -268.43731004 365.54176634 C-268.4317334 350.52035413 -268.45256382 335.49911241 -268.48567051 320.47774006 C-268.51938579 305.06081538 -268.53457859 289.64397243 -268.52995348 274.22701019 C-268.52770667 265.56871753 -268.53298273 256.91058246 -268.55784607 248.25232124 C-268.57883127 240.8816858 -268.58247896 233.51129439 -268.56354648 226.14064903 C-268.55437146 222.37891837 -268.55329881 218.61764302 -268.57390213 214.85594749 C-268.59597657 210.78064764 -268.57943794 206.70642656 -268.55895996 202.63111877 C-268.57147781 201.43832654 -268.58399566 200.24553431 -268.59689283 199.01659685 C-268.50061976 190.12087414 -268.50061976 190.12087414 -265.50730133 187.0705862 C-264.65926689 186.46979276 -263.81123245 185.86899931 -262.9375 185.25 C-262.36386719 184.75153564 -261.79023438 184.25307129 -261.19921875 183.73950195 C-260.67972656 183.32659912 -260.16023438 182.91369629 -259.625 182.48828125 C-258.73494263 181.77792725 -258.73494263 181.77792725 -257.8269043 181.05322266 C-257.20340088 180.56128418 -256.57989746 180.0693457 -255.9375 179.5625 C-255.27596924 179.0370459 -254.61443848 178.5115918 -253.93286133 177.97021484 C-248.80331699 173.90663762 -243.62686301 169.90629646 -238.4296875 165.9296875 C-234.3531363 162.8078764 -230.30157684 159.6541168 -226.25 156.5 C-225.11195923 155.61405151 -225.11195923 155.61405151 -223.95092773 154.71020508 C-222.39578346 153.49941301 -220.84068951 152.28855631 -219.28564453 151.07763672 C-216.95052017 149.26013402 -214.6141529 147.44424212 -212.27734375 145.62890625 C-211.51574951 145.03706543 -210.75415527 144.44522461 -209.96948242 143.83544922 C-208.46092109 142.66339697 -206.95197575 141.49183877 -205.44262695 140.32080078 C-201.86673741 137.54311146 -198.30328649 134.7520469 -194.765625 131.92578125 C-193.79351074 131.1517395 -193.79351074 131.1517395 -192.80175781 130.36206055 C-191.58944055 129.39503272 -190.38026864 128.42404393 -189.17480469 127.44848633 C-185.15982584 124.25 -185.15982584 124.25 -182.9375 124.25 C-182.94638245 123.36796402 -182.95526489 122.48592804 -182.9644165 121.5771637 C-183.04480064 113.23596735 -183.10558502 104.89490243 -183.14474869 96.55340672 C-183.16556058 92.26566001 -183.19375992 87.97823528 -183.23925781 83.69067383 C-183.2829457 79.54741724 -183.30668515 75.40446896 -183.31700897 71.26099968 C-183.32435943 69.68584279 -183.33871267 68.11070142 -183.36042023 66.53567696 C-183.49704542 56.20512305 -182.56596033 48.79940992 -176.8125 40 C-168.16193943 31.72555076 -159.571882 31.69281308 -148.17211914 31.89015198 C-147.15699249 31.91454409 -146.14186584 31.9389362 -145.09597778 31.96406746 C-141.88059678 32.03643699 -138.66703313 32.06894064 -135.45092773 32.08995056 C-126.31386399 32.15319993 -117.17861534 32.25871565 -108.04345703 32.45874023 C-102.43574161 32.57868778 -96.83086509 32.62840729 -91.22192383 32.6357708 C-89.10404955 32.65180014 -86.98618688 32.69332835 -84.86938477 32.76259041 C-70.20726422 33.23186754 -61.72100315 30.75300475 -50.74780273 20.79393005 C-50.11127777 20.19507429 -49.47475281 19.59621853 -48.81893921 18.97921562 C-46.00610501 16.39396237 -42.9895221 14.10518613 -39.9375 11.8125 C-38.40609375 10.63880859 -38.40609375 10.63880859 -36.84375 9.44140625 C-25.64603024 0.99796433 -14.47198266 -6.53181768 0 0 Z M-164.9375 54.25 C-166.33842959 57.05185919 -166.07513902 59.37094811 -166.08898926 62.50657654 C-166.09322167 63.15545352 -166.09745408 63.80433049 -166.10181475 64.47287041 C-166.11487776 66.65696468 -166.12087396 68.84102242 -166.12695312 71.02514648 C-166.13489264 72.58705876 -166.14328036 74.14896882 -166.15208435 75.71087646 C-166.17016378 79.07921646 -166.1851714 82.44755149 -166.19786072 85.81591606 C-166.21804962 91.13911456 -166.24570655 96.4622579 -166.27453613 101.78541565 C-166.33467797 113.08608463 -166.38649278 124.38678666 -166.4375 135.6875 C-166.49255653 147.88263523 -166.54902515 160.07775376 -166.61504889 172.27283531 C-166.64342876 177.56737322 -166.66701399 182.86190461 -166.68697357 188.15648067 C-166.70034647 191.44748379 -166.71775983 194.73845644 -166.73628426 198.0294342 C-166.74404999 199.55848483 -166.75011533 201.08754516 -166.75437737 202.61660957 C-166.76041214 204.6999384 -166.77245471 206.78314838 -166.78601074 208.86643982 C-166.79116447 210.03359748 -166.79631821 211.20075514 -166.80162811 212.40328121 C-166.9375 215.25 -166.9375 215.25 -167.9375 218.25 C-169.54082791 218.33121924 -171.14534026 218.38929134 -172.75 218.4375 C-173.64332031 218.47230469 -174.53664063 218.50710937 -175.45703125 218.54296875 C-177.9375 218.25 -177.9375 218.25 -179.69921875 216.92578125 C-182.27577207 213.43889994 -182.08709075 210.03069361 -182.14282227 205.85083008 C-182.15272186 205.20665634 -182.16262146 204.5624826 -182.17282104 203.89878845 C-182.20437467 201.7724066 -182.22916905 199.64600242 -182.25390625 197.51953125 C-182.27448109 196.04407678 -182.2954777 194.56862814 -182.31687927 193.09318542 C-182.37204526 189.21180949 -182.42147862 185.33038085 -182.46972656 181.44891357 C-182.51998158 177.48737909 -182.57564676 173.52592106 -182.63085938 169.56445312 C-182.73837399 161.79303351 -182.83983377 154.02155028 -182.9375 146.25 C-184.36149672 147.18869478 -185.78406975 148.12954951 -187.20605469 149.07128906 C-187.99840515 149.59499084 -188.79075562 150.11869263 -189.6071167 150.65826416 C-192.94361495 152.9372128 -196.06447645 155.44034039 -199.1875 158 C-200.49791344 159.06086557 -201.80912447 160.12074663 -203.12109375 161.1796875 C-204.08764893 161.96037598 -204.08764893 161.96037598 -205.07373047 162.75683594 C-208.79907749 165.7414079 -212.59929954 168.6272627 -216.390625 171.52734375 C-221.56775575 175.49155533 -226.70441406 179.50814693 -231.84692383 183.51708984 C-232.57935303 184.08766113 -233.31178223 184.65823242 -234.06640625 185.24609375 C-235.04202515 186.00684204 -235.04202515 186.00684204 -236.03735352 186.78295898 C-237.9903501 188.29080383 -239.9602569 189.77413808 -241.9375 191.25 C-240.63005345 194.24618194 -239.41997286 195.93982107 -236.76953125 197.84375 C-236.13144531 198.31039062 -235.49335938 198.77703125 -234.8359375 199.2578125 C-234.14757812 199.75023437 -233.45921875 200.24265625 -232.75 200.75 C-231.28621385 201.82080572 -229.82400989 202.89377716 -228.36328125 203.96875 C-227.62158691 204.51402344 -226.87989258 205.05929688 -226.11572266 205.62109375 C-222.82344854 208.08310372 -219.62939143 210.65997398 -216.4375 213.25 C-211.35101024 217.36370781 -206.18904704 221.34928626 -200.9375 225.25 C-194.9779161 229.67794554 -189.14438108 234.23549248 -183.36450195 238.89501953 C-178.97095452 242.43412165 -174.53138268 245.9010403 -170.05078125 249.32958984 C-165.43292362 252.86392004 -160.83867113 256.42786881 -156.25 260 C-155.49203125 260.58990723 -154.7340625 261.17981445 -153.953125 261.78759766 C-150.83005299 264.2186253 -147.70752238 266.65034787 -144.58496094 269.08203125 C-142.26520952 270.88832373 -139.94520971 272.69429624 -137.625 274.5 C-136.8729126 275.08531494 -136.1208252 275.67062988 -135.34594727 276.27368164 C-130.97081952 279.67613202 -126.58510636 283.06417031 -122.1875 286.4375 C-117.54814826 290.00259981 -112.92200095 293.58387077 -108.3125 297.1875 C-107.71985352 297.64858154 -107.12720703 298.10966309 -106.51660156 298.5847168 C-104.97796772 299.79099321 -103.45677369 301.01942926 -101.9375 302.25 C-101.31488281 302.74242187 -100.69226563 303.23484375 -100.05078125 303.7421875 C-98.40926813 305.96542983 -98.64411495 307.71978367 -98.75 310.4375 C-98.79060547 311.78908203 -98.79060547 311.78908203 -98.83203125 313.16796875 C-98.86683594 313.85503906 -98.90164062 314.54210937 -98.9375 315.25 C-102.66528141 316.4925938 -106.065671 316.79357733 -109.9375 316.25 C-112.9296875 314.5546875 -112.9296875 314.5546875 -115.8125 312.125 C-116.94080142 311.19978275 -118.06974455 310.27534769 -119.19921875 309.3515625 C-119.79911621 308.85043945 -120.39901367 308.34931641 -121.01708984 307.83300781 C-124.48766962 304.9721841 -128.06534859 302.24851396 -131.625 299.5 C-133.17113434 298.29759657 -134.7167013 297.09446323 -136.26171875 295.890625 C-140.8189516 292.34199896 -145.37800616 288.79572028 -149.9375 285.25 C-154.49699384 281.70427972 -159.0560484 278.15800104 -163.61328125 274.609375 C-170.20951386 269.47405297 -176.80718837 264.3412807 -183.4375 259.25 C-190.85363129 253.55530446 -198.22948584 247.80912408 -205.60693359 242.06445312 C-209.38267268 239.12486661 -213.16017726 236.18755105 -216.9375 233.25 C-217.6701709 232.68007324 -218.4028418 232.11014648 -219.15771484 231.52294922 C-223.06913754 228.48035076 -226.98131791 225.43873268 -230.89453125 222.3984375 C-231.70728516 221.76679688 -232.52003906 221.13515625 -233.35742188 220.484375 C-234.90928172 219.2783582 -236.46135232 218.07261252 -238.01367188 216.8671875 C-239.06844727 216.04734375 -239.06844727 216.04734375 -240.14453125 215.2109375 C-240.80146973 214.70143555 -241.4584082 214.19193359 -242.13525391 213.66699219 C-243.71932372 212.42153822 -245.27432393 211.13929649 -246.82421875 209.8515625 C-248.76122894 208.04866684 -248.76122894 208.04866684 -250.9375 208.25 C-250.9375 297.68 -250.9375 387.11 -250.9375 479.25 C-247.93263773 477.74756887 -245.81325716 476.50828032 -243.2421875 474.484375 C-242.53578125 473.93136719 -241.829375 473.37835938 -241.1015625 472.80859375 C-240.34617188 472.21175781 -239.59078125 471.61492187 -238.8125 471 C-237.18496768 469.7238667 -235.55736147 468.44782762 -233.9296875 467.171875 C-233.09920898 466.51896484 -232.26873047 465.86605469 -231.41308594 465.19335938 C-227.59835672 462.19875932 -223.76766946 459.22480708 -219.9375 456.25 C-218.43741223 455.08344619 -216.93741249 453.91677917 -215.4375 452.75 C-194.4375 436.41666667 -173.4375 420.08333333 -152.4375 403.75 C-151.69459717 403.17217773 -150.95169434 402.59435547 -150.1862793 401.99902344 C-148.69038338 400.83556688 -147.19445255 399.67215522 -145.69848633 398.50878906 C-141.88540224 395.54338002 -138.07297936 392.57712738 -134.26171875 389.609375 C-126.63290508 383.67016436 -118.99243357 377.74764033 -111.32421875 371.859375 C-104.95028359 366.95605374 -98.61303266 362.0051514 -92.26806641 357.06445312 C-88.49232734 354.12486662 -84.71484465 351.18752285 -80.9375 348.25 C-79.43749123 347.08334461 -77.93749124 345.91667793 -76.4375 344.75 C-73.4375 342.41666667 -70.4375 340.08333333 -67.4375 337.75 C-66.6945166 337.17209717 -65.9515332 336.59419434 -65.18603516 335.9987793 C-63.6910232 334.83604633 -62.19590656 333.67344793 -60.70068359 332.51098633 C-56.87348245 329.53524775 -53.04831451 326.55695334 -49.2265625 323.57421875 C-45.47469726 320.64642879 -41.71507875 317.72883674 -37.95166016 314.81591797 C-36.08869529 313.36754746 -34.2366952 311.90630063 -32.38671875 310.44140625 C-31.35160156 309.63574219 -30.31648437 308.83007812 -29.25 308 C-27.94482422 306.97132813 -27.94482422 306.97132813 -26.61328125 305.921875 C-19.88416224 301.71740356 -12.23609831 301.16901506 -4.6015625 302.7265625 C3.53423165 305.40245493 9.7522571 311.32606477 16.21484375 316.72460938 C18.88425399 318.92842481 21.62234504 321.02575304 24.375 323.125 C25.44041868 323.93969302 26.50551317 324.75481015 27.5703125 325.5703125 C28.1262207 325.99602539 28.68212891 326.42173828 29.25488281 326.86035156 C32.76479719 329.5586812 36.25654428 332.28041815 39.75 335 C40.51159424 335.59280762 41.27318848 336.18561523 42.05786133 336.79638672 C43.61595805 338.00934681 45.17398163 339.22240086 46.73193359 340.43554688 C50.50767266 343.37513338 54.28515535 346.31247715 58.0625 349.25 C59.56250877 350.41665539 61.06250876 351.58332207 62.5625 352.75 C63.305 353.3275 64.0475 353.905 64.8125 354.5 C89.5625 373.75 89.5625 373.75 91.8137207 375.50097656 C93.30961662 376.66443312 94.80554745 377.82784478 96.30151367 378.99121094 C100.11459776 381.95661998 103.92702064 384.92287262 107.73828125 387.890625 C114.33451386 393.02594703 120.93218837 398.1587193 127.5625 403.25 C134.97863129 408.94469554 142.35448584 414.69087592 149.73193359 420.43554688 C153.50767266 423.37513338 157.28515535 426.31247715 161.0625 429.25 C162.56250877 430.41665539 164.06250876 431.58332207 165.5625 432.75 C166.305 433.3275 167.0475 433.905 167.8125 434.5 C174.5625 439.75 174.5625 439.75 176.8137207 441.50097656 C178.30961662 442.66443312 179.80554745 443.82784478 181.30151367 444.99121094 C185.11459776 447.95661998 188.92702064 450.92287262 192.73828125 453.890625 C194.28381325 455.09380256 195.82938572 456.29692814 197.375 457.5 C198.12168945 458.08128662 198.86837891 458.66257324 199.63769531 459.26147461 C205.15982639 463.55680436 210.70435583 467.82189261 216.265625 472.06640625 C218.33074884 473.67870265 220.31427237 475.31983623 222.296875 477.02734375 C224.73097659 479.45881296 224.73097659 479.45881296 227.0625 479.25 C227.0625 389.82 227.0625 300.39 227.0625 208.25 C223.39426813 210.08411594 220.65462689 211.98947721 217.4375 214.5 C216.87828857 214.93473633 216.31907715 215.36947266 215.74291992 215.81738281 C214.50991589 216.77651591 213.2781203 217.73720398 212.04736328 218.69921875 C209.98106643 220.31362436 207.91091763 221.92297804 205.83984375 223.53125 C202.0220899 226.49657773 198.20719645 229.46556012 194.39306641 232.43554688 C189.87171801 235.95562453 185.34800476 239.47266224 180.82470703 242.99023438 C177.01123409 245.95599212 173.19839046 248.92255251 169.38671875 251.890625 C161.75790508 257.82983564 154.11743357 263.75235967 146.44921875 269.640625 C140.07528359 274.54394626 133.73803266 279.4948486 127.39306641 284.43554688 C125.11019066 286.21287063 122.82672134 287.98942812 120.54296875 289.765625 C119.80224121 290.34175537 119.06151367 290.91788574 118.29833984 291.51147461 C116.81323414 292.66625051 115.32788433 293.82071253 113.84228516 294.97485352 C109.92329989 298.02033002 106.01032618 301.07314243 102.10546875 304.13671875 C101.29271484 304.77287109 100.47996094 305.40902344 99.64257812 306.06445312 C98.08870181 307.28091629 96.53651723 308.49954467 94.98632812 309.72070312 C85.32832864 317.27182463 85.32832864 317.27182463 80.4375 317.1875 C77.0625 316.25 77.0625 316.25 75.0625 314.625 C73.57066421 311.08189001 74.03235589 308.91988838 75.0625 305.25 C78.30968635 301.65223247 81.88842606 298.72508584 85.75 295.8125 C86.90669747 294.93418273 88.06292066 294.05524063 89.21875 293.17578125 C89.8375 292.7060791 90.45625 292.23637695 91.09375 291.75244141 C94.66534744 289.02679524 98.20610789 286.26150918 101.75 283.5 C103.28905108 282.30206867 104.82811372 281.10415218 106.3671875 279.90625 C107.93232534 278.68754325 109.49742937 277.46879307 111.0625 276.25 C120.24896063 269.09607715 129.44086727 261.95067657 138.67578125 254.859375 C145.04971641 249.95605374 151.38696734 245.0051514 157.73193359 240.06445312 C161.50767266 237.12486662 165.28515535 234.18752285 169.0625 231.25 C170.56250877 230.08334461 172.06250876 228.91667793 173.5625 227.75 C176.5625 225.41666667 179.5625 223.08333333 182.5625 220.75 C183.30612793 220.17161377 184.04975586 219.59322754 184.81591797 218.99731445 C186.30448963 217.83955447 187.79309597 216.68183906 189.28173828 215.52416992 C193.20688855 212.47161009 197.13129857 209.41810465 201.0546875 206.36328125 C201.87195313 205.72712891 202.68921875 205.09097656 203.53125 204.43554688 C205.09657652 203.21708248 206.66169206 201.99834697 208.2265625 200.77929688 C208.93296875 200.22951172 209.639375 199.67972656 210.3671875 199.11328125 C210.98577637 198.63157471 211.60436523 198.14986816 212.24169922 197.65356445 C214.16895774 196.16793704 216.11277113 194.70597335 218.0625 193.25 C216.75114618 189.31593853 214.9467825 188.40499137 211.625 185.9375 C210.43170555 185.04114434 209.23903129 184.14396262 208.046875 183.24609375 C207.40298828 182.76382324 206.75910156 182.28155273 206.09570312 181.78466797 C202.49073545 179.06362728 198.93589462 176.27830165 195.375 173.5 C193.84117132 172.30725889 192.3073168 171.11455101 190.7734375 169.921875 C187.58514094 167.43987192 184.40380747 164.9492569 181.2265625 162.453125 C180.43467529 161.83276367 179.64278809 161.21240234 178.8269043 160.57324219 C177.32888436 159.39947103 175.83279413 158.22323075 174.33911133 157.04394531 C170.74642309 154.23282287 167.10712257 151.56952463 163.30102539 149.05273438 C162.50346329 148.5243396 161.70590118 147.99594482 160.88417053 147.45153809 C160.28301926 147.05503052 159.68186798 146.65852295 159.0625 146.25 C159.05036972 147.47362495 159.05036972 147.47362495 159.03799438 148.7219696 C158.95998955 156.41709586 158.8726812 164.11203412 158.77497292 171.8069334 C158.72506927 175.76277358 158.67873885 179.71858782 158.640625 183.67456055 C158.60369704 187.49371044 158.55731699 191.31264018 158.50443649 195.13160133 C158.48593238 196.5871678 158.47080975 198.04278138 158.45915604 199.49841881 C158.44222496 201.54043398 158.41317472 203.58194936 158.38134766 205.6237793 C158.36802399 206.78515915 158.35470032 207.946539 158.3409729 209.14311218 C158.06151502 212.26098932 157.49041842 214.47399584 156.0625 217.25 C153.53774538 218.51237731 151.75049534 218.34856404 148.9375 218.3125 C148.02742188 218.30347656 147.11734375 218.29445312 146.1796875 218.28515625 C145.48101562 218.27355469 144.78234375 218.26195312 144.0625 218.25 C142.94900091 214.90950274 142.93220504 212.40724859 142.92446899 208.8866272 C142.92164771 208.23830693 142.91882643 207.58998666 142.91591966 206.92202032 C142.90757469 204.74569029 142.90623551 202.56941113 142.90478516 200.39306641 C142.9001169 198.83425249 142.89497331 197.27543993 142.88938904 195.71662903 C142.87810748 192.35758212 142.86967361 188.99854409 142.86326981 185.63948441 C142.85259361 180.32825664 142.83235018 175.01709265 142.81015015 169.7059021 C142.74821179 154.6021415 142.69419846 139.49838469 142.66113281 124.39453125 C142.64279447 116.05451615 142.61386959 107.71460791 142.5731281 99.37467134 C142.55204707 94.96078907 142.53659927 90.54704151 142.53432083 86.13310623 C142.53217523 81.98144473 142.51631508 77.83006383 142.48993111 73.67848778 C142.48273361 72.15512196 142.48063934 70.63172216 142.48403358 69.10834312 C142.4879289 67.02767649 142.47347345 64.9479058 142.45449829 62.86734009 C142.44953307 61.12131721 142.44953307 61.12131721 142.44446754 59.34002113 C142.01626521 55.87597224 141.14924884 54.02490679 139.0625 51.25 C135.79316253 49.07044169 134.86934939 48.9981848 131.08458138 48.98993778 C130.05060663 48.98287219 129.01663189 48.9758066 127.95132458 48.9685269 C126.81175301 48.97094198 125.67218144 48.97335707 124.49807739 48.97584534 C123.29031045 48.97060866 122.0825435 48.96537198 120.83817756 48.95997661 C117.47967605 48.94754102 114.12138363 48.94413384 110.76287341 48.94457352 C107.14314523 48.94292778 103.52345541 48.92986588 99.90374756 48.91838074 C91.98648718 48.89551345 84.06925358 48.8876084 76.15196466 48.88255429 C71.21020132 48.87929954 66.26844579 48.87277844 61.32668686 48.8655529 C47.64924177 48.84598539 33.97180394 48.82958184 20.29434395 48.82667637 C19.41879419 48.8264888 18.54324443 48.82630123 17.64116286 48.82610798 C15.86614855 48.82574172 14.09113424 48.82537802 12.31611992 48.82501686 C11.43497906 48.82483405 10.5538382 48.82465124 9.64599609 48.82446289 C8.76378218 48.82428234 7.88156826 48.82410179 6.97262059 48.82391577 C-7.32783493 48.82037285 -21.62813999 48.79334381 -35.92854331 48.755965 C-50.60414157 48.71791185 -65.2796651 48.69851912 -79.9553138 48.69821686 C-88.19780186 48.69763164 -96.4401104 48.68909833 -104.68255234 48.66021919 C-111.70003649 48.63574531 -118.71727565 48.62839526 -125.73479091 48.64346672 C-129.31628174 48.65065198 -132.89728842 48.64970977 -136.47872543 48.62705612 C-140.35907031 48.60274656 -144.23871904 48.61705668 -148.11911011 48.63526917 C-149.8217753 48.61546921 -149.8217753 48.61546921 -151.55883777 48.59526926 C-157.72778853 48.66168845 -161.13238668 48.85360007 -164.9375 54.25 Z " fill="#000000" transform="translate(267.9375,1.75)"/>
<path d="M0 0 C2.5 1.36328125 2.5 1.36328125 5 3.3125 C5.95777344 4.04855469 6.91554688 4.78460938 7.90234375 5.54296875 C8.92457031 6.35378906 9.94679688 7.16460937 11 8 C12.06311785 8.83030392 13.12693428 9.65971406 14.19140625 10.48828125 C16.51573807 12.30292714 18.83225711 14.12704915 21.14453125 15.95703125 C25.32840421 19.26533587 29.5378485 22.54031762 33.75 25.8125 C34.5037793 26.39821777 35.25755859 26.98393555 36.03417969 27.58740234 C37.57725213 28.78637159 39.1203841 29.98526424 40.66357422 31.18408203 C43.00717053 33.00557308 45.34949427 34.82868777 47.69140625 36.65234375 C54.28223556 41.78401281 60.87485003 46.91268283 67.5 52 C74.91613129 57.69469554 82.29198584 63.44087592 89.66943359 69.18554688 C93.44517266 72.12513338 97.22265535 75.06247715 101 78 C102.50000877 79.16665539 104.00000876 80.33332207 105.5 81.5 C106.2425 82.0775 106.985 82.655 107.75 83.25 C114.5 88.5 114.5 88.5 116.7512207 90.25097656 C118.24711662 91.41443312 119.74304745 92.57784478 121.23901367 93.74121094 C125.05209776 96.70661998 128.86452064 99.67287262 132.67578125 102.640625 C139.27201386 107.77594703 145.86968837 112.9087193 152.5 118 C159.91613129 123.69469554 167.29198584 129.44087592 174.66943359 135.18554688 C179.18997084 138.70499301 183.7126305 142.22171197 188.2355957 145.73803711 C192.06318544 148.71412469 195.88877476 151.69272611 199.7109375 154.67578125 C201.26550447 155.88817539 202.82019029 157.10041716 204.375 158.3125 C205.11991699 158.89346436 205.86483398 159.47442871 206.63232422 160.07299805 C212.03134788 164.27323916 217.4910431 168.38164541 223.0078125 172.42578125 C223.66523438 172.94527344 224.32265625 173.46476563 225 174 C225 174.33 225 174.66 225 175 C74.52 175 -75.96 175 -231 175 C-225.38252849 169.38252849 -225.38252849 169.38252849 -222.5390625 167.30859375 C-221.91040283 166.84501465 -221.28174316 166.38143555 -220.6340332 165.90380859 C-219.63956177 165.17798584 -219.63956177 165.17798584 -218.625 164.4375 C-213.1003879 160.35240398 -207.65960854 156.18997763 -202.3125 151.875 C-197.29170345 147.82672647 -192.23554777 143.83996087 -187.11328125 139.92041016 C-182.49542362 136.38607996 -177.90117113 132.82213119 -173.3125 129.25 C-172.55453125 128.66009277 -171.7965625 128.07018555 -171.015625 127.46240234 C-168.67686087 125.64188708 -166.33838179 123.82100633 -164 122 C-154.81353937 114.84607715 -145.62163273 107.70067657 -136.38671875 100.609375 C-130.01278359 95.70605374 -123.67553266 90.7551514 -117.33056641 85.81445312 C-113.55482734 82.87486662 -109.77734465 79.93752285 -106 77 C-104.49999123 75.83334461 -102.99999124 74.66667793 -101.5 73.5 C-86.5 61.83333333 -71.5 50.16666667 -56.5 38.5 C-55.75709717 37.92217773 -55.01419434 37.34435547 -54.2487793 36.74902344 C-52.75288338 35.58556688 -51.25695255 34.42215522 -49.76098633 33.25878906 C-45.94790224 30.29338002 -42.13547936 27.32712738 -38.32421875 24.359375 C-34.57318407 21.438848 -30.82050019 18.5204572 -27.06591797 15.60449219 C-25.72606989 14.56390113 -24.38653256 13.52290979 -23.04736328 12.48144531 C-21.28325621 11.11044498 -19.51701773 9.74224581 -17.75 8.375 C-16.77546875 7.61960937 -15.8009375 6.86421875 -14.796875 6.0859375 C-13.87390625 5.39757812 -12.9509375 4.70921875 -12 4 C-11.01515625 3.24976563 -10.0303125 2.49953125 -9.015625 1.7265625 C-5.56851044 -0.24704454 -3.90312389 -0.60726795 0 0 Z " fill="#5F7C8A" transform="translate(259,320)"/>
<path d="M0 0 C3.66823187 1.83411594 6.40787311 3.73947721 9.625 6.25 C10.46381714 6.90210449 10.46381714 6.90210449 11.31958008 7.56738281 C12.55258411 8.52651591 13.7843797 9.48720398 15.01513672 10.44921875 C17.08143357 12.06362436 19.15158237 13.67297804 21.22265625 15.28125 C25.0404101 18.24657773 28.85530355 21.21556012 32.66943359 24.18554688 C36.44517264 27.12513336 40.22263307 30.06250584 44 33 C48.55949384 36.54572028 53.1185484 40.09199896 57.67578125 43.640625 C64.27201386 48.77594703 70.86968837 53.9087193 77.5 59 C84.91613129 64.69469554 92.29198584 70.44087592 99.66943359 76.18554688 C104.18338149 79.6998629 108.69944136 83.21146521 113.21582031 86.72265625 C117.15548617 89.78588042 121.09292074 92.85191889 125.02734375 95.921875 C125.84912109 96.56253906 126.67089844 97.20320313 127.51757812 97.86328125 C129.09636684 99.09420127 130.67452198 100.32593448 132.25195312 101.55859375 C132.96158203 102.11160156 133.67121094 102.66460937 134.40234375 103.234375 C135.02616943 103.72131836 135.64999512 104.20826172 136.29272461 104.70996094 C140.55694737 107.93206205 143.73936474 108.65517069 149 108 C150.6844589 107.37966103 152.35636866 106.72159424 154 106 C154.59683594 106.49886719 155.19367188 106.99773437 155.80859375 107.51171875 C160.31107322 111.23813935 164.82872861 114.89515803 169.515625 118.38671875 C170.28720947 118.96397705 171.05879395 119.54123535 171.85375977 120.13598633 C173.40034026 121.28843877 174.952883 122.43293598 176.51147461 123.5690918 C177.22311768 124.10058838 177.93476074 124.63208496 178.66796875 125.1796875 C179.31016357 125.65132324 179.9523584 126.12295898 180.61401367 126.60888672 C182 128 182 128 182 131 C179.7890625 132.98828125 179.7890625 132.98828125 176.625 135.3125 C175.42249189 136.20871679 174.22070852 137.10590656 173.01953125 138.00390625 C172.36936035 138.48617676 171.71918945 138.96844727 171.04931641 139.46533203 C167.43048321 142.17536128 163.87538445 144.96708895 160.3125 147.75 C158.77359916 148.94812433 157.23453452 150.14603831 155.6953125 151.34375 C154.13017466 152.56245675 152.56507063 153.78120693 151 155 C141.81353937 162.15392285 132.62163273 169.29932343 123.38671875 176.390625 C117.01278359 181.29394626 110.67553266 186.2448486 104.33056641 191.18554688 C100.55482734 194.12513338 96.77734465 197.06247715 93 200 C91.49999123 201.16665539 89.99999124 202.33332207 88.5 203.5 C43.5 238.5 43.5 238.5 41.24804688 240.25146484 C39.75448712 241.41315848 38.26099704 242.57494172 36.76757812 243.73681641 C32.91962149 246.73032503 29.07030913 249.72206499 25.21875 252.7109375 C23.64582401 253.93227966 22.07290719 255.15363363 20.5 256.375 C19.74847656 256.95781738 18.99695313 257.54063477 18.22265625 258.14111328 C13.33746927 261.93671199 8.51092525 265.79128078 3.75 269.7421875 C2 271 2 271 0 271 C0 181.57 0 92.14 0 0 Z " fill="#CED7DB" transform="translate(17,210)"/>
<path d="M0 0 C0 89.43 0 178.86 0 271 C-3.00486227 269.49756887 -5.12424284 268.25828032 -7.6953125 266.234375 C-8.40171875 265.68136719 -9.108125 265.12835938 -9.8359375 264.55859375 C-10.59132813 263.96175781 -11.34671875 263.36492187 -12.125 262.75 C-13.75253232 261.4738667 -15.38013853 260.19782762 -17.0078125 258.921875 C-17.83829102 258.26896484 -18.66876953 257.61605469 -19.52441406 256.94335938 C-23.33914328 253.94875932 -27.16983054 250.97480708 -31 248 C-32.50008777 246.83344619 -34.00008751 245.66677917 -35.5 244.5 C-36.2425 243.9225 -36.985 243.345 -37.75 242.75 C-80.5 209.5 -80.5 209.5 -82.7512207 207.74902344 C-84.24711662 206.58556688 -85.74304745 205.42215522 -87.23901367 204.25878906 C-91.05209776 201.29338002 -94.86452064 198.32712738 -98.67578125 195.359375 C-105.27201386 190.22405297 -111.86968837 185.0912807 -118.5 180 C-125.91613129 174.30530446 -133.29198584 168.55912408 -140.66943359 162.81445312 C-143.70025607 160.45481845 -146.73218686 158.09661126 -149.7644043 155.73876953 C-151.24925758 154.58390166 -152.73379782 153.42863118 -154.21801758 152.27294922 C-158.13613754 149.22280256 -162.05996316 146.18038541 -165.9921875 143.1484375 C-166.80945313 142.51679688 -167.62671875 141.88515625 -168.46875 141.234375 C-170.03208044 140.02634693 -171.59709312 138.82049163 -173.1640625 137.6171875 C-176.6567245 134.91483588 -179.97987002 132.24150076 -183 129 C-173.37646783 120.82540414 -163.20371234 113.42622026 -153 106 C-151.9790625 106.7734375 -151.9790625 106.7734375 -150.9375 107.5625 C-147.06557832 109.45727018 -145.13257434 109.1047476 -141 108 C-138.00932431 106.23573067 -138.00932431 106.23573067 -135.1875 103.8125 C-134.04981987 102.89671201 -132.91177838 101.98137279 -131.7734375 101.06640625 C-131.16725586 100.57156738 -130.56107422 100.07672852 -129.93652344 99.56689453 C-126.43982887 96.73762251 -122.86958172 94.00264521 -119.3125 91.25 C-117.76650668 90.04741526 -116.2209383 88.84428405 -114.67578125 87.640625 C-109.37298735 83.51144549 -104.06763176 79.38556395 -98.76220703 75.25976562 C-94.94873409 72.29400788 -91.13589046 69.32744749 -87.32421875 66.359375 C-79.69540508 60.42016436 -72.05493357 54.49764033 -64.38671875 48.609375 C-58.01278359 43.70605374 -51.67553266 38.7551514 -45.33056641 33.81445312 C-41.55482732 30.87486661 -37.77732274 27.93755105 -34 25 C-32.90099365 24.14510986 -32.90099365 24.14510986 -31.77978516 23.27294922 C-27.86836246 20.23035076 -23.95618209 17.18873268 -20.04296875 14.1484375 C-19.23021484 13.51679688 -18.41746094 12.88515625 -17.58007812 12.234375 C-16.02821828 11.0283582 -14.47614768 9.82261252 -12.92382812 8.6171875 C-12.22064453 8.070625 -11.51746094 7.5240625 -10.79296875 6.9609375 C-10.13603027 6.45143555 -9.4790918 5.94193359 -8.80224609 5.41699219 C-7.21817628 4.17153822 -5.66317607 2.88929649 -4.11328125 1.6015625 C-2 0 -2 0 0 0 Z " fill="#CED7DB" transform="translate(495,210)"/>
<path d="M0 0 C37.62350428 -0.11439589 75.24698241 -0.20252369 112.87062536 -0.25532665 C117.31047904 -0.26158033 121.75033238 -0.26805192 126.19018555 -0.2746582 C127.07409597 -0.27596976 127.95800639 -0.27728131 128.86870197 -0.2786326 C143.18873345 -0.30040068 157.50866477 -0.3398299 171.82863679 -0.38576398 C186.51768588 -0.43248965 201.20668244 -0.46028715 215.8958028 -0.47044247 C224.96288132 -0.47730973 234.02967676 -0.49901411 243.09666816 -0.53958233 C249.31072747 -0.56597272 255.52464001 -0.57400943 261.73875131 -0.56750689 C265.3263121 -0.56429815 268.91337754 -0.56928318 272.50085068 -0.59602737 C276.38789266 -0.62479369 280.27428571 -0.61496284 284.16142273 -0.60127258 C285.29857922 -0.61583679 286.43573571 -0.630401 287.60735148 -0.64540654 C295.24619418 -0.57235795 295.24619418 -0.57235795 299.17741108 2.41257954 C301.96882274 6.37537969 302.13009707 8.41348662 302.15148926 13.25657654 C302.15783787 14.229892 302.15783787 14.229892 302.16431475 15.22287041 C302.17737776 17.40696468 302.18337396 19.59102242 302.18945312 21.77514648 C302.19739264 23.33705876 302.20578036 24.89896882 302.21458435 26.46087646 C302.23266378 29.82921646 302.2476714 33.19755149 302.26036072 36.56591606 C302.28054962 41.88911456 302.30820655 47.2122579 302.33703613 52.53541565 C302.39717797 63.83608463 302.44899278 75.13678666 302.5 86.4375 C302.55505653 98.63263523 302.61152515 110.82775376 302.67754889 123.02283531 C302.70592876 128.31737322 302.72951399 133.61190461 302.74947357 138.90648067 C302.76284647 142.19748379 302.78025983 145.48845644 302.79878426 148.7794342 C302.80654999 150.30848483 302.81261533 151.83754516 302.81687737 153.36660957 C302.82291214 155.4499384 302.83495471 157.53314838 302.84851074 159.61643982 C302.85366447 160.78359748 302.85881821 161.95075514 302.86412811 163.15328121 C302.87492089 166.07582881 302.87492089 166.07582881 304 169 C305.60332791 169.08121924 307.20784026 169.13929134 308.8125 169.1875 C309.70582031 169.22230469 310.59914063 169.25710937 311.51953125 169.29296875 C314.03202016 169.2070405 314.03202016 169.2070405 315.76171875 167.67578125 C318.33827207 164.18889994 318.14959075 160.78069361 318.20532227 156.60083008 C318.21522186 155.95665634 318.22512146 155.3124826 318.23532104 154.64878845 C318.26687467 152.5224066 318.29166905 150.39600242 318.31640625 148.26953125 C318.33698109 146.79407678 318.3579777 145.31862814 318.37937927 143.84318542 C318.43454526 139.96180949 318.48397862 136.08038085 318.53222656 132.19891357 C318.58248158 128.23737909 318.63814676 124.27592106 318.69335938 120.31445312 C318.80087399 112.54303351 318.90233377 104.77155028 319 97 C320.42399672 97.93869478 321.84656975 98.87954951 323.26855469 99.82128906 C324.45708038 100.60684174 324.45708038 100.60684174 325.6696167 101.40826416 C329.00611495 103.6872128 332.12697645 106.19034039 335.25 108.75 C336.56041344 109.81086557 337.87162447 110.87074663 339.18359375 111.9296875 C339.82796387 112.45014648 340.47233398 112.97060547 341.13623047 113.50683594 C344.86157749 116.4914079 348.66179954 119.3772627 352.453125 122.27734375 C357.63025575 126.24155533 362.76691406 130.25814693 367.90942383 134.26708984 C368.64185303 134.83766113 369.37428223 135.40823242 370.12890625 135.99609375 C370.77931885 136.50325928 371.42973145 137.0104248 372.09985352 137.53295898 C374.0528501 139.04080383 376.0227569 140.52413808 378 142 C376.4923068 145.85489738 374.33174453 147.4965046 371 149.875 C369.9075385 150.66876531 368.81648158 151.46446603 367.7265625 152.26171875 C367.13004883 152.69661621 366.53353516 153.13151367 365.91894531 153.57958984 C362.35471916 156.21784274 358.86913776 158.95751629 355.375 161.6875 C354.61058594 162.28353027 353.84617187 162.87956055 353.05859375 163.49365234 C351.48768034 164.71855966 349.91704427 165.94382274 348.34667969 167.16943359 C344.56777655 170.11722966 340.78369793 173.05836276 337 176 C335.49997369 177.16663284 333.99997373 178.33329955 332.5 179.5 C323.50000001 186.5 323.50000001 186.5 321.24682617 188.25244141 C319.75737049 189.41092492 318.26794952 190.56945305 316.77856445 191.72802734 C312.86753006 194.77027635 308.95577063 197.811587 305.04296875 200.8515625 C304.23021484 201.48320312 303.41746094 202.11484375 302.58007812 202.765625 C301.02821828 203.9716418 299.47614768 205.17738748 297.92382812 206.3828125 C296.86905273 207.20265625 296.86905273 207.20265625 295.79296875 208.0390625 C295.13603027 208.54856445 294.4790918 209.05806641 293.80224609 209.58300781 C292.21817628 210.82846178 290.66317607 212.11070351 289.11328125 213.3984375 C287 215 287 215 285 215 C284.99365209 213.40033166 284.99365209 213.40033166 284.98717594 211.76834679 C284.88402037 185.82933116 284.77527675 159.89034355 284.66066074 133.95137596 C284.60536313 121.40753483 284.55188679 108.86369086 284.50268555 96.31982422 C284.45980134 85.3876605 284.41351262 74.45551743 284.36312145 63.52338564 C284.33655469 57.7339745 284.31170244 51.94456736 284.29092598 46.15513229 C284.27131979 40.70677888 284.24716407 35.25846465 284.21950912 29.81014633 C284.21015978 27.80987765 284.20247693 25.80960038 284.19658089 23.80931854 C284.1882837 21.07883998 284.17399695 18.34845558 284.15821838 15.61801147 C284.15675122 14.43025118 284.15675122 14.43025118 284.15525442 13.21849573 C284.1236115 8.96148294 283.70793383 5.24760299 283 1 C189.61 1 96.22 1 0 1 C0 0.67 0 0.34 0 0 Z " fill="#F5D232" transform="translate(108,51)"/>
<path d="M0 0 C0 89.43 0 178.86 0 271 C-1.32 270.34 -2.64 269.68 -4 269 C-5.57119032 268.23152772 -5.57119032 268.23152772 -7.17412186 267.44753075 C-11.81233694 264.81418386 -16.01067478 261.95356882 -17.76501369 256.71609926 C-19.04277067 249.67404805 -18.79112936 242.51000527 -18.71386719 235.38134766 C-18.73477347 232.96582404 -18.7611723 230.55034268 -18.79263306 228.13493347 C-18.85330005 222.2695257 -18.85316163 216.40604582 -18.82231876 210.54058053 C-18.79836075 205.77003857 -18.79921336 201.00009657 -18.81748199 196.22953415 C-18.82005147 195.5488395 -18.82262095 194.86814484 -18.82526828 194.16682308 C-18.8305697 192.78368803 -18.83591589 191.40055314 -18.84130636 190.01741843 C-18.88865338 177.0655974 -18.8549656 164.11494725 -18.79433337 151.16324513 C-18.74444878 140.06997135 -18.76854467 128.9788321 -18.84570312 117.88574219 C-18.93544961 104.98132363 -18.97558297 92.07822362 -18.94004178 79.17349851 C-18.93640423 77.79503167 -18.93284315 76.41656462 -18.92935944 75.03809738 C-18.92763528 74.36000057 -18.92591112 73.68190375 -18.92413472 72.98325855 C-18.91551837 68.22395233 -18.94227369 63.46561331 -18.98329926 58.70650101 C-19.03773043 52.28834454 -19.01234937 45.87345052 -18.93442917 39.45551491 C-18.91785107 37.10625239 -18.92657696 34.75664798 -18.9630394 32.40760994 C-19.22801838 13.78320451 -19.22801838 13.78320451 -13.60373688 7.86350632 C-4.67640515 0 -4.67640515 0 0 0 Z " fill="#5F7C8A" transform="translate(495,210)"/>
<path d="M0 0 C1.09142492 -0.01169993 1.09142492 -0.01169993 2.20489883 -0.02363622 C4.63809396 -0.04354801 7.06972353 -0.02779642 9.50292969 -0.01205444 C11.24923617 -0.01883098 12.9955355 -0.02773432 14.74182129 -0.03860474 C19.48155739 -0.06140045 24.22074937 -0.05256066 28.960495 -0.03670931 C33.92029285 -0.02405173 38.88004407 -0.03579003 43.83984375 -0.04364014 C52.16903042 -0.05273711 60.49799542 -0.04074752 68.82714844 -0.01693726 C78.45726917 0.0102741 88.08686063 0.00145997 97.71696854 -0.02606928 C105.98464107 -0.04875797 114.25215426 -0.05196161 122.51984787 -0.03887594 C127.45802232 -0.03108011 132.39594797 -0.03004347 137.33410645 -0.04655838 C141.97674845 -0.06100038 146.61870799 -0.05098652 151.26127625 -0.0220871 C152.96525438 -0.01547481 154.66928994 -0.01737644 156.37324524 -0.02840042 C158.69947558 -0.04206294 161.02351853 -0.02493538 163.34960938 0 C165.3019046 0.00282769 165.3019046 0.00282769 167.29364014 0.00571251 C171.5599275 0.79963197 173.03967792 2.24921313 175.67480469 5.63491821 C176.36230469 9.13491821 176.36230469 9.13491821 175.67480469 12.63491821 C172.44354499 15.98514293 170.82293552 17.42782487 166.21744442 18.25853729 C164.93895909 18.25782478 163.66047377 18.25711227 162.34324646 18.25637817 C161.26891589 18.26596141 161.26891589 18.26596141 160.17288166 18.27573824 C157.7841927 18.29094193 155.39717487 18.27056004 153.00854492 18.25015259 C151.29165092 18.25365518 149.57476016 18.25931531 147.85787964 18.26696777 C143.20287298 18.28120463 138.5484578 18.26416574 133.89350772 18.2406826 C129.02048392 18.22056432 124.14748444 18.22645361 119.27442932 18.22879028 C111.09244032 18.22873673 102.91068237 18.20898798 94.72875977 18.1769104 C85.2696981 18.14000599 75.81093895 18.13123671 66.35181469 18.13820791 C57.25030523 18.1445129 48.14889949 18.13375949 39.04741096 18.11424255 C35.17470891 18.1060685 31.30205986 18.10335901 27.4293499 18.10493469 C22.86972395 18.10581359 18.31038552 18.091596 13.75083542 18.06570816 C12.07749767 18.05854598 10.40412934 18.05646299 8.73077965 18.0598259 C6.44666757 18.06354069 4.16339461 18.04879422 1.87937927 18.02932739 C0.60127097 18.02559868 -0.67683733 18.02186996 -1.99367619 18.01802826 C-6.56531482 17.49230992 -9.11678613 15.84332739 -12.32519531 12.63491821 C-12.76269531 9.32241821 -12.76269531 9.32241821 -12.32519531 5.63491821 C-8.58857812 0.77657269 -6.02659331 0.00872888 0 0 Z " fill="#020200" transform="translate(174.3251953125,93.36508178710938)"/>
<path d="M0 0 C0.71365711 -0.00367669 1.42731422 -0.00735338 2.1625973 -0.01114148 C4.56003509 -0.02217703 6.95742953 -0.02602189 9.35488892 -0.02983093 C11.07133624 -0.03609556 12.78778221 -0.04274236 14.50422668 -0.04974365 C19.17158656 -0.06715047 23.83893619 -0.07770404 28.50632048 -0.08594918 C31.42121401 -0.09109887 34.33610435 -0.09717454 37.25099564 -0.10346031 C46.36794981 -0.12250951 55.48489588 -0.13674254 64.60186613 -0.14507228 C75.13205518 -0.15485178 85.66203442 -0.18119101 96.19214952 -0.22157317 C104.32810375 -0.25170552 112.46399773 -0.26653832 120.6000067 -0.26985329 C125.46108723 -0.2722066 130.32194355 -0.28120374 135.18296432 -0.30631447 C139.75485066 -0.32955059 144.32636443 -0.33384649 148.89829445 -0.32355309 C150.57649409 -0.32305656 152.2547118 -0.32941118 153.93285561 -0.34310913 C156.22383364 -0.36076368 158.5134651 -0.35375504 160.80444336 -0.34057617 C162.08644812 -0.34296453 163.36845287 -0.34535288 164.68930626 -0.34781361 C168.60647965 0.23272508 170.24646056 1.38609364 173.02920532 4.14717102 C174.47351387 7.03578811 174.40609038 8.94364803 174.02920532 12.14717102 C171.40263553 15.52895579 169.90654029 16.98390651 165.64804077 17.77637672 C164.34651062 17.77826185 163.04498047 17.78014698 161.70401001 17.78208923 C160.61258509 17.79378916 160.61258509 17.79378916 159.49911118 17.80572546 C157.06591605 17.82563724 154.63428648 17.80988565 152.20108032 17.79414368 C150.45477384 17.80092022 148.70847451 17.80982355 146.96218872 17.82069397 C142.22245262 17.84348969 137.48326064 17.83464989 132.74351501 17.81879854 C127.78371716 17.80614097 122.82396594 17.81787926 117.86416626 17.82572937 C109.53497959 17.83482634 101.20601459 17.82283675 92.87686157 17.79902649 C83.24674084 17.77181513 73.61714938 17.78062926 63.98704147 17.80815852 C55.71936894 17.8308472 47.45185575 17.83405084 39.18416214 17.82096517 C34.24598769 17.81316934 29.30806204 17.8121327 24.36990356 17.82864761 C19.72726156 17.84308961 15.08530202 17.83307575 10.44273376 17.80417633 C8.73875563 17.79756405 7.03472007 17.79946567 5.33076477 17.81048965 C3.00453443 17.82415217 0.68049148 17.80702462 -1.64559937 17.78208923 C-3.59789459 17.77926154 -3.59789459 17.77926154 -5.58963013 17.77637672 C-9.84506408 16.98447699 -11.33111381 15.51177284 -13.97079468 12.14717102 C-14.70886508 8.21079552 -14.33216175 6.70791304 -12.15829468 3.33467102 C-8.44509212 -0.37853154 -5.03105438 0.01678057 0 0 Z " fill="#010100" transform="translate(175.97079467773438,144.8528289794922)"/>
<path d="M0 0 C0.01213028 1.22362495 0.01213028 1.22362495 0.02450562 2.4719696 C0.10251045 10.16709586 0.1898188 17.86203412 0.28752708 25.5569334 C0.33743073 29.51277358 0.38376115 33.46858782 0.421875 37.42456055 C0.45880296 41.24371044 0.50518301 45.06264018 0.55806351 48.88160133 C0.57656762 50.3371678 0.59169025 51.79278138 0.60334396 53.24841881 C0.62027504 55.29043398 0.64932528 57.33194936 0.68115234 59.3737793 C0.69447601 60.53515915 0.70779968 61.696539 0.7215271 62.89311218 C1.00119422 66.01332382 1.55755794 68.22754087 3 71 C5.15824934 72.02818386 5.15824934 72.02818386 7.625 72.3125 C8.44226563 72.45300781 9.25953125 72.59351563 10.1015625 72.73828125 C11.04128906 72.86783203 11.04128906 72.86783203 12 73 C10.515 73.495 10.515 73.495 9 74 C9 82.25 9 90.5 9 99 C3.40329747 95.26886498 -1.84730451 91.67035517 -7 87.4375 C-12.37484221 83.08099855 -17.80551364 78.81324159 -23.3125 74.625 C-31.53508379 68.36815131 -39.69599039 62.03452774 -47.84375 55.68066406 C-51.56008703 52.78400825 -55.28014357 49.89213399 -59 47 C-57.68864618 43.06593853 -55.8842825 42.15499137 -52.5625 39.6875 C-51.36920555 38.79114434 -50.17653129 37.89396262 -48.984375 36.99609375 C-48.34048828 36.51382324 -47.69660156 36.03155273 -47.03320312 35.53466797 C-43.42823924 32.81363014 -39.87324563 30.02848695 -36.3125 27.25 C-34.78003871 26.05717501 -33.24748535 24.86446831 -31.71484375 23.671875 C-28.5187549 21.18328673 -25.3236693 18.69341496 -22.12890625 16.203125 C-21.33250732 15.58276367 -20.5361084 14.96240234 -19.71557617 14.32324219 C-18.20613855 13.14743327 -16.69715251 11.9710443 -15.1887207 10.79394531 C-11.65381346 8.04087927 -8.10723623 5.3035947 -4.5390625 2.59375 C-3.55607178 1.84641602 -3.55607178 1.84641602 -2.55322266 1.08398438 C-1 0 -1 0 0 0 Z " fill="#5F7C89" transform="translate(85,148)"/>
<path d="M0 0 C1.42399672 0.93869478 2.84656975 1.87954951 4.26855469 2.82128906 C5.45708038 3.60684174 5.45708038 3.60684174 6.6696167 4.40826416 C10.00611495 6.6872128 13.12697645 9.19034039 16.25 11.75 C17.56041344 12.81086557 18.87162447 13.87074663 20.18359375 14.9296875 C20.82796387 15.45014648 21.47233398 15.97060547 22.13623047 16.50683594 C25.86157749 19.4914079 29.66179954 22.3772627 33.453125 25.27734375 C38.63025575 29.24155533 43.76691406 33.25814693 48.90942383 37.26708984 C49.64185303 37.83766113 50.37428223 38.40823242 51.12890625 38.99609375 C52.10452515 39.75684204 52.10452515 39.75684204 53.09985352 40.53295898 C55.0528501 42.04080383 57.0227569 43.52413808 59 45 C57.4923068 48.85489738 55.33174453 50.4965046 52 52.875 C50.9075385 53.66876531 49.81648158 54.46446603 48.7265625 55.26171875 C47.83179199 55.91406494 47.83179199 55.91406494 46.91894531 56.57958984 C43.35471752 59.21784396 39.86917901 61.95756656 36.375 64.6875 C35.22946655 65.58045776 35.22946655 65.58045776 34.06079102 66.49145508 C31.70653323 68.32679123 29.35323496 70.16335265 27 72 C17.83230046 79.15061037 8.65556011 86.28936689 -0.5625 93.375 C-1.6618689 94.22396851 -1.6618689 94.22396851 -2.78344727 95.09008789 C-7.88415824 99 -7.88415824 99 -9 99 C-9 90.75 -9 82.5 -9 74 C-9.99 73.67 -10.98 73.34 -12 73 C-11.37351562 72.91363281 -10.74703125 72.82726562 -10.1015625 72.73828125 C-9.28429687 72.59777344 -8.46703125 72.45726562 -7.625 72.3125 C-6.81289063 72.18488281 -6.00078125 72.05726563 -5.1640625 71.92578125 C-2.81077174 71.18960231 -2.81077174 71.18960231 -1.88467407 68.85627747 C-0.86714543 65.57106292 -0.72060772 62.81297305 -0.68115234 59.3737793 C-0.67110672 58.72931351 -0.6610611 58.08484772 -0.65071106 57.42085266 C-0.61999064 55.30531652 -0.60287552 53.18990628 -0.5859375 51.07421875 C-0.56721683 49.60161769 -0.54764274 48.12902725 -0.5272522 46.65644836 C-0.47601977 42.79155758 -0.43634672 38.92663205 -0.39910889 35.06158447 C-0.3590133 31.11323515 -0.30794636 27.16502924 -0.2578125 23.21679688 C-0.16115856 15.47796314 -0.07672037 7.73905975 0 0 Z " fill="#5F7C89" transform="translate(427,148)"/>
<path d="M0 0 C0.79263748 -0.0071553 1.58527496 -0.01431061 2.40193176 -0.02168274 C5.00805228 -0.03851839 7.61244018 -0.01920046 10.21850586 0.00219727 C12.036414 0.00136817 13.85432206 -0.00109275 15.67222595 -0.00511169 C19.47605034 -0.00796606 23.27928471 0.00669741 27.08300781 0.03417969 C31.95455553 0.06828632 36.82505024 0.06223286 41.6966486 0.04351711 C45.44824476 0.03294132 49.19959652 0.04188977 52.95116997 0.05690193 C54.747281 0.06207832 56.54341761 0.06160853 58.33952522 0.05535698 C60.85060526 0.04989669 63.36018479 0.07030346 65.87109375 0.09765625 C66.61045166 0.09113037 67.34980957 0.08460449 68.11157227 0.07788086 C72.96538564 0.16763015 75.46419497 1.17631128 78.87084961 4.63110352 C80.31515816 7.51972061 80.24773467 9.42758053 79.87084961 12.63110352 C77.13270077 16.25128898 75.63921256 17.50123909 71.11425781 18.26602173 C69.63367156 18.2955714 68.15238053 18.29780537 66.67163086 18.27807617 C65.85963226 18.28683777 65.04763367 18.29559937 64.21102905 18.30462646 C61.53458772 18.32658186 58.85980689 18.31208231 56.18334961 18.29516602 C54.31916996 18.29853528 52.45499245 18.30338882 50.59082031 18.30966187 C46.68688001 18.31702794 42.78351233 18.30633636 38.87963867 18.28295898 C33.87901735 18.25447121 28.87973776 18.27087663 23.87916565 18.3008213 C20.03061845 18.31890154 16.18238862 18.31313295 12.33383179 18.30018234 C10.49026327 18.29685033 8.64666581 18.30092823 6.8031311 18.31258011 C4.22466886 18.3253011 1.64836972 18.30589646 -0.92993164 18.27807617 C-1.68956207 18.28819733 -2.4491925 18.29831848 -3.23184204 18.30874634 C-7.16593241 18.23022942 -8.96309509 17.76093362 -12.09863281 15.30941772 C-14.12915039 12.63110352 -14.12915039 12.63110352 -14.81665039 9.13110352 C-14.06052076 5.28171631 -12.99003745 4.03955512 -9.94082832 1.66325569 C-6.78494253 -0.13472083 -3.52473095 -0.05589309 0 0 Z " fill="#050401" transform="translate(270.129150390625,195.368896484375)"/>
<path d="M0 0 C2.89951111 1.64241722 5.45944827 3.61429446 8.0625 5.6875 C9.10374023 6.48317383 9.10374023 6.48317383 10.16601562 7.29492188 C14.10953163 10.34712087 17.43000243 13.43000243 21 17 C5.16 17 -10.68 17 -27 17 C-22.81415992 12.81415992 -18.73177895 9.25557482 -14.0625 5.6875 C-13.37220703 5.13771484 -12.68191406 4.58792969 -11.97070312 4.02148438 C-5.11249614 -1.21155508 -5.11249614 -1.21155508 0 0 Z " fill="#5E7A88" transform="translate(259,17)"/>
</svg>
