<?xml version="1.0" encoding="UTF-8"?>
<svg version="1.1" xmlns="http://www.w3.org/2000/svg" width="512" height="512">
<path d="M0 0 C0.81845901 -0.00705963 1.63691803 -0.01411926 2.48017883 -0.02139282 C36.63872014 -0.24916093 36.63872014 -0.24916093 52.109375 3.203125 C52.99157715 3.39116699 53.8737793 3.57920898 54.78271484 3.77294922 C81.33094811 9.57763337 106.97681909 20.36345947 129.109375 36.203125 C130.06972656 36.88890625 131.03007812 37.5746875 132.01953125 38.28125 C142.6369562 46.05896841 153.16848393 54.51129295 162.109375 64.203125 C162.63144531 64.76644531 163.15351563 65.32976562 163.69140625 65.91015625 C204.84174791 111.68629744 220.8487791 167.3485913 218.109375 228.203125 C217.66671835 235.33782672 216.67881597 242.23300217 215.109375 249.203125 C214.81135986 250.55833252 214.81135986 250.55833252 214.50732422 251.94091797 C206.84754486 285.82181468 191.88814365 316.89467328 169.109375 343.203125 C168.40425781 344.01910156 167.69914062 344.83507812 166.97265625 345.67578125 C159.16868959 354.51654061 150.88371547 362.98085157 141.90234375 370.62890625 C139.47311693 372.76175682 137.2371276 375.0628061 134.97509766 377.37011719 C133.21406798 379.10026778 131.39999846 380.7024461 129.51953125 382.30078125 C124.47168169 386.69137687 119.76503833 391.40112861 115.046875 396.140625 C114.18771484 396.99591797 113.32855469 397.85121094 112.44335938 398.73242188 C108.0575142 403.12496812 103.82276049 407.58034111 99.77856445 412.28881836 C96.8673072 415.62758801 93.78743098 418.80708748 90.734375 422.015625 C85.71093997 427.33470082 80.89153048 432.72605307 76.33203125 438.453125 C74.2333444 441.04974283 72.07106394 443.57008373 69.87719727 446.08569336 C63.09404901 453.87262099 56.81566037 461.98587949 50.60400391 470.23242188 C49.27065547 471.99047293 47.92153496 473.73360645 46.55859375 475.46875 C40.74641755 482.8885494 35.32530542 490.525479 30.01782227 498.3137207 C26.22108885 503.82958637 22.73838168 508.45045388 17.109375 512.203125 C14.40234375 512.5390625 14.40234375 512.5390625 11.296875 512.578125 C10.27980469 512.60648438 9.26273438 512.63484375 8.21484375 512.6640625 C3.43892345 511.95518376 0.57724711 509.99936955 -2.48071289 506.25732422 C-4.21931455 503.85912775 -5.87496693 501.41932238 -7.515625 498.953125 C-8.75177185 497.14177071 -9.99008486 495.33189297 -11.23046875 493.5234375 C-11.84519043 492.62399414 -12.45991211 491.72455078 -13.09326172 490.79785156 C-28.97232 467.87437541 -47.04312311 446.16516445 -65.7734375 425.53515625 C-67.15053341 424.01831813 -68.52073283 422.49518032 -69.8828125 420.96484375 C-80.06211444 409.53713685 -90.59072797 398.42020413 -101.390625 387.578125 C-102.02427979 386.93987793 -102.65793457 386.30163086 -103.31079102 385.64404297 C-107.09667241 381.87057755 -111.00047811 378.29169832 -115.0625 374.81689453 C-116.91716337 373.17969837 -118.65919048 371.4694276 -120.390625 369.703125 C-122.68077637 367.37189468 -125.02518101 365.19343936 -127.515625 363.078125 C-138.21496018 353.78605248 -147.46697022 343.57914466 -155.890625 332.203125 C-156.51324219 331.37554687 -157.13585937 330.54796875 -157.77734375 329.6953125 C-180.65152602 298.23664691 -195.73174917 258.58331545 -196.12890625 219.48828125 C-196.1387001 218.68340271 -196.14849396 217.87852417 -196.15858459 217.04925537 C-196.69209702 161.78042261 -181.11542811 110.96205718 -143.890625 69.203125 C-143.436875 68.68766113 -142.983125 68.17219727 -142.515625 67.64111328 C-120.16911426 42.30289994 -92.30590861 24.33618165 -60.890625 12.203125 C-60.14280762 11.91211914 -59.39499023 11.62111328 -58.62451172 11.32128906 C-40.13359955 4.27357439 -19.80906419 0.11442834 0 0 Z " fill="#F9F8F8" transform="translate(244.890625,-0.203125)"/>
<path d="M0 0 C0.81845901 -0.00705963 1.63691803 -0.01411926 2.48017883 -0.02139282 C36.63872014 -0.24916093 36.63872014 -0.24916093 52.109375 3.203125 C52.99157715 3.39116699 53.8737793 3.57920898 54.78271484 3.77294922 C81.33094811 9.57763337 106.97681909 20.36345947 129.109375 36.203125 C130.06972656 36.88890625 131.03007812 37.5746875 132.01953125 38.28125 C142.6369562 46.05896841 153.16848393 54.51129295 162.109375 64.203125 C162.63144531 64.76644531 163.15351563 65.32976562 163.69140625 65.91015625 C204.84174791 111.68629744 220.8487791 167.3485913 218.109375 228.203125 C217.66671835 235.33782672 216.67881597 242.23300217 215.109375 249.203125 C214.81135986 250.55833252 214.81135986 250.55833252 214.50732422 251.94091797 C206.84754486 285.82181468 191.88814365 316.89467328 169.109375 343.203125 C168.40425781 344.01910156 167.69914062 344.83507812 166.97265625 345.67578125 C159.16868959 354.51654061 150.88371547 362.98085157 141.90234375 370.62890625 C139.47311693 372.76175682 137.2371276 375.0628061 134.97509766 377.37011719 C133.21406798 379.10026778 131.39999846 380.7024461 129.51953125 382.30078125 C124.47168169 386.69137687 119.76503833 391.40112861 115.046875 396.140625 C114.18771484 396.99591797 113.32855469 397.85121094 112.44335938 398.73242188 C108.0575142 403.12496812 103.82276049 407.58034111 99.77856445 412.28881836 C96.8673072 415.62758801 93.78743098 418.80708748 90.734375 422.015625 C85.71093997 427.33470082 80.89153048 432.72605307 76.33203125 438.453125 C74.2333444 441.04974283 72.07106394 443.57008373 69.87719727 446.08569336 C63.09404901 453.87262099 56.81566037 461.98587949 50.60400391 470.23242188 C49.27065547 471.99047293 47.92153496 473.73360645 46.55859375 475.46875 C40.74641755 482.8885494 35.32530542 490.525479 30.01782227 498.3137207 C26.22108885 503.82958637 22.73838168 508.45045388 17.109375 512.203125 C14.40234375 512.5390625 14.40234375 512.5390625 11.296875 512.578125 C10.27980469 512.60648438 9.26273438 512.63484375 8.21484375 512.6640625 C3.43892345 511.95518376 0.57724711 509.99936955 -2.48071289 506.25732422 C-4.21931455 503.85912775 -5.87496693 501.41932238 -7.515625 498.953125 C-8.75177185 497.14177071 -9.99008486 495.33189297 -11.23046875 493.5234375 C-11.84519043 492.62399414 -12.45991211 491.72455078 -13.09326172 490.79785156 C-28.97232 467.87437541 -47.04312311 446.16516445 -65.7734375 425.53515625 C-67.15053341 424.01831813 -68.52073283 422.49518032 -69.8828125 420.96484375 C-80.06211444 409.53713685 -90.59072797 398.42020413 -101.390625 387.578125 C-102.02427979 386.93987793 -102.65793457 386.30163086 -103.31079102 385.64404297 C-107.09667241 381.87057755 -111.00047811 378.29169832 -115.0625 374.81689453 C-116.91716337 373.17969837 -118.65919048 371.4694276 -120.390625 369.703125 C-122.68077637 367.37189468 -125.02518101 365.19343936 -127.515625 363.078125 C-138.21496018 353.78605248 -147.46697022 343.57914466 -155.890625 332.203125 C-156.51324219 331.37554687 -157.13585937 330.54796875 -157.77734375 329.6953125 C-180.65152602 298.23664691 -195.73174917 258.58331545 -196.12890625 219.48828125 C-196.1387001 218.68340271 -196.14849396 217.87852417 -196.15858459 217.04925537 C-196.69209702 161.78042261 -181.11542811 110.96205718 -143.890625 69.203125 C-143.436875 68.68766113 -142.983125 68.17219727 -142.515625 67.64111328 C-120.16911426 42.30289994 -92.30590861 24.33618165 -60.890625 12.203125 C-60.14280762 11.91211914 -59.39499023 11.62111328 -58.62451172 11.32128906 C-40.13359955 4.27357439 -19.80906419 0.11442834 0 0 Z M-23.890625 33.203125 C-24.69661133 33.36941406 -25.50259766 33.53570312 -26.33300781 33.70703125 C-39.21334807 36.42079783 -50.95991574 40.69198519 -62.890625 46.203125 C-63.57044434 46.50557129 -64.25026367 46.80801758 -64.95068359 47.11962891 C-81.92367011 54.68871991 -97.26191021 65.66765255 -110.42138672 78.75292969 C-111.900231 80.2126065 -113.40845624 81.63514458 -114.92578125 83.0546875 C-132.41372526 99.64278554 -144.28580167 120.30432554 -153.890625 142.203125 C-154.61572266 143.85441406 -154.61572266 143.85441406 -155.35546875 145.5390625 C-172.99065281 190.27496071 -168.35113165 240.0813963 -149.5703125 283.375 C-130.86026018 325.03441934 -94.07084058 357.96842467 -51.7578125 374.45703125 C-12.75168862 388.83984374 31.01298646 389.73896177 70.109375 375.203125 C70.75197266 374.97399414 71.39457031 374.74486328 72.05664062 374.50878906 C96.41071125 365.79645539 117.48690123 351.82559877 135.70703125 333.60546875 C137.11925003 332.19324997 138.54386826 330.79292018 139.99609375 329.421875 C169.7543049 301.01924397 186.56746001 257.11548076 188.21777344 216.5378418 C188.490492 203.97155186 188.19673659 191.60957537 186.109375 179.203125 C185.98578613 178.46175293 185.86219727 177.72038086 185.73486328 176.95654297 C179.59037528 141.57173996 162.67533867 110.17759249 138.109375 84.203125 C136.91634766 82.91341797 136.91634766 82.91341797 135.69921875 81.59765625 C104.57760872 49.06782857 59.7830558 31.1387592 15.11328125 30 C1.79360499 29.83851821 -10.85937817 30.4040242 -23.890625 33.203125 Z " fill="#B20142" transform="translate(244.890625,-0.203125)"/>
<path d="M0 0 C3.71728042 3.05813379 5.57526563 6.50481041 6.3034668 11.18920898 C6.50913806 14.12948141 6.6023485 17.04905317 6.64453125 19.99609375 C6.67417969 21.01380859 6.70382813 22.03152344 6.734375 23.08007812 C6.80459798 25.57299403 6.8575277 28.06500074 6.89453125 30.55859375 C7.77189941 29.66551514 8.64926758 28.77243652 9.55322266 27.85229492 C12.8218718 24.52919378 16.10056378 21.21615523 19.38232422 17.90600586 C20.79913177 16.47414655 22.2132307 15.03960165 23.62451172 13.60229492 C25.657906 11.53235973 27.70096507 9.47239677 29.74609375 7.4140625 C30.37133942 6.77333298 30.99658508 6.13260345 31.64077759 5.47245789 C36.77604144 0.33525522 41.14379604 -2.69775226 48.671875 -2.9375 C54.59445949 -1.61558747 59.12968559 2.41815801 63.30975342 6.59286499 C63.80772753 7.08615913 64.30570164 7.57945327 64.81876588 8.08769572 C66.46934978 9.72640662 68.10911088 11.37551773 69.74902344 13.02490234 C70.93667219 14.20848204 72.12495734 15.39142343 73.31382751 16.57377625 C76.52922211 19.77553285 79.73510101 22.98665994 82.9389143 26.20000029 C86.29757234 29.56627133 89.66356401 32.92519659 93.02838135 36.28530884 C98.67585846 41.92733394 104.31699392 47.57564174 109.95458984 53.22753906 C116.4683919 59.75767442 122.99294157 66.27692153 129.52316356 72.79063356 C135.13563526 78.38948407 140.74223045 83.99416881 146.34397054 89.60375655 C149.68708493 92.95154292 153.03218118 96.29728136 156.38259125 99.63776779 C159.53144221 102.77794195 162.67284302 105.92538513 165.80868721 109.07854652 C166.95941087 110.23323083 168.11268379 111.38538116 169.26869774 112.53476906 C170.84859962 114.10644909 172.418934 115.68711953 173.98724365 117.27035522 C174.86768215 118.1519248 175.74812065 119.03349438 176.65523911 119.94177818 C180.49655623 124.43070495 182.51421193 128.52607312 182.23828125 134.5390625 C181.50873288 138.82515918 179.64708568 142.01943325 176.38671875 144.8828125 C171.8396471 147.89656929 167.2343509 148.52503277 161.89453125 147.55859375 C157.45397884 145.25292231 154.38683405 142.09191353 150.89453125 138.55859375 C150.89088562 139.72068863 150.88723999 140.88278351 150.88348389 142.08009338 C150.84651312 153.04160784 150.78871741 164.0028419 150.71062851 174.9641428 C150.67115051 180.59923516 150.63896346 186.23417117 150.62353516 191.86938477 C150.60837093 197.3095784 150.57392894 202.74934222 150.52622223 208.18934441 C150.51140613 210.26288043 150.50349011 212.33647782 150.5026474 214.4100666 C150.50027674 217.31884497 150.47318846 220.22643649 150.44042969 223.13500977 C150.44546005 223.98881226 150.45049042 224.84261475 150.45567322 225.72229004 C150.35567109 231.47648433 149.41222379 234.93197983 145.89453125 239.55859375 C139.67192939 244.72282897 133.14568824 244.10076561 125.34008789 244.01269531 C123.969615 244.01156571 122.5991397 244.0122029 121.22866821 244.01446533 C117.52444102 244.01560902 113.82073608 243.9921565 110.11662984 243.9641695 C106.2395999 243.93909772 102.36255687 243.93680931 98.48545837 243.93206787 C91.15092969 243.91965499 83.81664061 243.88685645 76.48221725 243.84666991 C68.12916432 243.80189946 59.77609971 243.77995194 51.42295659 243.75988817 C34.24667641 243.71812215 17.0706292 243.64780318 -0.10546875 243.55859375 C-0.19826514 232.85770753 -0.26928274 222.15691749 -0.31271744 211.45571041 C-0.33356696 206.48636063 -0.36183649 201.51728673 -0.40722656 196.5480957 C-0.45077827 191.74998333 -0.47462568 186.95213584 -0.48497772 182.15384102 C-0.49235236 180.3258402 -0.50675341 178.4978534 -0.52838898 176.66996574 C-0.55754731 174.10379913 -0.56141963 171.53871849 -0.55957031 168.97241211 C-0.57395142 168.22146774 -0.58833252 167.47052338 -0.60314941 166.69682312 C-0.56073229 161.23526891 0.76701954 158.05712246 3.89453125 153.55859375 C8.7686548 149.53417095 13.28872365 148.99858188 19.453125 149.16796875 C20.63685448 149.17645844 20.63685448 149.17645844 21.84449768 149.18511963 C24.34098499 149.20733689 26.835985 149.25750156 29.33203125 149.30859375 C31.03448434 149.32867787 32.73696014 149.34692528 34.43945312 149.36328125 C38.59216615 149.40373632 42.74170349 149.48204393 46.89453125 149.55859375 C46.89453125 140.97859375 46.89453125 132.39859375 46.89453125 123.55859375 C56.51953125 123.24609375 56.51953125 123.24609375 59.51806641 123.1706543 C64.66647103 122.95678788 68.44348924 122.41544322 72.89453125 119.55859375 C76.69428746 115.36575931 77.25204516 111.32204438 77.171875 105.84375 C76.732209 102.22114982 75.31244766 100.23102767 72.89453125 97.55859375 C65.02602189 93.12185149 65.02602189 93.12185149 46.89453125 93.55859375 C46.56453125 74.41859375 46.23453125 55.27859375 45.89453125 35.55859375 C42.62401855 38.84481689 39.35350586 42.13104004 35.98388672 45.5168457 C25.18609654 56.36430921 14.38012461 67.20359317 3.56989861 78.03866291 C-2.98516578 84.60919298 -9.53739404 91.18250516 -16.08300781 97.76245117 C-21.78848945 103.49784418 -27.49923349 109.22793567 -33.21634567 114.95173615 C-36.24303216 117.98233192 -39.26702665 121.01550778 -42.28473282 124.05504799 C-45.12635704 126.91706468 -47.97497582 129.77192897 -50.82906532 132.62151337 C-51.8741235 133.6673955 -52.9166218 134.71584289 -53.95631599 135.76705742 C-55.3791827 137.20491011 -56.81231002 138.63258726 -58.24588013 140.05976868 C-59.04415285 140.86080678 -59.84242558 141.66184488 -60.66488838 142.48715687 C-65.01728477 146.18124313 -69.20567981 148.21798983 -75.015625 147.97265625 C-80.26146994 146.93329258 -84.05619659 144.03413273 -87.10546875 139.74609375 C-88.87716901 134.09879916 -89.07353324 130.47965064 -86.44035339 125.25428772 C-84.28166108 121.56240712 -81.53041701 118.90916302 -78.2512207 116.20483398 C-77.06086031 115.18751468 -75.87155768 114.16895674 -74.6831665 113.14933777 C-74.05755074 112.61691153 -73.43193497 112.08448528 -72.78736115 111.53592491 C-38.69998939 84.50469042 -38.69998939 84.50469042 -21.12109375 46.890625 C-20.42440943 36.6315742 -21.24215899 26.17239063 -23.20501709 16.07795715 C-24.05333712 11.58093216 -24.58709175 8.60921633 -22.30175781 4.50463867 C-16.32056632 -3.51837576 -8.83914035 -4.05052256 0 0 Z " fill="#FEB354" transform="translate(209.10546875,83.44140625)"/>
<path d="M0 0 C11.2675737 0 11.2675737 0 15.515625 0.55078125 C16.44914795 0.6703418 17.3826709 0.78990234 18.34448242 0.91308594 C19.30330322 1.04489258 20.26212402 1.17669922 21.25 1.3125 C22.26360596 1.45075195 23.27721191 1.58900391 24.3215332 1.73144531 C69.76639919 8.10381493 112.38878943 31.93745787 140.29638672 68.81811523 C168.98465963 107.83348361 182.453893 155.23641516 175.26953125 203.42871094 C169.6270579 238.88652643 154.7805502 270.19353966 131 297 C129.9351768 298.28975214 128.87222226 299.58105342 127.8125 300.875 C124.5512301 304.6536385 120.81537509 307.79688949 117 311 C116.113125 311.77472656 115.22625 312.54945313 114.3125 313.34765625 C95.55494154 329.48614073 73.54983787 340.67941304 50 348 C49.22938232 348.25563721 48.45876465 348.51127441 47.66479492 348.7746582 C40.77108884 350.99031806 33.84386587 352.15250505 26.6875 353.1875 C24.9869043 353.45336914 24.9869043 353.45336914 23.25195312 353.72460938 C22.12080078 353.89154297 20.98964844 354.05847656 19.82421875 354.23046875 C18.32507935 354.45319458 18.32507935 354.45319458 16.7956543 354.68041992 C11.21583229 355.15022033 5.59956481 355 0 355 C0 335.86 0 316.72 0 297 C6.56003906 296.97421875 13.12007813 296.9484375 19.87890625 296.921875 C24.03975241 296.89670259 28.20052617 296.87036663 32.36132812 296.83984375 C38.96264911 296.79152835 45.56380246 296.74747626 52.1652832 296.72900391 C57.48877192 296.71383779 62.81182156 296.6793925 68.13511467 296.63169098 C70.16399248 296.61687682 72.19293298 296.60895897 74.2218647 296.60811615 C77.06838682 296.60574489 79.91369711 296.57865208 82.76000977 296.54589844 C83.59511078 296.5509288 84.43021179 296.55595917 85.2906189 296.56114197 C90.97626848 296.46020939 94.41460362 295.4514041 99 292 C102.51118682 287.10691348 102.44197204 282.39563075 102.43237305 276.59814453 C102.4425647 275.67067917 102.45275635 274.74321381 102.46325684 273.78764343 C102.49334114 270.7359713 102.50264591 267.68461333 102.51171875 264.6328125 C102.52856879 262.51145386 102.54671947 260.39010519 102.56611633 258.26876831 C102.61358693 252.69575107 102.64341545 247.12277425 102.66955566 241.54962158 C102.6993759 235.85852072 102.74590126 230.16755904 102.79101562 224.4765625 C102.87701538 213.31778118 102.9443756 202.15897119 103 191 C103.47775879 191.41137207 103.95551758 191.82274414 104.44775391 192.24658203 C105.07601074 192.78653809 105.70426758 193.32649414 106.3515625 193.8828125 C106.97369629 194.41793457 107.59583008 194.95305664 108.23681641 195.50439453 C112.70259617 199.29245418 115.88572739 200.57125545 121.71875 200.34765625 C125.65276419 199.74812327 127.80977407 198.4245717 131 196 C133.69660295 192.17256355 134.34743374 188.8905805 134.49609375 184.22265625 C133.1787885 178.32071384 129.16470189 173.78913933 125.00369263 169.6227417 C124.51448204 169.12885114 124.02527145 168.63496058 123.5212363 168.12610364 C121.89634354 166.48933943 120.2610543 164.86339801 118.62548828 163.23730469 C117.4517607 162.05950798 116.27867142 160.8810749 115.10617065 159.70205688 C111.93127207 156.51352115 108.74700465 153.33450072 105.56052256 150.15754604 C102.2222785 146.82691542 98.89138076 143.48895073 95.55929565 140.15216064 C89.96434884 134.55176196 84.36311988 128.95770487 78.75830078 123.3671875 C72.28269678 116.90791683 65.81798169 110.43789907 59.35880101 103.96220851 C53.80665933 98.39644535 48.24868325 92.83655924 42.68580425 87.28152776 C39.36596353 83.96635886 36.04817064 80.64920878 32.73563004 77.32674408 C29.62172064 74.20415745 26.50054216 71.08902254 23.37364578 67.9794426 C22.22863695 66.83839418 21.0861616 65.69479686 19.94644928 64.5484581 C18.38790605 62.98169211 16.82037332 61.42449743 15.25027466 59.86932373 C14.37607943 58.99625957 13.50188419 58.12319542 12.6011982 57.22367477 C8.67455983 53.86692683 4.98941315 52.24735329 0 51 C0 34.17 0 17.34 0 0 Z " fill="#E1DEF3" transform="translate(256,30)"/>
<path d="M0 0 C4.6715625 0.0309375 4.6715625 0.0309375 9.4375 0.0625 C9.4375 9.9625 9.4375 19.8625 9.4375 30.0625 C5.993125 30.330625 2.54875 30.59875 -1 30.875 C-43.60893726 34.48771283 -81.26873863 50.744703 -112.5625 80.0625 C-113.51253906 80.94679688 -114.46257812 81.83109375 -115.44140625 82.7421875 C-132.97428232 99.43495858 -144.91220805 120.06003302 -154.5625 142.0625 C-155.28759766 143.71378906 -155.28759766 143.71378906 -156.02734375 145.3984375 C-173.66252781 190.13433571 -169.02300665 239.9407713 -150.2421875 283.234375 C-131.67542819 324.57474104 -95.41677361 356.95481324 -53.4296875 373.31640625 C-32.89012741 380.89000271 -12.31858935 383.50849362 9.4375 385.0625 C9.4375 426.9725 9.4375 468.8825 9.4375 512.0625 C3.08516092 512.0625 2.04351668 511.96991775 -2.5625 508.0625 C-4.97378751 505.11093014 -7.07765388 501.98396946 -9.1875 498.8125 C-10.42364685 497.00114571 -11.66195986 495.19126797 -12.90234375 493.3828125 C-13.51706543 492.48336914 -14.13178711 491.58392578 -14.76513672 490.65722656 C-30.644195 467.73375041 -48.71499811 446.02453945 -67.4453125 425.39453125 C-68.82240841 423.87769313 -70.19260783 422.35455532 -71.5546875 420.82421875 C-81.73398944 409.39651185 -92.26260297 398.27957913 -103.0625 387.4375 C-103.69615479 386.79925293 -104.32980957 386.16100586 -104.98266602 385.50341797 C-108.76854741 381.72995255 -112.67235311 378.15107332 -116.734375 374.67626953 C-118.58903837 373.03907337 -120.33106548 371.3288026 -122.0625 369.5625 C-124.35265137 367.23126968 -126.69705601 365.05281436 -129.1875 362.9375 C-139.88683518 353.64542748 -149.13884522 343.43851966 -157.5625 332.0625 C-158.18511719 331.23492187 -158.80773437 330.40734375 -159.44921875 329.5546875 C-182.32340102 298.09602191 -197.40362417 258.44269045 -197.80078125 219.34765625 C-197.8105751 218.54277771 -197.82036896 217.73789917 -197.83045959 216.90863037 C-198.36397202 161.63979761 -182.78730311 110.82143218 -145.5625 69.0625 C-145.10875 68.54703613 -144.655 68.03157227 -144.1875 67.50048828 C-121.84098926 42.16227494 -93.97778361 24.19555665 -62.5625 12.0625 C-61.81468262 11.77149414 -61.06686523 11.48048828 -60.29638672 11.18066406 C-41.22155295 3.91039072 -20.41636255 -0.19317165 0 0 Z " fill="#FE405C" transform="translate(246.5625,-0.0625)"/>
<path d="M0 0 C0 19.47 0 38.94 0 59 C6.6 59 13.2 59 20 59 C25.61138848 61.80569424 28.26353952 63.52707905 31 69 C31.59106487 74.68331608 31.27243416 79.14777003 28 84 C23.89735276 87.79494869 20.87232107 89.13294472 15.33203125 89.09765625 C14.52741455 89.09515869 13.72279785 89.09266113 12.89379883 89.09008789 C11.36855591 89.07643188 11.36855591 89.07643188 9.8125 89.0625 C4.9553125 89.0315625 4.9553125 89.0315625 0 89 C0 97.58 0 106.16 0 115 C-2.51753906 115.02578125 -5.03507812 115.0515625 -7.62890625 115.078125 C-10.08482734 115.11660992 -12.54054303 115.16174912 -14.99633789 115.20751953 C-16.69447922 115.23563071 -18.39274901 115.25689402 -20.09106445 115.27099609 C-22.54184257 115.29256352 -24.99109236 115.33928006 -27.44140625 115.390625 C-28.56839684 115.39246796 -28.56839684 115.39246796 -29.71815491 115.39434814 C-35.21103759 115.54473602 -38.55149715 116.70246501 -43 120 C-45.9915951 124.70641986 -46.44272779 128.85598732 -46.43237305 134.30029297 C-46.4425647 135.11071548 -46.45275635 135.921138 -46.46325684 136.75611877 C-46.49330077 139.41821279 -46.5026395 142.07994647 -46.51171875 144.7421875 C-46.52857183 146.59450468 -46.54672292 148.44681046 -46.56611633 150.29910278 C-46.61355414 155.1619104 -46.64340373 160.02467181 -46.66955566 164.88763428 C-46.69939257 169.85486982 -46.74591216 174.82194628 -46.79101562 179.7890625 C-46.87697798 189.52595835 -46.94435471 199.26288699 -47 209 C-53.28037616 209.10175694 -59.56053824 209.17161462 -65.84155273 209.21972656 C-67.97639918 209.23979182 -70.111191 209.26705058 -72.24584961 209.30175781 C-75.32158925 209.35049943 -78.39659969 209.37302006 -81.47265625 209.390625 C-82.42084732 209.41127014 -83.36903839 209.43191528 -84.34596252 209.45318604 C-90.43788491 209.45523013 -94.17947656 208.85946369 -99 205 C-102.18976232 200.05930263 -103.88406587 194.70049505 -105.07275391 188.98974609 C-105.23486579 188.22378837 -105.39697767 187.45783064 -105.56400204 186.66866207 C-107.64294761 176.32079973 -108.81911725 165.89197308 -109.625 155.375 C-109.70660748 154.34509319 -109.78821495 153.31518639 -109.87229538 152.25407028 C-111.88097408 123.54836072 -105.59353371 101.81900596 -86.88183594 80.24835205 C-75.91457779 67.87899928 -64.13451338 56.34308835 -52.0625 45.0625 C-51.45430955 44.49315452 -50.8461191 43.92380903 -50.21949863 43.33721066 C-3.86600503 0 -3.86600503 0 0 0 Z " fill="#FEDC54" transform="translate(256,118)"/>
<path d="M0 0 C3.71728042 3.05813379 5.57526563 6.50481041 6.3034668 11.18920898 C6.50913806 14.12948141 6.6023485 17.04905317 6.64453125 19.99609375 C6.67417969 21.01380859 6.70382813 22.03152344 6.734375 23.08007812 C6.80459798 25.57299403 6.8575277 28.06500074 6.89453125 30.55859375 C7.77189941 29.66551514 8.64926758 28.77243652 9.55322266 27.85229492 C12.8218718 24.52919378 16.10056378 21.21615523 19.38232422 17.90600586 C20.79913177 16.47414655 22.2132307 15.03960165 23.62451172 13.60229492 C25.657906 11.53235973 27.70096507 9.47239677 29.74609375 7.4140625 C30.37133942 6.77333298 30.99658508 6.13260345 31.64077759 5.47245789 C36.77604144 0.33525522 41.14379604 -2.69775226 48.671875 -2.9375 C54.59445949 -1.61558747 59.12968559 2.41815801 63.30975342 6.59286499 C63.80772753 7.08615913 64.30570164 7.57945327 64.81876588 8.08769572 C66.46934978 9.72640662 68.10911088 11.37551773 69.74902344 13.02490234 C70.93667219 14.20848204 72.12495734 15.39142343 73.31382751 16.57377625 C76.52922211 19.77553285 79.73510101 22.98665994 82.9389143 26.20000029 C86.29757234 29.56627133 89.66356401 32.92519659 93.02838135 36.28530884 C98.67585846 41.92733394 104.31699392 47.57564174 109.95458984 53.22753906 C116.4683919 59.75767442 122.99294157 66.27692153 129.52316356 72.79063356 C135.13563526 78.38948407 140.74223045 83.99416881 146.34397054 89.60375655 C149.68708493 92.95154292 153.03218118 96.29728136 156.38259125 99.63776779 C159.53144221 102.77794195 162.67284302 105.92538513 165.80868721 109.07854652 C166.95941087 110.23323083 168.11268379 111.38538116 169.26869774 112.53476906 C170.84859962 114.10644909 172.418934 115.68711953 173.98724365 117.27035522 C174.86768215 118.1519248 175.74812065 119.03349438 176.65523911 119.94177818 C180.49655623 124.43070495 182.51421193 128.52607312 182.23828125 134.5390625 C181.50873288 138.82515918 179.64708568 142.01943325 176.38671875 144.8828125 C172.46247634 147.48376387 168.84931707 148.02164277 164.203125 148.08984375 C158.87444075 146.86361523 154.83440874 142.74774834 151.07290649 138.97747803 C150.15592987 138.06325073 149.23895325 137.14902344 148.29418945 136.20709229 C147.29580474 135.20163112 146.29751693 134.19607372 145.29931641 133.19042969 C144.2348354 132.12538398 143.16991269 131.06077957 142.10458374 129.99658203 C139.22450307 127.11707357 136.35061689 124.23145447 133.47782564 121.34467602 C130.47052882 118.32484978 127.45754135 115.31071212 124.44515991 112.29595947 C118.74645059 106.59104188 113.05285738 100.88104667 107.36109674 95.16919732 C100.87894722 88.66466849 94.39109623 82.16583926 87.90276647 75.66747618 C74.56034623 62.30416873 61.22508193 48.93374115 47.89453125 35.55859375 C44.35372384 37.06745771 42.09245126 39.12041559 39.39175415 41.84104919 C38.49461197 42.73977753 37.59746979 43.63850586 36.67314148 44.56446838 C35.68647262 45.56299947 34.69988792 46.56161372 33.71337891 47.56030273 C32.66880338 48.61035496 31.62376286 49.6599448 30.57829285 50.70910645 C28.32904927 52.96805709 26.08290284 55.23002758 23.83903885 57.49432182 C20.28925874 61.07593086 16.73131694 64.64935583 13.17196655 68.22145081 C4.33163968 77.09585622 -4.49938133 85.97950669 -13.32550049 94.86804199 C-20.18370967 101.77472457 -27.0450872 108.67818355 -33.91709292 115.57114273 C-37.45433202 119.11989335 -40.98451596 122.67547076 -44.50954795 126.23634517 C-46.70661283 128.45263358 -48.90993992 130.66261359 -51.11504173 132.87090302 C-52.13432478 133.89419724 -53.1510275 134.92006936 -54.16489983 135.94872475 C-55.55249756 137.35581599 -56.95039078 138.75273193 -58.34872437 140.14915466 C-59.12705313 140.93284644 -59.90538189 141.71653822 -60.70729637 142.52397823 C-65.04117587 146.20085257 -69.2347849 148.21676082 -75.015625 147.97265625 C-80.26146994 146.93329258 -84.05619659 144.03413273 -87.10546875 139.74609375 C-88.87716901 134.09879916 -89.07353324 130.47965064 -86.44035339 125.25428772 C-84.28166108 121.56240712 -81.53041701 118.90916302 -78.2512207 116.20483398 C-77.06086031 115.18751468 -75.87155768 114.16895674 -74.6831665 113.14933777 C-74.05755074 112.61691153 -73.43193497 112.08448528 -72.78736115 111.53592491 C-38.69998939 84.50469042 -38.69998939 84.50469042 -21.12109375 46.890625 C-20.42440943 36.6315742 -21.24215899 26.17239063 -23.20501709 16.07795715 C-24.05333712 11.58093216 -24.58709175 8.60921633 -22.30175781 4.50463867 C-16.32056632 -3.51837576 -8.83914035 -4.05052256 0 0 Z " fill="#FE425D" transform="translate(209.10546875,83.44140625)"/>
<path d="M0 0 C0.69364151 -0.00540298 1.38728302 -0.01080597 2.10194397 -0.01637268 C4.37301567 -0.02878308 6.64280044 -0.01242398 8.91381836 0.00561523 C10.50369839 0.00546008 12.09357879 0.00396843 13.68345642 0.00120544 C17.00626462 -0.00017503 20.32863932 0.01232142 23.65136719 0.03515625 C27.90051851 0.06356334 32.14895149 0.06079271 36.39815617 0.04806614 C39.67795397 0.0410967 42.95758705 0.04891222 46.23736382 0.06132317 C47.80378016 0.06582376 49.37021427 0.06618668 50.93663216 0.06225777 C53.12869389 0.0593324 55.31978058 0.07591314 57.51171875 0.09765625 C59.37867149 0.10576073 59.37867149 0.10576073 61.28334045 0.11402893 C66.35176351 0.69062205 69.59470257 2.28671328 73.00366211 6.06420898 C75.91610239 10.27106717 75.82769676 13.45335911 75.8046875 18.43969727 C75.80480803 19.27256193 75.80492857 20.1054266 75.80505276 20.96352959 C75.80430484 23.66638714 75.79668207 26.36917622 75.78881836 29.07202148 C75.78734857 30.73795539 75.78632809 32.40388976 75.7857666 34.06982422 C75.78051805 40.2554595 75.76655691 46.44108491 75.75366211 52.62670898 C75.73303711 66.44545898 75.71241211 80.26420898 75.69116211 94.50170898 C44.67116211 94.50170898 13.65116211 94.50170898 -18.30883789 94.50170898 C-18.39133789 80.95108398 -18.47383789 67.40045898 -18.55883789 53.43920898 C-18.61346191 47.03502563 -18.61346191 47.03502563 -18.66918945 40.50146484 C-18.68725586 35.26452637 -18.68725586 35.26452637 -18.69061279 32.80836487 C-18.6967318 31.10279663 -18.71075184 29.39724507 -18.73114014 27.69178772 C-18.76056665 25.09939791 -18.76445722 22.50805999 -18.76293945 19.91552734 C-18.77733189 19.16314002 -18.79172432 18.4107527 -18.80655289 17.63556576 C-18.76601571 12.4374188 -17.74799197 8.50622248 -14.30883789 4.50170898 C-9.86767787 0.79964703 -5.76905578 0.00076972 0 0 Z " fill="#08475E" transform="translate(227.308837890625,232.498291015625)"/>
<path d="M0 0 C5.22450993 0.42325512 7.94349063 1.18897915 11.70973206 4.84480286 C12.56533281 5.66317438 13.42093357 6.48154591 14.30246162 7.32471657 C15.19264929 8.2075601 16.08283695 9.09040363 17 10 C17.89883345 10.87330145 18.79766689 11.7466029 19.72373772 12.64636803 C22.71693875 15.57272886 25.68292424 18.52467506 28.64428711 21.4831543 C29.77369864 22.60792447 30.9033023 23.73250176 32.03308105 24.85690308 C35.07020742 27.88104576 38.10411411 30.90839712 41.13699031 33.93680167 C43.03518039 35.83204322 44.93394855 37.72670379 46.83288765 39.62119484 C52.78478777 45.55946834 58.73471867 51.49970431 64.68174928 57.44285458 C71.52947924 64.28609015 78.38372839 71.12270737 85.24363321 77.95373791 C90.56293786 83.2514317 95.8764692 88.55487083 101.18564802 93.8627122 C104.35048209 97.02649951 107.51768731 100.18782182 110.69093132 103.34317589 C113.6697211 106.30549136 116.64127391 109.27487923 119.60744476 112.24982834 C120.69526851 113.3384223 121.78565205 114.42446532 122.87879372 115.50771904 C124.37314827 116.98934679 125.85790416 118.4799905 127.34068298 119.97319031 C128.17297896 120.80401973 129.00527494 121.63484915 129.86279202 122.49085522 C133.64897216 126.93594163 135.61611908 131.04509265 135.34375 136.98046875 C134.61420163 141.26656543 132.75255443 144.4608395 129.4921875 147.32421875 C125.56794509 149.92517012 121.95478582 150.46304902 117.30859375 150.53125 C112.06722053 149.32511335 107.96499312 145.23307145 104.14041138 141.62989807 C103.2150206 140.76072754 102.28962982 139.89155701 101.3361969 138.99604797 C100.32823142 138.04000608 99.32050308 137.0837141 98.31298828 136.12719727 C97.23834466 135.11263601 96.16357837 134.09820467 95.08869934 133.08389282 C85.26530741 123.7948678 75.55314302 114.38966915 65.87170601 104.95301914 C59.37807394 98.62742276 52.85449183 92.34093355 46.24023438 86.14135742 C40.44898144 80.7131203 34.72894545 75.22007711 29.0805701 69.64318508 C26.09831859 66.70293163 23.0944723 63.80162894 20.00296402 60.97610664 C9.29935546 51.15832474 -0.396822 42.24459155 -1.45025635 27.0619812 C-1.83222164 17.99826784 -1.13764164 8.98809798 0 0 Z " fill="#B20142" transform="translate(256,81)"/>
<path d="M0 0 C0 31.02 0 62.04 0 94 C-15.51 94 -31.02 94 -47 94 C-47.16043524 73.56678991 -47.16043524 73.56678991 -47.1953125 64.83789062 C-47.21919768 58.88828207 -47.24741405 52.93892043 -47.30175781 46.98950195 C-47.34530952 42.19138958 -47.36915693 37.39354209 -47.37950897 32.59524727 C-47.38688361 30.76724645 -47.40128466 28.93925965 -47.42292023 27.11137199 C-47.45207856 24.54520538 -47.45595088 21.98012474 -47.45410156 19.41381836 C-47.46848267 18.66287399 -47.48286377 17.91192963 -47.49768066 17.13822937 C-47.45509475 11.65494169 -46.308615 8.42793712 -43 4 C-36 0 -36 0 0 0 Z " fill="#0A789A" transform="translate(256,233)"/>
<path d="M0 0 C0.86370712 -0.00145523 1.72741425 -0.00291046 2.61729431 -0.00440979 C4.43345533 -0.00275796 6.24963139 0.00872261 8.06567383 0.02954102 C10.83540616 0.05854728 13.60322714 0.05012475 16.37304688 0.03710938 C18.14454049 0.04334636 19.9160281 0.05173699 21.6875 0.0625 C22.50952408 0.05956436 23.33154816 0.05662872 24.17848206 0.05360413 C29.10550029 0.13395449 32.50395271 0.78741255 36.77734375 3.49609375 C41.01195843 8.18850461 42.08147435 10.99905365 41.9921875 17.1796875 C41.55654002 21.87675945 39.67427585 24.66643156 36.27734375 27.80859375 C31.6872194 30.90692769 27.32745642 30.68721385 21.98046875 30.734375 C21.11347351 30.74244675 20.24647827 30.75051849 19.35321045 30.75883484 C17.51739494 30.77266316 15.68155385 30.78339092 13.84570312 30.79125977 C11.05158112 30.80844468 8.25865131 30.85233787 5.46484375 30.89648438 C3.67839409 30.90661439 1.8919344 30.91512953 0.10546875 30.921875 C-0.72394226 30.93938309 -1.55335327 30.95689117 -2.40789795 30.97492981 C-8.16511516 30.95362607 -11.47717148 29.78914579 -16.22265625 26.49609375 C-19.06161339 23.04523106 -20.10803149 19.31279514 -20.72265625 14.93359375 C-20.1207923 10.79577908 -19.09748093 7.58707066 -16.22265625 4.49609375 C-10.65957659 0.6773772 -6.67129324 -0.09139656 0 0 Z " fill="#ACCEFD" transform="translate(245.22265625,176.50390625)"/>
<path d="M0 0 C4.96507737 4.0846719 6.79669307 10.08163629 7.71899414 16.23828125 C8.34653419 24.00304343 7.97111997 30.17764173 3.046875 36.51074219 C-4.75008205 45.66858788 -13.82290155 53.92939963 -23.10546875 61.55859375 C-23.43546875 61.55859375 -23.76546875 61.55859375 -24.10546875 61.55859375 C-24.20710482 54.13887261 -24.2770337 46.71933183 -24.32519531 39.29907227 C-24.34527838 36.77621756 -24.37255032 34.25340922 -24.40722656 31.73071289 C-24.45588788 28.09900452 -24.4784714 24.46791304 -24.49609375 20.8359375 C-24.51673889 19.7127562 -24.53738403 18.58957489 -24.55865479 17.43235779 C-24.56051774 10.89268287 -24.01276096 6.87408856 -20.10546875 1.55859375 C-14.02480529 -4.09684848 -7.08748902 -3.24783102 0 0 Z " fill="#B10142" transform="translate(209.10546875,83.44140625)"/>
<path d="M0 0 C3.155625 0.0825 6.31125 0.165 9.5625 0.25 C9.5625 10.15 9.5625 20.05 9.5625 30.25 C6.406875 30.3325 3.25125 30.415 0 30.5 C-1.4706189 30.55462402 -1.4706189 30.55462402 -2.97094727 30.61035156 C-9.01630571 30.68635526 -12.54624526 29.87385931 -17.4375 26.25 C-20.27645714 22.79913731 -21.32287524 19.06670139 -21.9375 14.6875 C-21.33563605 10.54968533 -20.31232468 7.34097691 -17.4375 4.25 C-11.61298748 -0.00462438 -7.0695072 -0.26258668 0 0 Z " fill="#BCFAFD" transform="translate(246.4375,176.75)"/>
</svg>
