<?xml version="1.0" encoding="UTF-8"?>
<svg version="1.1" xmlns="http://www.w3.org/2000/svg" width="512" height="512">
<path d="M0 0 C1.06884682 -0.00744736 1.06884682 -0.00744736 2.1592865 -0.01504517 C4.51660123 -0.02964949 6.87384864 -0.03646622 9.23120117 -0.04199219 C10.871638 -0.04774549 12.5120748 -0.0535032 14.1525116 -0.05926514 C17.59321404 -0.06977049 21.03389315 -0.07561606 24.47460938 -0.07910156 C28.87624608 -0.08458242 33.27757284 -0.10860352 37.67911243 -0.13707352 C41.06866853 -0.15572927 44.45815043 -0.16090708 47.84775352 -0.16243744 C49.47001526 -0.16545835 51.09227586 -0.17346792 52.71448708 -0.18662262 C54.98828082 -0.20374346 57.26132359 -0.20178843 59.53515625 -0.1953125 C60.82738602 -0.19895813 62.11961578 -0.20260376 63.45100403 -0.20635986 C68.91247522 0.36534098 72.81927181 2.41468122 76.27416992 6.66113281 C76.76530273 7.24894531 77.25643555 7.83675781 77.76245117 8.44238281 C80.44273376 12.28383017 80.09730198 16.27780402 80.07519531 20.75366211 C80.07534134 21.52463226 80.07548737 22.29560242 80.07563782 23.0899353 C80.07494111 25.638436 80.06716002 28.18686363 80.05932617 30.73535156 C80.05746113 32.50226298 80.05603763 34.26917492 80.05503845 36.03608704 C80.05122004 40.68691434 80.0413955 45.33771042 80.03033447 49.98852539 C80.02010584 54.73420794 80.01553771 59.47989554 80.01049805 64.22558594 C79.99977265 73.53744861 79.98270431 82.84928812 79.96166992 92.16113281 C80.88527754 92.15744564 81.80888515 92.15375847 82.76048088 92.14995956 C105.25426756 92.06108384 127.74803141 91.99539303 150.24195671 91.95388412 C161.11994551 91.93327617 171.99781817 91.90518928 182.87573242 91.859375 C192.35909579 91.81945322 201.84237503 91.79368716 211.32582009 91.78477883 C216.34528846 91.77957315 221.36451621 91.76737463 226.38390732 91.73821259 C231.113338 91.71095912 235.84243009 91.70270784 240.57193184 91.70870209 C242.30286184 91.70760628 244.03380377 91.69971174 245.7646656 91.68431091 C258.59591814 91.57579072 268.32301505 92.79311448 277.98120117 101.93847656 C283.53759602 108.17435165 286.081011 114.49688672 286.095891 122.77912331 C286.10034884 123.93044105 286.10480669 125.0817588 286.10939962 126.26796496 C286.10912307 128.16627552 286.10912307 128.16627552 286.10884094 130.10293579 C286.11214084 131.46044627 286.11586668 132.81795578 286.11998242 134.17546403 C286.12999621 137.90964135 286.13371821 141.6438026 286.13637173 145.37799144 C286.14027663 149.40406015 286.14985484 153.43011616 286.15858459 157.45617676 C286.17834373 167.18100172 286.1884145 176.90582772 286.19731238 186.63066775 C286.20169617 191.21088546 286.20706275 195.79110202 286.21230125 200.37131882 C286.22931295 215.59804609 286.243807 230.82477264 286.25105 246.05150795 C286.25295987 250.00260036 286.25488021 253.95369277 286.25683594 257.90478516 C286.25731968 258.88680292 286.25780342 259.86882068 286.25830182 260.88059656 C286.26660168 276.78774423 286.29193812 292.6948167 286.32441662 308.60193153 C286.35749341 324.9353072 286.37549932 341.26864466 286.37869424 357.602054 C286.38085875 366.77189636 286.38959888 375.94162904 286.41515541 385.11143875 C286.43687087 392.92106333 286.44490867 400.73055158 286.43518863 408.54020293 C286.43064637 412.52325028 286.43252562 416.50601641 286.45195007 420.48902512 C286.46960022 424.13981663 286.46856945 427.79012216 286.45305278 431.44091897 C286.44956047 433.37791471 286.46568924 435.31491566 286.48265725 437.25184023 C286.40615561 447.65573204 284.11026937 455.76357571 276.88354492 463.40722656 C267.79819659 471.69853023 258.72723436 472.46110955 246.85375977 472.4675293 C245.54403702 472.47585281 244.23431427 472.48417633 242.88490295 472.49275208 C239.30864079 472.51459964 235.73246405 472.52348169 232.15614271 472.52857852 C229.91996858 472.53223087 227.68381657 472.53847518 225.44765091 472.54557991 C217.6417671 472.57003161 209.83594944 472.58311894 202.0300293 472.58666992 C194.75949114 472.59031138 187.48937348 472.62026085 180.21896398 472.66207451 C173.96825096 472.69676089 167.71767762 472.712218 161.466869 472.71291596 C157.73700714 472.71370875 154.00757512 472.72244917 150.27781296 472.75091362 C146.12183565 472.78192704 141.96686503 472.77304284 137.81079102 472.76049805 C135.96072701 472.78274948 135.96072701 472.78274948 134.07328796 472.80545044 C124.79912101 472.72550677 124.79912101 472.72550677 121.65859985 469.74867249 C119.96166992 467.16113281 119.96166992 467.16113281 119.96166992 465.16113281 C114.35166992 465.16113281 108.74166992 465.16113281 102.96166992 465.16113281 C102.63166992 466.48113281 102.30166992 467.80113281 101.96166992 469.16113281 C100.31803954 471.43273431 99.46921592 472.07740097 96.68223369 472.5371803 C95.32882387 472.53791089 95.32882387 472.53791089 93.94807243 472.53865623 C92.9061143 472.54647948 91.86415617 472.55430272 90.79062355 472.56236303 C89.64210761 472.55567086 88.49359167 472.5489787 87.31027222 472.54208374 C85.48447921 472.5491037 85.48447921 472.5491037 83.6218015 472.55626547 C80.23670892 472.56618516 76.85211328 472.56258267 73.46705055 472.55330682 C69.81861761 472.54653657 66.17022902 472.55698776 62.52180481 472.56524658 C55.37031042 472.57861022 48.21891032 472.57569381 41.06741218 472.56700866 C35.25328852 472.56023967 29.43919132 472.559312 23.62506485 472.56258011 C22.3848228 472.56326966 22.3848228 472.56326966 21.11952535 472.56397314 C19.43987853 472.5649323 17.76023171 472.56590494 16.0805849 472.56689091 C0.31562663 472.57545333 -15.44927939 472.565599 -31.21422909 472.54948981 C-44.73537493 472.53610074 -58.25644346 472.53840141 -71.77758789 472.55224609 C-87.47596856 472.56831258 -103.17430329 472.57461358 -118.87269104 472.5654093 C-120.54807082 472.56445366 -122.22345061 472.56351055 -123.89883041 472.56258011 C-124.72314801 472.56211728 -125.54746561 472.56165446 -126.39676253 472.5611776 C-132.19947772 472.55858981 -138.00216375 472.5629545 -143.80487442 472.57001877 C-150.88332828 472.57844649 -157.96168237 472.57612757 -165.04012485 472.56017654 C-168.65034151 472.55230858 -172.26039206 472.54917666 -175.87060738 472.55912399 C-179.78884172 472.5697563 -183.70680591 472.55703389 -187.62503052 472.54208374 C-189.32772793 472.55212199 -189.32772793 472.55212199 -191.06482327 472.56236303 C-202.03069433 472.48124702 -210.09776397 469.90766253 -218.03833008 462.16113281 C-223.37047471 455.60988674 -226.27940357 449.3645139 -226.30575562 440.80990601 C-226.31855057 438.92564156 -226.31855057 438.92564156 -226.331604 437.00331116 C-226.3309051 435.62411486 -226.32998211 434.24491867 -226.32885742 432.86572266 C-226.3348461 431.40336261 -226.34165243 429.94100572 -226.34921265 428.47865295 C-226.3668382 424.51810518 -226.37156636 420.55764389 -226.37284422 416.59706068 C-226.3742675 414.12219949 -226.3785403 411.64736017 -226.38383865 409.17250443 C-226.40232241 400.53784034 -226.4105107 391.90323791 -226.40893555 383.26855469 C-226.40773225 375.21930984 -226.42887555 367.1703323 -226.46042287 359.12115514 C-226.48655559 352.20721562 -226.49730422 345.29336364 -226.49602473 338.3793751 C-226.49551452 334.25110564 -226.50123099 330.12307423 -226.52238083 325.99485397 C-226.54171464 322.11562533 -226.54192149 318.23686322 -226.52734756 314.35761833 C-226.52525279 312.93378584 -226.53000014 311.50992448 -226.54206848 310.08614159 C-226.55746868 308.14361709 -226.54583755 306.20093416 -226.5328064 304.25839233 C-226.53389593 303.17109518 -226.53498547 302.08379803 -226.53610802 300.96355247 C-225.91659612 297.47578777 -224.84371574 296.26709061 -222.03833008 294.16113281 C-221.04833008 294.16113281 -220.05833008 294.16113281 -219.03833008 294.16113281 C-219.03833008 288.55113281 -219.03833008 282.94113281 -219.03833008 277.16113281 C-220.68833008 276.83113281 -222.33833008 276.50113281 -224.03833008 276.16113281 C-226.78722546 273.41223743 -226.2992478 271.85484541 -226.31921387 268.00308228 C-226.3363443 266.03081665 -226.3363443 266.03081665 -226.3538208 264.01870728 C-226.35631175 262.55267372 -226.35856189 261.08663973 -226.3605957 259.62060547 C-226.36985047 258.08314537 -226.37989957 256.54568987 -226.39068604 255.00823975 C-226.41697009 250.82173735 -226.42983305 246.63529918 -226.43870735 242.44872713 C-226.44456834 239.83043714 -226.45277828 237.21216469 -226.4617157 234.59388351 C-226.48908678 226.39474557 -226.50840472 218.19564771 -226.51611948 209.99646723 C-226.52506019 200.54664983 -226.56005028 191.09741403 -226.61812067 181.64777339 C-226.66147682 174.3371907 -226.68153483 167.02677078 -226.68420172 159.716061 C-226.68629086 155.35371965 -226.69795267 150.99192418 -226.73384094 146.62971878 C-226.76701198 142.51728034 -226.77101465 138.40579156 -226.75356293 134.2932663 C-226.7520327 132.79215053 -226.76056796 131.29098158 -226.78047943 129.7899971 C-226.91541721 118.9742794 -225.25385924 110.01441383 -217.83798981 101.69173622 C-209.29286257 93.22605568 -199.9288443 91.65457017 -188.30763245 91.66345215 C-186.63436569 91.67760379 -184.96110217 91.69214295 -183.2878418 91.70703125 C-181.50313848 91.7081611 -179.71843332 91.70752319 -177.93373108 91.70526123 C-173.11406397 91.70411851 -168.29479902 91.72755592 -163.47522497 91.75555706 C-158.42907114 91.78064472 -153.38290702 91.78291851 -148.33670044 91.78765869 C-138.79234184 91.80006687 -129.24816758 91.83285922 -119.70388997 91.87305665 C-108.83327427 91.91784162 -97.96264954 91.9397783 -87.09196448 91.95983839 C-64.74065102 92.0015938 -42.3895009 92.07190378 -20.03833008 92.16113281 C-20.04832283 90.69654129 -20.04832283 90.69654129 -20.05851746 89.20236206 C-20.11938428 79.99196062 -20.16432946 70.78160009 -20.19376659 61.57104301 C-20.20940939 56.83601359 -20.23062238 52.10114678 -20.26464844 47.36621094 C-20.29729128 42.79504934 -20.31519352 38.22404399 -20.32296181 33.65277481 C-20.32849647 31.91048855 -20.33930438 30.16821065 -20.35552025 28.42599106 C-20.37736021 25.98188682 -20.38029429 23.53842471 -20.37890625 21.09423828 C-20.38969208 20.37710159 -20.40047791 19.6599649 -20.41159058 18.9210968 C-20.37788977 13.42169303 -19.07098149 9.36471173 -15.31958008 5.29785156 C-14.73176758 4.81960937 -14.14395508 4.34136719 -13.53833008 3.84863281 C-12.95051758 3.3575 -12.36270508 2.86636719 -11.75708008 2.36035156 C-8.01593317 -0.24994866 -4.4141114 0.02336685 0 0 Z " fill="#EDEBED" transform="translate(226.038330078125,19.8388671875)"/>
<path d="M0 0 C1.14259781 -0.01265396 2.28519562 -0.02530792 3.4624176 -0.03834534 C4.71188171 -0.02665314 5.96134583 -0.01496094 7.24867249 -0.00291443 C8.56771072 -0.01006973 9.88674896 -0.01722504 11.24575806 -0.02459717 C14.86169994 -0.04311853 18.47690487 -0.03016813 22.09281611 -0.01050687 C25.8781398 0.00587875 29.66341677 -0.00293328 33.44876099 -0.00802612 C39.80666371 -0.01254776 46.16427231 0.00332547 52.52210999 0.03126526 C59.86925194 0.06330397 67.215863 0.06330716 74.56304258 0.04605049 C81.63348152 0.03017642 88.70372611 0.03692543 95.77415657 0.0539875 C98.7816594 0.06085432 101.78900627 0.05982937 104.79650688 0.05244255 C108.34009986 0.04477105 111.88309016 0.05693296 115.42658043 0.08429146 C117.34474163 0.09444397 119.26297526 0.08500114 121.18113708 0.07496643 C122.32655472 0.08769089 123.47197235 0.10041534 124.65209961 0.11352539 C126.1417594 0.11773577 126.1417594 0.11773577 127.66151333 0.12203121 C131.17412392 0.77376034 132.87425553 2.1329617 135.38954163 4.62818909 C135.96918775 8.10606583 135.81954677 9.87056098 134.07704163 12.94068909 C131.90054628 15.11718443 130.12746262 15.58880856 127.08384418 15.75123692 C126.17219092 15.75031512 125.26053766 15.74939333 124.32125854 15.7484436 C123.27595632 15.7498211 122.23065409 15.7511986 121.15367603 15.75261784 C120.00279342 15.74901973 118.8519108 15.74542162 117.66615295 15.74171448 C116.43668033 15.74183501 115.2072077 15.74195555 113.94047832 15.74207973 C110.61321037 15.74145603 107.28600461 15.73650758 103.95874786 15.7294693 C100.83716938 15.72377655 97.71559246 15.7235063 94.5940094 15.72279358 C85.46334871 15.71754518 76.33269472 15.70358404 67.20204163 15.69068909 C46.80391663 15.67006409 26.40579163 15.64943909 5.38954163 15.62818909 C5.38954163 88.22818909 5.38954163 160.82818909 5.38954163 235.62818909 C10.99954163 235.62818909 16.60954163 235.62818909 22.38954163 235.62818909 C22.36859436 234.04473694 22.34764709 232.46128479 22.32606506 230.82984924 C22.25334305 224.92206462 22.2076245 219.01431912 22.16981506 213.10621643 C22.14977291 210.55536736 22.12253169 208.00456381 22.08778381 205.45387268 C22.03894133 201.77488429 22.01649782 198.0965065 21.99891663 194.41725159 C21.97827148 193.28768036 21.95762634 192.15810913 21.93635559 190.99430847 C21.93353506 180.90838255 24.33608483 172.9041181 31.31922913 165.45240784 C37.7766355 159.76257995 44.2004397 156.49158682 52.80751038 156.53053284 C54.06112366 156.53375549 55.31473694 156.53697815 56.6063385 156.54029846 C58.57183655 156.55286682 58.57183655 156.55286682 60.57704163 156.56568909 C61.91232644 156.57070591 63.24761304 156.5752685 64.582901 156.57936096 C67.85182636 156.59116214 71.12066154 156.60762611 74.38954163 156.62818909 C72.87518618 153.40589219 71.51636035 151.70377622 68.70204163 149.50318909 C59.13463757 141.32488181 54.48096743 130.90267249 52.38954163 118.62818909 C52.15233101 114.30899275 52.11913474 109.99030519 52.09437561 105.6655426 C52.08292221 104.27806852 52.06257678 102.89063615 52.03285217 101.50343323 C51.68773641 85.35240099 55.84721848 72.3734245 66.95204163 60.44068909 C76.39297545 51.38480846 87.76380025 46.23709197 100.82704163 46.37818909 C101.53924866 46.37045471 102.25145569 46.36272034 102.98524475 46.35475159 C115.86274117 46.40153632 128.10230276 51.91485365 137.52235413 60.59303284 C149.81858701 73.52044117 151.74103933 87.54603531 151.63954163 104.69068909 C151.647276 106.00102112 151.65501038 107.31135315 151.66297913 108.66139221 C151.63191768 124.07563582 148.06811406 137.28943211 137.07704163 148.50318909 C132.74645481 152.62818909 132.74645481 152.62818909 130.38954163 152.62818909 C130.38954163 153.94818909 130.38954163 155.26818909 130.38954163 156.62818909 C131.12479065 156.60724182 131.86003967 156.58629456 132.61756897 156.56471252 C135.99974997 156.48075579 139.38171075 156.42927823 142.76454163 156.37818909 C144.49897522 156.32791565 144.49897522 156.32791565 146.26844788 156.27662659 C158.08633077 156.14309119 165.70449349 159.09359768 174.25672913 167.25709534 C177.13556811 170.45756285 178.95312499 173.5921706 180.38954163 177.62818909 C180.90073547 178.81239441 180.90073547 178.81239441 181.42225647 180.02052307 C182.79933388 185.15658386 182.63523442 190.07690711 182.58485413 195.37037659 C182.58202423 196.49388519 182.57919434 197.6173938 182.57627869 198.77494812 C182.56511466 202.35113835 182.54001663 205.92707498 182.51454163 209.50318909 C182.50450696 211.93287296 182.49538196 214.36256077 182.48719788 216.79225159 C182.46518762 222.73766129 182.43068343 228.68288224 182.38954163 234.62818909 C187.66954163 234.62818909 192.94954163 234.62818909 198.38954163 234.62818909 C198.38954163 162.35818909 198.38954163 90.08818909 198.38954163 15.62818909 C184.85954163 15.62818909 171.32954163 15.62818909 157.38954163 15.62818909 C153.38954163 11.62818909 153.38954163 11.62818909 152.88954163 8.12818909 C153.47438374 4.03429427 154.20999941 3.14462094 157.38954163 0.62818909 C159.81776428 0.12025452 159.81776428 0.12025452 162.55360413 0.11061096 C164.09540344 0.091698 164.09540344 0.091698 165.66835022 0.07240295 C167.32471497 0.08454834 167.32471497 0.08454834 169.01454163 0.09693909 C170.7231134 0.09119873 170.7231134 0.09119873 172.46620178 0.08534241 C174.8736001 0.08262134 177.28102788 0.08999599 179.68836975 0.10670471 C183.37588845 0.12810983 187.06145862 0.10690776 190.74891663 0.08131409 C193.0874626 0.08395733 195.42600736 0.08908222 197.76454163 0.09693909 C198.86878479 0.08884216 199.97302795 0.08074524 201.11073303 0.07240295 C202.13859924 0.0850116 203.16646545 0.09762024 204.22547913 0.11061096 C205.12830627 0.11379333 206.03113342 0.11697571 206.96131897 0.12025452 C210.37162572 0.83362101 211.32106719 1.80329574 213.38954163 4.62818909 C213.99654976 7.82148046 213.93316387 10.9825831 213.90420532 14.22485352 C213.91115085 15.2088795 213.91809638 16.19290549 213.92525238 17.20675045 C213.94358998 20.5133929 213.93323901 23.81932337 213.92298889 27.12599182 C213.93004393 29.49282877 213.93878718 31.8596612 213.94909668 34.22648621 C213.96930342 39.99355665 213.97060638 45.76040198 213.96247113 51.52749782 C213.95617357 56.21464097 213.95730591 60.90172656 213.96374321 65.58886909 C213.96464486 66.25574558 213.96554652 66.92262206 213.9664755 67.60970693 C213.96832668 68.96442915 213.97018925 70.31915136 213.97206306 71.67387355 C213.98864636 84.38089604 213.97991801 97.08780753 213.96307748 109.79482336 C213.94838155 121.42133631 213.96300631 133.04759081 213.99184764 144.67407047 C214.02123762 156.61057047 214.03221502 168.54695116 214.02266544 180.48348576 C214.02164288 181.83355492 214.02064827 183.18362411 214.01968193 184.53369331 C214.01920554 185.19796038 214.01872915 185.86222744 214.01823832 186.54662381 C214.01607357 191.22765599 214.02588152 195.9085753 214.04045296 200.58958244 C214.05876696 206.89091624 214.05290319 213.19176863 214.02825356 219.49307632 C214.02323217 221.8082219 214.02676958 224.12340388 214.03940201 226.43852043 C214.05526226 229.59441904 214.04044677 232.74871881 214.01773071 235.90454102 C214.02956644 236.82496687 214.04140217 237.74539272 214.05359656 238.69371027 C213.99160188 242.92076784 213.74296915 245.0853981 211.39157104 248.69665527 C207.48652351 251.20919939 204.22828931 251.32200371 199.72888184 251.25637817 C198.42201207 251.26701975 198.42201207 251.26701975 197.08874089 251.27787632 C194.16959734 251.29547732 191.25178157 251.2773409 188.33265686 251.2592926 C186.23990777 251.26443057 184.14716299 251.27171092 182.0544281 251.28097534 C176.37059003 251.29951182 170.68722019 251.28653678 165.00340152 251.26688504 C159.05952313 251.25051811 153.11567486 251.25930861 147.17178345 251.2644043 C137.19066371 251.26892708 127.20973128 251.25304298 117.22865295 251.22511292 C105.68203085 251.19305154 94.13574641 251.19307962 82.5891003 251.21032768 C71.48906552 251.22617916 60.38915478 251.21946864 49.28912544 251.20239067 C44.56150583 251.19551031 39.83398536 251.19656272 35.10636711 251.20393562 C29.54209867 251.21158435 23.97821559 251.19951833 18.41401291 251.17208672 C16.36936525 251.16518732 14.32468171 251.16512147 12.28003502 251.17230225 C9.49399605 251.18096092 6.70915622 251.16510197 3.92321777 251.14285278 C3.10950775 251.15109355 2.29579773 251.15933432 1.45742983 251.1678248 C-2.14545521 251.11452913 -4.18559479 250.95612645 -7.08131313 248.72102261 C-10.21388532 244.43369143 -9.75865792 240.48440225 -9.75762939 235.34796143 C-9.76130608 234.37381139 -9.76498277 233.39966136 -9.76877087 232.39599162 C-9.77983995 229.11099948 -9.78365699 225.82603892 -9.78746033 222.54103088 C-9.79372248 220.19419758 -9.80036905 217.84736527 -9.80737305 215.50053406 C-9.82662368 208.44307357 -9.83720431 201.38561662 -9.84610084 194.32813641 C-9.85048249 191.00596586 -9.85585114 187.68379688 -9.86108971 184.36162758 C-9.87810233 173.32035369 -9.89259714 162.27908081 -9.89983845 151.23779583 C-9.90174839 148.37191453 -9.90366872 145.50603324 -9.90562439 142.64015198 C-9.90610813 141.9278376 -9.90659187 141.21552323 -9.90709027 140.48162357 C-9.91539298 128.93909596 -9.94073376 117.39667191 -9.97320507 105.85418954 C-10.00625903 94.00817999 -10.02428568 82.16222309 -10.02748269 70.31616718 C-10.02964929 63.66323136 -10.03886134 57.01042937 -10.06394386 50.35753441 C-10.08715194 44.10063803 -10.09148703 37.84401392 -10.08118248 31.58708572 C-10.08068526 29.28805577 -10.08706016 26.98901274 -10.10073853 24.69002342 C-10.118344 21.5561416 -10.11140686 18.42324893 -10.09820557 15.28936768 C-10.10917481 14.37535948 -10.12014406 13.46135128 -10.13144571 12.51964587 C-10.09044144 8.49967063 -9.89277676 6.14323042 -7.93062782 2.56362724 C-5.06923132 0.17670849 -3.69719253 0.00218357 0 0 Z " fill="#020303" transform="translate(51.61045837402344,201.37181091308594)"/>
<path d="M0 0 C1.06884682 -0.00744736 1.06884682 -0.00744736 2.1592865 -0.01504517 C4.51660123 -0.02964949 6.87384864 -0.03646622 9.23120117 -0.04199219 C10.871638 -0.04774549 12.5120748 -0.0535032 14.1525116 -0.05926514 C17.59321404 -0.06977049 21.03389315 -0.07561606 24.47460938 -0.07910156 C28.87624608 -0.08458242 33.27757284 -0.10860352 37.67911243 -0.13707352 C41.06866853 -0.15572927 44.45815043 -0.16090708 47.84775352 -0.16243744 C49.47001526 -0.16545835 51.09227586 -0.17346792 52.71448708 -0.18662262 C54.98828082 -0.20374346 57.26132359 -0.20178843 59.53515625 -0.1953125 C60.82738602 -0.19895813 62.11961578 -0.20260376 63.45100403 -0.20635986 C68.91247522 0.36534098 72.81927181 2.41468122 76.27416992 6.66113281 C76.76530273 7.24894531 77.25643555 7.83675781 77.76245117 8.44238281 C80.44273376 12.28383017 80.09730198 16.27780402 80.07519531 20.75366211 C80.07534134 21.52463226 80.07548737 22.29560242 80.07563782 23.0899353 C80.07494111 25.638436 80.06716002 28.18686363 80.05932617 30.73535156 C80.05746113 32.50226298 80.05603763 34.26917492 80.05503845 36.03608704 C80.05122004 40.68691434 80.0413955 45.33771042 80.03033447 49.98852539 C80.02010584 54.73420794 80.01553771 59.47989554 80.01049805 64.22558594 C79.99977265 73.53744861 79.98270431 82.84928812 79.96166992 92.16113281 C80.88527754 92.15744564 81.80888515 92.15375847 82.76048088 92.14995956 C105.25426756 92.06108384 127.74803141 91.99539303 150.24195671 91.95388412 C161.11994551 91.93327617 171.99781817 91.90518928 182.87573242 91.859375 C192.35909579 91.81945322 201.84237503 91.79368716 211.32582009 91.78477883 C216.34528846 91.77957315 221.36451621 91.76737463 226.38390732 91.73821259 C231.113338 91.71095912 235.84243009 91.70270784 240.57193184 91.70870209 C242.30286184 91.70760628 244.03380377 91.69971174 245.7646656 91.68431091 C258.59591814 91.57579072 268.32301505 92.79311448 277.98120117 101.93847656 C283.53759602 108.17435165 286.081011 114.49688672 286.095891 122.77912331 C286.10034884 123.93044105 286.10480669 125.0817588 286.10939962 126.26796496 C286.10912307 128.16627552 286.10912307 128.16627552 286.10884094 130.10293579 C286.11214084 131.46044627 286.11586668 132.81795578 286.11998242 134.17546403 C286.12999621 137.90964135 286.13371821 141.6438026 286.13637173 145.37799144 C286.14027663 149.40406015 286.14985484 153.43011616 286.15858459 157.45617676 C286.17834373 167.18100172 286.1884145 176.90582772 286.19731238 186.63066775 C286.20169617 191.21088546 286.20706275 195.79110202 286.21230125 200.37131882 C286.22931295 215.59804609 286.243807 230.82477264 286.25105 246.05150795 C286.25295987 250.00260036 286.25488021 253.95369277 286.25683594 257.90478516 C286.25731968 258.88680292 286.25780342 259.86882068 286.25830182 260.88059656 C286.26660168 276.78774423 286.29193812 292.6948167 286.32441662 308.60193153 C286.35749341 324.9353072 286.37549932 341.26864466 286.37869424 357.602054 C286.38085875 366.77189636 286.38959888 375.94162904 286.41515541 385.11143875 C286.43687087 392.92106333 286.44490867 400.73055158 286.43518863 408.54020293 C286.43064637 412.52325028 286.43252562 416.50601641 286.45195007 420.48902512 C286.46960022 424.13981663 286.46856945 427.79012216 286.45305278 431.44091897 C286.44956047 433.37791471 286.46568924 435.31491566 286.48265725 437.25184023 C286.40615561 447.65573204 284.11026937 455.76357571 276.88354492 463.40722656 C267.79819659 471.69853023 258.72723436 472.46110955 246.85375977 472.4675293 C245.54403702 472.47585281 244.23431427 472.48417633 242.88490295 472.49275208 C239.30864079 472.51459964 235.73246405 472.52348169 232.15614271 472.52857852 C229.91996858 472.53223087 227.68381657 472.53847518 225.44765091 472.54557991 C217.6417671 472.57003161 209.83594944 472.58311894 202.0300293 472.58666992 C194.75949114 472.59031138 187.48937348 472.62026085 180.21896398 472.66207451 C173.96825096 472.69676089 167.71767762 472.712218 161.466869 472.71291596 C157.73700714 472.71370875 154.00757512 472.72244917 150.27781296 472.75091362 C146.12183565 472.78192704 141.96686503 472.77304284 137.81079102 472.76049805 C135.96072701 472.78274948 135.96072701 472.78274948 134.07328796 472.80545044 C124.79772622 472.72549474 124.79772622 472.72549474 121.6625061 469.81507874 C119.96166992 467.16113281 119.96166992 467.16113281 119.89916992 464.09863281 C121.10917567 460.7533228 122.21712046 459.39375701 124.96166992 457.16113281 C127.47459698 456.66449738 127.47459698 456.66449738 130.35539246 456.66906738 C131.99751205 456.65686913 131.99751205 456.65686913 133.67280579 456.64442444 C134.86923203 456.65573898 136.06565826 456.66705353 137.29833984 456.67871094 C139.23844139 456.67270493 141.17854293 456.6666979 143.11864436 456.66065216 C145.20257369 456.65802361 147.28626371 456.66525899 149.37016869 456.67527771 C153.72072977 456.69563549 158.07089818 456.68562663 162.42146301 456.67102051 C172.44815136 456.64199089 182.4747244 456.6526946 192.50143433 456.66371918 C201.67911568 456.67340782 210.85659121 456.67458407 220.03423768 456.64383841 C224.35221517 456.63051367 228.66960083 456.63635574 232.98754251 456.65720367 C235.03232706 456.66405309 237.0768599 456.66174107 239.12164307 456.65541077 C241.60539197 456.64777472 244.08924355 456.65415306 246.57289124 456.67784119 C253.38791017 456.62786046 259.15778905 455.98464068 264.96166992 452.16113281 C268.80898738 447.44816892 270.08436781 443.7635165 270.09868431 437.76992512 C270.10375885 436.64374879 270.1088334 435.51757247 270.11406171 434.35726959 C270.11455947 433.11468877 270.11505723 431.87210795 270.11557007 430.59187317 C270.11995232 429.27596701 270.12433458 427.96006085 270.12884963 426.60427874 C270.14082036 422.94379423 270.14646473 419.2833229 270.15103078 415.62282264 C270.15698495 411.67789143 270.16859523 407.73297599 270.17932129 403.78805542 C270.2038491 394.25711876 270.21847278 384.72617687 270.23138136 375.19521835 C270.23509294 372.50366568 270.2390662 369.81211352 270.24313402 367.12056136 C270.26836962 350.4094877 270.29042462 333.69841323 270.30286217 316.98732471 C270.3057919 313.11614288 270.30875356 309.24496107 270.31176758 305.3737793 C270.31288665 303.93051892 270.31288665 303.93051892 270.31402834 302.45810177 C270.32668341 286.86961269 270.35990834 271.28123764 270.40156941 255.69280187 C270.44398315 239.6916919 270.46755653 223.69064032 270.47278273 207.68947428 C270.47619743 198.70409187 270.48795953 189.71888767 270.52088547 180.73356056 C270.54887942 173.08157177 270.55988821 165.4297977 270.54869001 157.77776168 C270.54350168 153.87388942 270.54640088 149.97046691 270.57115555 146.06665993 C270.59364332 142.490474 270.59291284 138.91506097 270.57395168 135.33886155 C270.56982734 133.43710815 270.59030109 131.53535011 270.61173856 129.63371307 C270.5467863 122.63456379 269.97178228 117.34751647 264.96166992 112.16113281 C260.47200491 108.41348517 256.0897814 107.65833453 250.32435608 107.64215088 C249.58741923 107.63464963 248.85048239 107.62714838 248.09121412 107.61941981 C245.63896825 107.59923192 243.18765489 107.60722733 240.73535156 107.61523438 C238.97078543 107.60649448 237.20622721 107.59600725 235.44168091 107.58390808 C230.66325897 107.55607839 225.88509602 107.55264273 221.10660481 107.55362797 C216.10840018 107.55049627 211.11031174 107.52487269 206.11216736 107.50164795 C196.65279714 107.46110415 187.19349584 107.44075102 177.73405212 107.42767406 C166.96256982 107.41179855 156.19120469 107.37338056 145.41979039 107.33308077 C123.26712222 107.25070397 101.1144596 107.19659796 78.96166992 107.16113281 C78.98124756 108.4785144 78.98124756 108.4785144 79.0012207 109.82250977 C79.01137207 110.98226318 79.02152344 112.1420166 79.03198242 113.33691406 C79.05156006 115.05648315 79.05156006 115.05648315 79.0715332 116.81079102 C78.69529898 128.28426268 72.17467065 139.35416808 63.96166992 147.16113281 C52.18492205 157.09307136 38.20984719 161.3547608 22.96166992 160.16113281 C8.04761826 157.15079943 -4.03117477 149.33796118 -12.46411133 136.75488281 C-17.13005185 129.06708007 -19.19195479 122.36997884 -19.10083008 113.34863281 C-19.09180664 112.1871875 -19.0827832 111.02574219 -19.07348633 109.82910156 C-19.05608398 108.50845703 -19.05608398 108.50845703 -19.03833008 107.16113281 C-42.23897408 107.17494371 -65.43941148 107.21719454 -88.63993835 107.29322338 C-99.41256979 107.32786388 -110.18507338 107.35322768 -120.95776367 107.35668945 C-130.34818872 107.35973064 -139.73838604 107.38024207 -149.12872314 107.42165738 C-154.10004776 107.44297489 -159.07104872 107.45559435 -164.04241943 107.44728661 C-168.72440818 107.43973865 -173.40574154 107.45559959 -178.08761024 107.48919296 C-179.80321636 107.49741724 -181.51888776 107.49718676 -183.23448753 107.48773003 C-194.58455723 107.09176037 -194.58455723 107.09176037 -204.60300541 111.66355133 C-211.25198917 118.60093293 -210.60334454 125.64060587 -210.53662109 134.84545898 C-210.54044781 136.33752483 -210.54606985 137.82958699 -210.55334473 139.32164001 C-210.56526428 142.52412164 -210.56483047 145.72627522 -210.55475044 148.92876244 C-210.5391567 153.99228541 -210.55288905 159.05547294 -210.57078552 164.11897278 C-210.60156209 173.94859157 -210.60310756 183.77810712 -210.60113525 193.6077652 C-210.59974091 206.1307099 -210.61005277 218.65357578 -210.64971298 231.17646199 C-210.66465617 236.21074728 -210.66437021 241.2447346 -210.65223515 246.27902448 C-210.64753011 249.40730615 -210.65503431 252.53547329 -210.66577911 255.66373634 C-210.66818844 257.11497708 -210.66543867 258.56623686 -210.65717125 260.01745605 C-210.64656636 261.99718169 -210.65602112 263.97698461 -210.66651917 265.95671082 C-210.66593286 267.06483218 -210.66534655 268.17295355 -210.66474247 269.31465435 C-211.08303143 272.50172609 -211.82834236 273.86632342 -214.03833008 276.16113281 C-215.94067383 276.87597656 -215.94067383 276.87597656 -217.97583008 277.09863281 C-218.64485352 277.19015625 -219.31387695 277.28167969 -220.00317383 277.37597656 C-222.8646248 277.073904 -223.99364227 276.17746541 -226.03833008 274.16113281 C-226.54728127 271.35796452 -226.54728127 271.35796452 -226.5597229 267.88282776 C-226.57389252 266.56660934 -226.58806213 265.25039093 -226.60266113 263.89428711 C-226.59807309 262.4318834 -226.59305364 260.96948099 -226.58764648 259.50708008 C-226.59633977 257.96946724 -226.60670576 256.43186309 -226.61862183 254.89427185 C-226.64545357 250.71186176 -226.64655233 246.52981261 -226.64149523 242.34733319 C-226.63935662 238.85142734 -226.64912177 235.35559463 -226.65870607 231.85970443 C-226.68091991 223.60278459 -226.68176183 215.34604662 -226.66967773 207.08911133 C-226.65763015 198.59062301 -226.68213208 190.09279963 -226.72481787 181.59442478 C-226.76015803 174.28803733 -226.77203466 166.98186035 -226.76554239 159.67539066 C-226.76192926 155.31646138 -226.76705903 150.95800496 -226.79497147 146.59915352 C-226.82029211 142.49074693 -226.81608946 138.38336541 -226.79014969 134.27497292 C-226.78545199 132.77549123 -226.79076525 131.27593566 -226.80739594 129.77653885 C-226.91847965 118.97301866 -225.24445422 110.00433467 -217.83811378 101.69167423 C-209.2925301 93.22631197 -199.92909607 91.65456997 -188.30763245 91.66345215 C-186.63436569 91.67760379 -184.96110217 91.69214295 -183.2878418 91.70703125 C-181.50313848 91.7081611 -179.71843332 91.70752319 -177.93373108 91.70526123 C-173.11406397 91.70411851 -168.29479902 91.72755592 -163.47522497 91.75555706 C-158.42907114 91.78064472 -153.38290702 91.78291851 -148.33670044 91.78765869 C-138.79234184 91.80006687 -129.24816758 91.83285922 -119.70388997 91.87305665 C-108.83327427 91.91784162 -97.96264954 91.9397783 -87.09196448 91.95983839 C-64.74065102 92.0015938 -42.3895009 92.07190378 -20.03833008 92.16113281 C-20.04832283 90.69654129 -20.04832283 90.69654129 -20.05851746 89.20236206 C-20.11938428 79.99196062 -20.16432946 70.78160009 -20.19376659 61.57104301 C-20.20940939 56.83601359 -20.23062238 52.10114678 -20.26464844 47.36621094 C-20.29729128 42.79504934 -20.31519352 38.22404399 -20.32296181 33.65277481 C-20.32849647 31.91048855 -20.33930438 30.16821065 -20.35552025 28.42599106 C-20.37736021 25.98188682 -20.38029429 23.53842471 -20.37890625 21.09423828 C-20.38969208 20.37710159 -20.40047791 19.6599649 -20.41159058 18.9210968 C-20.37788977 13.42169303 -19.07098149 9.36471173 -15.31958008 5.29785156 C-14.73176758 4.81960937 -14.14395508 4.34136719 -13.53833008 3.84863281 C-12.95051758 3.3575 -12.36270508 2.86636719 -11.75708008 2.36035156 C-8.01593317 -0.24994866 -4.4141114 0.02336685 0 0 Z " fill="#000000" transform="translate(226.038330078125,19.8388671875)"/>
<path d="M0 0 C0.433125 1.423125 0.433125 1.423125 0.875 2.875 C1.76825109 6.05211578 1.76825109 6.05211578 4 8 C24.295 8.495 24.295 8.495 45 9 C45 81.27 45 153.54 45 228 C39.72 228 34.44 228 29 228 C28.9906543 226.50742676 28.98130859 225.01485352 28.97167969 223.47705078 C28.93160815 217.90432619 28.86580123 212.33214372 28.79248047 206.75976562 C28.76437023 204.35456338 28.74310658 201.94927047 28.72900391 199.54394531 C28.70743692 196.07309886 28.66071413 192.60333127 28.609375 189.1328125 C28.60753204 187.53688766 28.60753204 187.53688766 28.60565186 185.90872192 C28.41205887 175.89161958 25.51719299 166.88697804 18.54296875 159.4453125 C10.11307346 151.5089708 0.55761998 150.38713358 -10.625 150.25 C-11.81996094 150.22035156 -13.01492187 150.19070313 -14.24609375 150.16015625 C-17.16412758 150.09012344 -20.08139335 150.03709822 -23 150 C-23 146 -23 146 -21.4609375 144.359375 C-20.77257812 143.82828125 -20.08421875 143.2971875 -19.375 142.75 C-10.08606976 135.0174161 -4.44069559 125.04390196 -3 113 C-2.81722097 108.73464396 -2.81417747 104.47292319 -2.81469727 100.20385742 C-2.8125168 98.20292053 -2.79401688 96.20202326 -2.77539062 94.20117188 C-2.75202855 78.61867007 -5.67687023 65.68053443 -16.73046875 54.03515625 C-29.08766804 42.95408769 -42.78634738 40.10513344 -58.95117188 40.82080078 C-63.71880356 41.23779812 -67.76771613 42.86053051 -72 45 C-72.84949219 45.42410156 -73.69898438 45.84820312 -74.57421875 46.28515625 C-87.35311658 53.31061463 -94.60009799 63.58993474 -99.06933594 77.27416992 C-100.46597198 82.86547701 -100.33394579 88.39034224 -100.31567383 94.11352539 C-100.31253378 96.16542746 -100.33594955 98.21585568 -100.36132812 100.26757812 C-100.44141055 116.84263848 -96.49543254 129.65744459 -85.18359375 141.87109375 C-83.08411489 144.03175615 -83.08411489 144.03175615 -80.72265625 145.59765625 C-80.15417969 146.06042969 -79.58570312 146.52320313 -79 147 C-79 147.99 -79 148.98 -79 150 C-79.79583496 150.00410889 -80.59166992 150.00821777 -81.41162109 150.01245117 C-85.06680188 150.04563183 -88.72036977 150.1163059 -92.375 150.1875 C-93.62667969 150.19330078 -94.87835938 150.19910156 -96.16796875 150.20507812 C-106.6002052 150.4508638 -114.6649777 153.10677054 -122.46484375 160.1875 C-127.24909509 165.83608174 -130.08549105 172.95366606 -130.20532227 180.29760742 C-130.22526749 181.37850143 -130.24521271 182.45939545 -130.26576233 183.57304382 C-130.29083107 185.32159416 -130.29083107 185.32159416 -130.31640625 187.10546875 C-130.33718735 188.29981033 -130.35796844 189.49415192 -130.37937927 190.72468567 C-130.44484276 194.54556443 -130.5037451 198.36651276 -130.5625 202.1875 C-130.60568824 204.77539786 -130.64930263 207.36328865 -130.69335938 209.95117188 C-130.80052095 216.30070968 -130.90179764 222.65031756 -131 229 C-136.61 229 -142.22 229 -148 229 C-148 156.4 -148 83.8 -148 9 C-86.25 8.625 -86.25 8.625 -66.74316406 8.52197266 C-60.97920799 8.48206961 -60.97920799 8.48206961 -55.215271 8.43954468 C-52.64540056 8.42184409 -50.07569386 8.40731359 -47.50579834 8.39730835 C-43.61606836 8.3819499 -39.72654332 8.35096592 -35.83691406 8.31884766 C-34.68962955 8.31667551 -33.54234505 8.31450336 -32.36029434 8.3122654 C-31.31361462 8.30111387 -30.26693489 8.28996235 -29.1885376 8.2784729 C-28.27780613 8.27294214 -27.36707466 8.26741138 -26.42874527 8.26171303 C-23.80844955 7.9793592 -22.20049443 7.43867879 -20 6 C-18.71745356 3.46229997 -18.71745356 3.46229997 -18 1 C-15.1875205 0.83298107 -12.37501801 0.66636797 -9.5625 0.5 C-8.76005859 0.45230469 -7.95761719 0.40460938 -7.13085938 0.35546875 C-1.11328125 0 -1.11328125 0 0 0 Z " fill="#89C8FC" transform="translate(205,208)"/>
<path d="M0 0 C23.20047407 -0.11684522 46.40089957 -0.20499412 69.60160828 -0.25906086 C80.37431682 -0.28483321 91.14684246 -0.31996536 101.91943359 -0.37719727 C111.30975467 -0.42706172 120.69994327 -0.45929806 130.09039307 -0.47044247 C135.06179201 -0.47695604 140.03281197 -0.49224478 145.00408936 -0.52865028 C149.6859604 -0.56265773 154.36729734 -0.57304335 159.04928017 -0.56553841 C160.76493548 -0.56691083 162.48060917 -0.57681512 164.19615746 -0.59602737 C180.4775346 -0.76937476 180.4775346 -0.76937476 185.35062224 3.38044566 C191.18407079 9.10841601 192.5756601 14.3645933 192.66405493 22.44926977 C192.6522192 23.67728638 192.64038347 24.90530299 192.62818909 26.17053223 C192.63323962 27.50405534 192.64047236 28.83757165 192.64968723 30.17107248 C192.6685651 33.82049111 192.65640165 37.46923696 192.6389643 41.11863828 C192.62556917 45.06009996 192.64103505 49.00146459 192.65278625 52.94291687 C192.67115127 60.65827036 192.6626582 68.37337035 192.64469803 76.08871591 C192.63066404 82.35992812 192.62678095 88.63107157 192.6301403 94.90229797 C192.63061775 95.79534595 192.63109519 96.68839393 192.6315871 97.60850397 C192.63261344 99.42279686 192.6336688 101.23708974 192.63475286 103.0513826 C192.64331762 119.089156 192.62665222 135.12680713 192.59692383 151.16455078 C192.56808698 166.72156917 192.56100318 182.27841143 192.57641602 197.83544922 C192.59318253 214.78199669 192.59720779 231.72846055 192.57970566 248.6750102 C192.5778613 250.48257414 192.57602657 252.29013808 192.57420158 254.09770203 C192.57328949 254.98702404 192.5723774 255.87634606 192.57143768 256.79261723 C192.56583508 263.05522536 192.56913688 269.31779264 192.57574654 275.58039856 C192.5834834 283.21398081 192.57671446 290.84738977 192.5515715 298.48093712 C192.53908459 302.37463263 192.53291998 306.26805847 192.54411316 310.16176414 C192.55417254 313.72844612 192.5456605 317.29459092 192.52253198 320.86120766 C192.51495056 322.7577086 192.52690918 324.65425684 192.53963572 326.55073023 C192.46104599 334.63280726 191.56197262 340.43802738 185.625 346.375 C178.79498724 350.60310314 172.18172406 350.27400202 164.38525391 350.22705078 C162.48199341 350.22748886 162.48199341 350.22748886 160.5402832 350.22793579 C157.07374973 350.22850801 153.60735555 350.21677494 150.14085436 350.20278788 C146.51337426 350.19025871 142.88589073 350.1891083 139.25839233 350.18673706 C132.394947 350.18052871 125.53156561 350.16412664 118.6681484 350.14403808 C110.85196384 350.12165899 103.03577618 350.1106806 95.21956754 350.10064721 C79.14634096 350.07975982 63.07317865 350.04459642 47 350 C47 349.67 47 349.34 47 349 C47.59322398 349.00222061 48.18644796 349.00444122 48.79764843 349.00672913 C63.23674971 349.05803053 77.67537506 349.06520198 92.11450481 349.02334595 C99.09729288 349.00416685 106.07949492 348.99988639 113.06225586 349.03076172 C119.79941693 349.06050915 126.53532321 349.04862906 133.27250099 349.01119995 C135.84453925 349.00374522 138.4166571 349.01031299 140.98862267 349.03103638 C144.58827658 349.05766036 148.18442408 349.03472445 151.78393555 349 C152.85064484 349.01941147 153.91735413 349.03882294 155.01638794 349.05882263 C160.39668873 349.05042544 160.39668873 349.05042544 164.76572609 346.29296875 C168.09371662 341.18873458 169.12308661 336.55312669 169.13422108 330.50694847 C169.14090784 328.8217726 169.14090784 328.8217726 169.14772969 327.10255277 C169.14754533 325.86813998 169.14736097 324.6337272 169.14717102 323.36190796 C169.15084771 322.05064206 169.1545244 320.73937616 169.1583125 319.38837492 C169.1683251 315.74541016 169.1720481 312.10246187 169.17470181 308.45948529 C169.17860706 304.53157683 169.18818525 300.60368139 169.19691467 296.67578125 C169.21667283 287.1882592 169.22674447 277.70073609 169.23564246 268.2131986 C169.24002642 263.74455504 169.24539295 259.27591267 169.25063133 254.80727005 C169.26764296 239.95112797 169.28213694 225.09498662 169.28938007 210.23883629 C169.29128994 206.38399632 169.29321028 202.52915635 169.29516602 198.67431641 C169.29564976 197.71622356 169.2961335 196.75813071 169.2966319 195.77100475 C169.30493153 180.25184776 169.33026762 164.73276787 169.36274669 149.21364455 C169.39582532 133.2780332 169.41382956 117.34246103 169.41702431 101.40681517 C169.41918866 92.46053704 169.42792634 83.51437134 169.45348549 74.56812668 C169.47520346 66.94880976 169.48323752 59.32963258 169.47351871 51.71028821 C169.46897717 47.82445098 169.47085146 43.93890201 169.49028015 40.0531044 C169.50793553 36.49112923 169.50689538 32.92965208 169.49138286 29.36767145 C169.48789205 27.4783943 169.50401545 25.58911179 169.52098733 23.69990766 C169.46237085 15.91868245 168.78038777 7.78038777 163 2 C160.29003312 1.68435844 160.29003312 1.68435844 157.06491089 1.7215271 C155.80003845 1.71036362 154.53516602 1.69920013 153.23196411 1.68769836 C151.82244903 1.68533317 150.41293361 1.68315756 149.00341797 1.68115234 C147.52530363 1.67185838 146.04719457 1.66169052 144.5690918 1.65071106 C140.54868851 1.62333684 136.5283204 1.60823978 132.50784826 1.59528303 C128.30907484 1.57968484 124.11037361 1.55288414 119.91165161 1.5272522 C111.95731904 1.48040558 104.00297297 1.44369002 96.04857266 1.41057932 C86.99424049 1.37239941 77.93998073 1.32297849 68.88570952 1.27259517 C50.25719262 1.16918786 31.62863157 1.07995617 13 1 C13.01812744 2.06436279 13.03625488 3.12872559 13.05493164 4.2253418 C13.06960092 5.65412979 13.08381822 7.08292247 13.09765625 8.51171875 C13.11074829 9.20938354 13.12384033 9.90704834 13.1373291 10.62585449 C13.2255824 22.83658091 9.28172765 33.24115495 2 43 C1.236875 44.0725 0.47375 45.145 -0.3125 46.25 C-9.45701905 55.60718228 -22.10000738 62.08257454 -35.24023438 62.234375 C-36.17158203 62.23953125 -37.10292969 62.2446875 -38.0625 62.25 C-38.96677734 62.270625 -39.87105469 62.29125 -40.80273438 62.3125 C-53.08696513 62.38274578 -63.93985794 57.88214361 -73.625 50.375 C-76.02778552 47.97221448 -76.3983001 47.16895279 -77 44 C-76.154375 44.40992188 -75.30875 44.81984375 -74.4375 45.2421875 C-59.85316018 52.16974892 -48.15769967 54.26119745 -32.30078125 49.26953125 C-27.44580301 47.40223193 -23.23860848 44.99612214 -19 42 C-17.948125 41.2575 -16.89625 40.515 -15.8125 39.75 C-11.87171724 35.89679019 -8.90733182 31.66870803 -6 27 C-5.58363281 26.33484375 -5.16726563 25.6696875 -4.73828125 24.984375 C-1.97322622 19.76263539 -1.47039206 14.47522942 -0.89453125 8.6875 C-0.80675415 7.85154297 -0.71897705 7.01558594 -0.62854004 6.15429688 C-0.41392747 4.10339177 -0.20626804 2.05176114 0 0 Z " fill="#D4CDD3" transform="translate(305,127)"/>
<path d="M0 0 C9.89969132 8.23844175 16.62975819 20.38016143 18.34375 33.1484375 C18.7786107 40.38132463 18.81121014 47.28581398 16.34375 54.1484375 C16.01375 55.08429688 15.68375 56.02015625 15.34375 56.984375 C9.5599475 72.09075391 -0.13856662 80.75936717 -14.38671875 87.765625 C-24.35268147 91.98061998 -39.567447 92.05981817 -49.78125 88.5859375 C-63.72154935 82.30173906 -73.90232773 73.42764799 -79.8828125 59.23828125 C-85.41678056 44.44785581 -85.00582332 31.18497748 -78.59375 16.7578125 C-72.46588823 4.58719815 -62.36045988 -3.65017717 -49.9765625 -9.01171875 C-32.67962946 -14.66345219 -14.5686757 -10.15522394 0 0 Z " fill="#030303" transform="translate(451.65625,360.8515625)"/>
<path d="M0 0 C3.1336113 0.57556126 4.8314065 1.29882715 7.01719475 3.63242149 C9.52155096 8.25652923 8.71632285 14.11374369 8.65844727 19.22192383 C8.66035203 20.62838705 8.66450931 22.03484875 8.67074585 23.44129944 C8.67952942 26.46602013 8.67279572 29.49016671 8.65408516 32.51484108 C8.62495982 37.30209177 8.63279557 42.08884939 8.64598083 46.87614441 C8.66664027 56.17858913 8.65105393 65.48079489 8.63050842 74.78322601 C8.60536604 86.61299346 8.59255861 98.44262631 8.62046474 110.27239817 C8.63039407 115.02637139 8.62034696 119.7797506 8.59455693 124.53365862 C8.58234195 127.49826408 8.58660965 130.46268626 8.59513474 133.42729759 C8.59592058 135.44632278 8.57676054 137.46532527 8.55690002 139.48425293 C8.59629827 146.64515132 9.07798169 151.5286 13.0625 157.5625 C17.66292221 161.22406054 21.22394245 162.68681069 27.04321194 162.68999195 C28.5950991 162.69450342 28.5950991 162.69450342 30.17833751 162.69910604 C31.88871805 162.69648048 31.88871805 162.69648048 33.63365173 162.69380188 C34.84212424 162.69591759 36.05059675 162.69803331 37.29568964 162.70021313 C39.95361997 162.70414144 42.61147917 162.7062302 45.26940536 162.70524788 C49.59360929 162.70365669 53.91779005 162.70885373 58.24198914 162.71487427 C64.51980012 162.722991 70.79760703 162.72793234 77.07542229 162.73116493 C86.99443653 162.73665778 96.91341632 162.75355091 106.83241272 162.77250671 C110.224513 162.77886354 113.61661336 162.78517194 117.00871372 162.79148388 C117.85644928 162.79306764 118.70418483 162.7946514 119.57760934 162.79628316 C129.2297156 162.81422354 138.8818243 162.83044868 148.53393555 162.84545898 C149.41641177 162.84683486 150.298888 162.84821073 151.20810593 162.84962829 C165.51563432 162.8715684 179.82315387 162.88231695 194.13069611 162.88982973 C208.81197132 162.89789428 223.49317049 162.92116237 238.1744023 162.9577834 C247.23469348 162.9798356 256.29482843 162.98946478 265.3551451 162.98328307 C271.5612525 162.98011402 277.76722624 162.99140173 283.97329228 163.01417748 C287.55660048 163.02687374 291.13961104 163.03298116 294.72293091 163.02176094 C298.60358682 163.00976549 302.48374322 163.02845316 306.36436462 163.05024719 C307.50238759 163.04180466 308.64041057 163.03336212 309.81291908 163.02466375 C311.36871786 163.04091008 311.36871786 163.04091008 312.95594692 163.05748463 C313.85197957 163.05846144 314.74801221 163.05943824 315.67119735 163.06044465 C318.86995795 163.73202626 320.07049352 165.01772218 322.0625 167.5625 C322.5625 171.0625 322.5625 171.0625 322.0625 174.5625 C320.06631616 177.11574301 318.86783596 178.39489297 315.65886527 179.06274599 C314.75697178 179.06285333 313.85507828 179.06296066 312.92585468 179.06307125 C311.8819055 179.07288554 310.83795632 179.08269983 309.76237231 179.09281152 C308.61676922 179.08320652 307.47116612 179.07360151 306.29084778 179.06370544 C304.46377313 179.07200704 304.46377313 179.07200704 302.59978789 179.08047634 C299.21680926 179.09174986 295.83472564 179.08503423 292.45181501 179.07073963 C288.8040755 179.05964855 285.15640211 179.07156649 281.50866699 179.08058167 C274.36062041 179.09453102 267.21275023 179.08694451 260.06471203 179.07190608 C251.73902155 179.05505652 243.41337516 179.05825513 235.08767291 179.06200016 C220.22792793 179.06788232 205.3682676 179.05369573 190.50854492 179.02905273 C176.09510114 179.00515255 161.68177058 178.99803961 147.26831055 179.00854492 C131.57467892 179.01996281 115.88109971 179.02187176 100.18746871 179.00744683 C98.51266619 179.005921 96.83786367 179.00440065 95.16306114 179.00288582 C93.92702723 179.0017491 93.92702723 179.0017491 92.66602293 179.00058941 C86.86580416 178.99585161 81.06560881 178.99769461 75.2653904 179.00195122 C68.19061382 179.00688608 61.11594417 179.00085768 54.04119203 178.98105692 C50.43299819 178.97120635 46.82496689 178.96605536 43.21676445 178.97394943 C39.30076372 178.98234129 35.38504674 178.96738415 31.46907043 178.95018005 C29.7673962 178.95919512 29.7673962 178.95919512 28.03134471 178.96839231 C17.06875624 178.88085716 9.00090195 176.30691844 1.0625 168.5625 C-4.26964463 162.01125393 -7.17857349 155.76588109 -7.20492554 147.21127319 C-7.21772049 145.32700874 -7.21772049 145.32700874 -7.23077393 143.40467834 C-7.23007502 142.02548205 -7.22915203 140.64628586 -7.22802734 139.26708984 C-7.23401602 137.8047298 -7.24082235 136.34237291 -7.24838257 134.88002014 C-7.26600812 130.91947237 -7.27073628 126.95901107 -7.27201414 122.99842787 C-7.27343743 120.52356667 -7.27771022 118.04872736 -7.28300858 115.57387161 C-7.30149233 106.93920752 -7.30968063 98.30460509 -7.30810547 89.66992188 C-7.30690217 81.62067702 -7.32804547 73.57169949 -7.3595928 65.52252233 C-7.38572552 58.60858281 -7.39647414 51.69473083 -7.39519465 44.78074229 C-7.39468444 40.65247282 -7.40040091 36.52444142 -7.42155075 32.39622116 C-7.44088457 28.51699252 -7.44109141 24.63823041 -7.42651749 20.75898552 C-7.42442271 19.33515302 -7.42917006 17.91129166 -7.4412384 16.48750877 C-7.4566386 14.54498428 -7.44500747 12.60230135 -7.43197632 10.65975952 C-7.43306585 9.57246237 -7.43415539 8.48516521 -7.43527794 7.36491966 C-6.63126529 2.83844171 -4.45688617 0.85344629 0 0 Z " fill="#000000" transform="translate(6.9375,313.4375)"/>
<path d="M0 0 C1.16080078 0.01804687 2.32160156 0.03609375 3.51757812 0.0546875 C6.36674747 0.10158741 9.21418531 0.16720941 12.0625 0.25 C12.11003418 0.91676758 12.15756836 1.58353516 12.20654297 2.27050781 C12.90681355 10.68907798 14.98618718 16.6922702 21.3125 22.5625 C27.81869278 27.59638622 34.07278019 29.9578856 42.34765625 29.64453125 C48.38987435 28.76645351 53.33881155 26.02895076 58.0625 22.25 C58.7225 22.25 59.3825 22.25 60.0625 22.25 C60.35125 21.66476562 60.64 21.07953125 60.9375 20.4765625 C61.62044886 19.12489288 62.32361033 17.7828573 63.0625 16.4609375 C65.12248049 12.67894207 66.40124804 9.22372708 67.1875 4.9765625 C67.35507813 4.08791504 67.52265625 3.19926758 67.6953125 2.28369141 C67.87707031 1.27701416 67.87707031 1.27701416 68.0625 0.25 C72.06193677 0.07434906 76.06037064 -0.03130466 80.0625 -0.125 C81.18785156 -0.17527344 82.31320313 -0.22554688 83.47265625 -0.27734375 C89.95866742 -0.39113342 94.23880402 0.07824421 99.37890625 4.16943359 C113.09597497 21.12083436 105.0625 42.90845579 105.0625 64.25 C62.1625 64.25 19.2625 64.25 -24.9375 64.25 C-24.9375 12.25 -24.9375 12.25 -19.9375 4.25 C-13.81487777 -0.81370317 -7.68214536 -0.22710151 0 0 Z " fill="#665C66" transform="translate(113.9375,372.75)"/>
<path d="M0 0 C0.99261337 0.00222061 1.98522675 0.00444122 3.00791931 0.00672913 C4.12900589 0.00680466 5.25009247 0.00688019 6.40515137 0.00695801 C8.2348069 0.01469994 8.2348069 0.01469994 10.10142517 0.02259827 C11.96377052 0.02472069 11.96377052 0.02472069 13.86373901 0.02688599 C17.16982383 0.03154861 20.47584039 0.04053955 23.78190613 0.05158997 C27.15338031 0.06180625 30.52486174 0.06643878 33.89634705 0.07142639 C40.51552631 0.08163173 47.13458545 0.10120346 53.75376892 0.12025452 C53.75376892 9.36025452 53.75376892 18.60025452 53.75376892 28.12025452 C52.43376892 26.47025452 51.11376892 24.82025452 49.75376892 23.12025452 C45.31737534 18.06769516 40.81317704 14.83125863 34.14439392 13.66322327 C26.67210891 13.20939805 21.46990888 15.3602315 15.75376892 20.12025452 C11.05290364 24.59878157 10.36538985 29.1934794 10.06626892 35.55775452 C10.33172739 42.57843238 11.63093827 47.21969544 16.75376892 52.12025452 C22.03058552 56.44601696 27.18307497 57.96418948 33.98033142 57.59291077 C39.9130094 56.58184875 44.80308335 54.49120975 48.67564392 49.78431702 C49.73067648 48.19172025 50.74185278 46.56870947 51.69517517 44.91322327 C52.04451111 44.32154358 52.39384705 43.72986389 52.75376892 43.12025452 C53.08376892 43.12025452 53.41376892 43.12025452 53.75376892 43.12025452 C53.84700819 50.62279172 53.91780455 58.12526782 53.96101761 65.62825489 C53.98177222 69.11334714 54.00986274 72.59803906 54.05552673 76.082901 C54.10785203 80.10189863 54.12681404 84.12048477 54.14439392 88.13978577 C54.16503906 89.37356461 54.1856842 90.60734344 54.20695496 91.87850952 C54.21000154 103.7814434 50.87782357 112.66435724 43.75376892 122.12025452 C43.29486267 122.7325592 42.83595642 123.34486389 42.36314392 123.97572327 C40.2385138 126.66990785 39.07147161 128.01435362 35.75376892 129.12025452 C27.0025078 130.11620028 19.1736272 128.32496657 12.01158142 123.13197327 C3.30596725 115.65341154 -2.23367832 107.2692273 -3.5177536 95.66689873 C-3.61781702 93.13851562 -3.62949093 90.62676603 -3.60267639 88.09657288 C-3.60472076 87.15062256 -3.60676514 86.20467224 -3.60887146 85.23005676 C-3.61185153 82.13986639 -3.59349541 79.05022414 -3.57435608 75.96009827 C-3.5712952 73.80202364 -3.56942158 71.64394703 -3.56867981 69.48587036 C-3.56409523 64.98314246 -3.54973279 60.48059526 -3.52748108 55.97792053 C-3.49904684 50.19390534 -3.48825228 44.41003119 -3.48379898 38.62595272 C-3.47965483 34.17975445 -3.4698483 29.73358488 -3.45792389 25.2874012 C-3.4522134 23.15304863 -3.44745728 21.0186933 -3.44365692 18.88433647 C-3.43682242 15.91596925 -3.42320759 12.94771642 -3.40736389 9.97938538 C-3.40624603 9.09166946 -3.40512817 8.20395355 -3.40397644 7.28933716 C-3.35342454 0.17952937 -3.35342454 0.17952937 0 0 Z " fill="#F97E85" transform="translate(224.24623107910156,35.87974548339844)"/>
<path d="M0 0 C7.47901855 4.71990496 12.22116853 12.72471333 15 21 C15.39182464 25.63703063 15.37161695 30.27570602 15.37060547 34.92700195 C15.37495376 37.16371258 15.41123493 39.3984068 15.44921875 41.63476562 C15.5487683 53.98424862 13.31388972 62.60104483 4.64453125 71.73046875 C-3.13982058 78.41098339 -11.89401563 81.40795252 -21.99609375 81.2734375 C-31.91136279 80.37087725 -40.39201327 75.4247196 -46.78515625 67.8984375 C-53.54862711 58.49272618 -54.4885311 48.84049526 -54.375 37.5 C-54.38660156 36.34113281 -54.39820312 35.18226563 -54.41015625 33.98828125 C-54.3681076 21.58393094 -51.73963422 13.08748631 -43.18359375 4.08984375 C-30.99485813 -7.50792287 -14.43377287 -8.21983742 0 0 Z " fill="#FCD0A2" transform="translate(173,268)"/>
<path d="M0 0 C8.2897036 6.7747475 12.93003612 15.7390864 14.0625 26.28515625 C14.49402072 36.73604877 11.44375447 45.35711272 4.734375 53.37109375 C1.43280951 56.70515497 -2.1462595 59.12874204 -6.25 61.375 C-6.84039062 61.7153125 -7.43078125 62.055625 -8.0390625 62.40625 C-15.68653169 66.04469349 -27.17538583 65.5835394 -35.1875 63.3125 C-45.23408284 59.20950624 -52.48014957 51.09943553 -56.625 41.25 C-59.62234239 32.16981569 -59.66720449 22.40739523 -55.5703125 13.68359375 C-50.08204019 4.08723596 -42.61881459 -3.00627481 -31.82421875 -6.15234375 C-20.29599428 -8.26905871 -9.73568231 -6.5650578 0 0 Z " fill="#6DD4A1" transform="translate(441.25,371.625)"/>
<path d="M0 0 C8.57077598 -0.04628427 17.14149997 -0.08184919 25.71236992 -0.10362434 C29.69191773 -0.11407386 33.67138021 -0.12825422 37.65087891 -0.15087891 C41.48933886 -0.17256585 45.32771659 -0.18455982 49.16623306 -0.18975449 C50.63270487 -0.19345773 52.09917205 -0.200689 53.56560898 -0.21146011 C55.61529106 -0.22592019 57.66463082 -0.22798029 59.71435547 -0.22705078 C60.88239716 -0.231492 62.05043884 -0.23593323 63.25387573 -0.24050903 C66 0 66 0 68 2 C68.20424577 5.02080513 68.28312723 7.95029933 68.2746582 10.97265625 C68.27976913 11.90298172 68.28488007 12.83330719 68.29014587 13.79182434 C68.30409766 16.88211423 68.30307976 19.97218225 68.30078125 23.0625 C68.30466747 25.21045006 68.30900199 27.35839936 68.31376648 29.50634766 C68.3212424 34.01906823 68.32092921 38.53171061 68.31567383 43.04443359 C68.30990254 48.80995542 68.32674679 54.57515356 68.3500185 60.34062195 C68.36480535 64.78291681 68.36562037 69.22513484 68.36250877 73.66744995 C68.36302033 75.79158159 68.3682268 77.91571772 68.37832069 80.03982544 C68.3907522 83.02415424 68.3838513 86.00786744 68.37231445 88.9921875 C68.37995819 89.86011429 68.38760193 90.72804108 68.39547729 91.62226868 C68.29871723 103.03085644 64.44132734 112.4309734 56.6875 120.75 C51.9713036 125.25042271 46.52183882 128.18477015 40 129 C41.30456066 126.14239092 42.73254963 124.03676049 44.875 121.75 C53.22197407 112.22223448 54.29970702 102.09150441 54.1953125 89.84765625 C54.19106766 87.96475136 54.19106766 87.96475136 54.18673706 86.04380798 C54.17747127 82.72785653 54.15954299 79.41218699 54.1373291 76.09631348 C54.11676595 72.70420755 54.10771309 69.31207234 54.09765625 65.91992188 C54.07565124 59.27987083 54.04221495 52.63995167 54 46 C53.59456467 46.55574707 53.18912933 47.11149414 52.77140808 47.68408203 C52.23606949 48.40966309 51.7007309 49.13524414 51.14916992 49.8828125 C50.35539192 50.96393311 50.35539192 50.96393311 49.545578 52.06689453 C45.93131208 56.58737632 40.83038986 58.47106837 35.26171875 59.51171875 C27.87417127 59.9819304 22.62357199 57.71084565 17 53 C11.8993893 48.11318735 10.57240356 43.5017643 10.25 36.5 C10.57240356 29.4982357 11.8993893 24.88681265 17 20 C22.62357199 15.28915435 27.87417127 13.0180696 35.26171875 13.48828125 C44.78396982 15.26776041 48.07713486 19.10284648 54 27 C54.33 18.42 54.66 9.84 55 1 C36.85 1 18.7 1 0 1 C0 0.67 0 0.34 0 0 Z " fill="#F15F69" transform="translate(223,35)"/>
<path d="M0 0 C0.68592667 -0.0060911 1.37185333 -0.01218221 2.07856566 -0.01845789 C4.37632179 -0.03510314 6.67352468 -0.03031013 8.97132874 -0.0255127 C10.61896338 -0.03285215 12.26659288 -0.04143801 13.91421509 -0.05117798 C18.38942328 -0.07341528 22.86444747 -0.07632358 27.33970332 -0.07443047 C31.07489777 -0.07431087 34.81005308 -0.08287041 38.54523665 -0.09120798 C47.35656467 -0.11044985 56.16779795 -0.11332294 64.97914124 -0.10656738 C74.07129173 -0.09992487 83.16303672 -0.12279753 92.25510496 -0.15988111 C100.05989389 -0.19056008 107.86455224 -0.20194014 115.66940027 -0.1980443 C120.33152225 -0.19597502 124.99332867 -0.20148362 129.6553936 -0.22593689 C134.03944502 -0.24817197 138.42283627 -0.24635357 142.80689049 -0.22600937 C144.41574362 -0.2225936 146.02464091 -0.22771289 147.6334343 -0.24199295 C149.83053249 -0.26014916 152.02538229 -0.24746781 154.22241211 -0.22705078 C156.06604041 -0.22811954 156.06604041 -0.22811954 157.94691372 -0.2292099 C162.10563669 0.57426978 163.61906684 2.07515606 166.17469788 5.39440918 C166.23719788 9.01940918 166.23719788 9.01940918 165.17469788 12.39440918 C162.82546512 14.81020403 161.44287675 15.36128735 158.07275486 15.77751923 C156.2296921 15.7831123 156.2296921 15.7831123 154.34939575 15.78881836 C153.66346909 15.79490946 152.97754242 15.80100057 152.27083009 15.80727625 C149.97307396 15.82392149 147.67587107 15.81912849 145.37806702 15.81433105 C143.73043237 15.82167051 142.08280287 15.83025637 140.43518066 15.83999634 C135.95997247 15.86223364 131.48494829 15.86514194 127.00969243 15.86324883 C123.27449798 15.86312923 119.53934268 15.87168876 115.8041591 15.88002634 C106.99283108 15.89926821 98.1815978 15.9021413 89.37025452 15.89538574 C80.27810402 15.88874323 71.18635903 15.91161589 62.09429079 15.94869947 C54.28950187 15.97937844 46.48484351 15.9907585 38.67999548 15.98686266 C34.0178735 15.98479337 29.35606708 15.99030198 24.69400215 16.01475525 C20.30995074 16.03699033 15.92655948 16.03517192 11.54250526 16.01482773 C9.93365213 16.01141195 8.32475484 16.01653125 6.71596146 16.03081131 C4.51886327 16.04896752 2.32401346 16.03628616 0.12698364 16.01586914 C-1.71664465 16.0169379 -1.71664465 16.0169379 -3.59751797 16.01802826 C-7.75624093 15.21454858 -9.26967108 13.7136623 -11.82530212 10.39440918 C-11.88780212 6.76940918 -11.88780212 6.76940918 -10.82530212 3.39440918 C-7.50740275 -0.01749806 -4.62422726 0.01403296 0 0 Z " fill="#000000" transform="translate(303.82530212402344,257.6055908203125)"/>
<path d="M0 0 C0.68592667 -0.0060911 1.37185333 -0.01218221 2.07856566 -0.01845789 C4.37632179 -0.03510314 6.67352468 -0.03031013 8.97132874 -0.0255127 C10.61896338 -0.03285215 12.26659288 -0.04143801 13.91421509 -0.05117798 C18.38942328 -0.07341528 22.86444747 -0.07632358 27.33970332 -0.07443047 C31.07489777 -0.07431087 34.81005308 -0.08287041 38.54523665 -0.09120798 C47.35656467 -0.11044985 56.16779795 -0.11332294 64.97914124 -0.10656738 C74.07129173 -0.09992487 83.16303672 -0.12279753 92.25510496 -0.15988111 C100.05989389 -0.19056008 107.86455224 -0.20194014 115.66940027 -0.1980443 C120.33152225 -0.19597502 124.99332867 -0.20148362 129.6553936 -0.22593689 C134.03944502 -0.24817197 138.42283627 -0.24635357 142.80689049 -0.22600937 C144.41574362 -0.2225936 146.02464091 -0.22771289 147.6334343 -0.24199295 C149.83053249 -0.26014916 152.02538229 -0.24746781 154.22241211 -0.22705078 C156.06604041 -0.22811954 156.06604041 -0.22811954 157.94691372 -0.2292099 C162.10563669 0.57426978 163.61906684 2.07515606 166.17469788 5.39440918 C166.23719788 9.01940918 166.23719788 9.01940918 165.17469788 12.39440918 C162.82546512 14.81020403 161.44287675 15.36128735 158.07275486 15.77751923 C156.2296921 15.7831123 156.2296921 15.7831123 154.34939575 15.78881836 C153.66346909 15.79490946 152.97754242 15.80100057 152.27083009 15.80727625 C149.97307396 15.82392149 147.67587107 15.81912849 145.37806702 15.81433105 C143.73043237 15.82167051 142.08280287 15.83025637 140.43518066 15.83999634 C135.95997247 15.86223364 131.48494829 15.86514194 127.00969243 15.86324883 C123.27449798 15.86312923 119.53934268 15.87168876 115.8041591 15.88002634 C106.99283108 15.89926821 98.1815978 15.9021413 89.37025452 15.89538574 C80.27810402 15.88874323 71.18635903 15.91161589 62.09429079 15.94869947 C54.28950187 15.97937844 46.48484351 15.9907585 38.67999548 15.98686266 C34.0178735 15.98479337 29.35606708 15.99030198 24.69400215 16.01475525 C20.30995074 16.03699033 15.92655948 16.03517192 11.54250526 16.01482773 C9.93365213 16.01141195 8.32475484 16.01653125 6.71596146 16.03081131 C4.51886327 16.04896752 2.32401346 16.03628616 0.12698364 16.01586914 C-1.71664465 16.0169379 -1.71664465 16.0169379 -3.59751797 16.01802826 C-7.75624093 15.21454858 -9.26967108 13.7136623 -11.82530212 10.39440918 C-11.88780212 6.76940918 -11.88780212 6.76940918 -10.82530212 3.39440918 C-7.50740275 -0.01749806 -4.62422726 0.01403296 0 0 Z " fill="#030303" transform="translate(303.82530212402344,313.6055908203125)"/>
<path d="M0 0 C0.68592667 -0.0060911 1.37185333 -0.01218221 2.07856566 -0.01845789 C4.37632179 -0.03510314 6.67352468 -0.03031013 8.97132874 -0.0255127 C10.61896338 -0.03285215 12.26659288 -0.04143801 13.91421509 -0.05117798 C18.38942328 -0.07341528 22.86444747 -0.07632358 27.33970332 -0.07443047 C31.07489777 -0.07431087 34.81005308 -0.08287041 38.54523665 -0.09120798 C47.35656467 -0.11044985 56.16779795 -0.11332294 64.97914124 -0.10656738 C74.07129173 -0.09992487 83.16303672 -0.12279753 92.25510496 -0.15988111 C100.05989389 -0.19056008 107.86455224 -0.20194014 115.66940027 -0.1980443 C120.33152225 -0.19597502 124.99332867 -0.20148362 129.6553936 -0.22593689 C134.03944502 -0.24817197 138.42283627 -0.24635357 142.80689049 -0.22600937 C144.41574362 -0.2225936 146.02464091 -0.22771289 147.6334343 -0.24199295 C149.83053249 -0.26014916 152.02538229 -0.24746781 154.22241211 -0.22705078 C156.06604041 -0.22811954 156.06604041 -0.22811954 157.94691372 -0.2292099 C162.10569485 0.57428102 163.61618126 2.07766907 166.17469788 5.39440918 C166.29969788 9.01940918 166.29969788 9.01940918 165.17469788 12.39440918 C161.26211886 15.47949663 158.1670778 15.77384752 153.2671051 15.78881836 C152.58440756 15.79490946 151.90171002 15.80100057 151.19832468 15.80727625 C148.91749209 15.82388608 146.637219 15.81913358 144.3563385 15.81433105 C142.71840842 15.82167248 141.08048351 15.83025892 139.44256592 15.83999634 C134.9984073 15.86221076 130.5544341 15.86514315 126.11022758 15.86324883 C122.39983616 15.86312915 118.68948405 15.87169198 114.97910357 15.88002634 C106.22672942 15.89925927 97.47445065 15.90214426 88.72206116 15.89538574 C79.69180483 15.8887411 70.66195656 15.91162649 61.63178301 15.94869947 C53.87792876 15.9793779 46.12420593 15.99075864 38.37029219 15.98686266 C33.7394834 15.98479364 29.10899231 15.9902982 24.47824097 16.01475525 C20.12454348 16.03698998 15.77151075 16.03517226 11.41781044 16.01482773 C9.82024432 16.0114121 8.22263373 16.01653064 6.62512779 16.03081131 C4.4434045 16.04896875 2.26394512 16.0362855 0.08229065 16.01586914 C-1.13812172 16.01658165 -2.35853409 16.01729416 -3.61592865 16.01802826 C-7.76124664 15.21254413 -9.27543231 13.70171533 -11.82530212 10.39440918 C-11.88780212 6.76940918 -11.88780212 6.76940918 -10.82530212 3.39440918 C-7.50740275 -0.01749806 -4.62422726 0.01403296 0 0 Z " fill="#020202" transform="translate(303.82530212402344,201.6055908203125)"/>
<path d="M0 0 C5.75070545 3.205011 9.60552611 7.75407834 11.6875 14 C12.34589864 22.66047435 11.54462437 28.20003106 7.125 35.625 C2.10183664 40.5193643 -3.78560252 43.26887632 -10.8125 43.6875 C-18.04828411 43.2985894 -23.13218454 40.04700882 -28.26953125 35.125 C-32.84499284 29.46728637 -33.21032274 23.71032436 -32.8828125 16.59765625 C-31.83721876 10.00182179 -29.11130048 6.34454491 -24.07421875 2.125 C-16.24477416 -3.26944986 -8.6825074 -3.81405497 0 0 Z " fill="#040202" transform="translate(266.3125,51)"/>
<path d="M0 0 C3.00339193 2.00226129 3.81463343 3.25853373 4.6875 6.75 C2.97022632 14.86802101 -6.54232744 21.69539797 -12.25 27.375 C-13.45269531 28.58349609 -13.45269531 28.58349609 -14.6796875 29.81640625 C-15.45054687 30.58597656 -16.22140625 31.35554688 -17.015625 32.1484375 C-17.70946289 32.84114746 -18.40330078 33.53385742 -19.11816406 34.24755859 C-21 36 -21 36 -24 38 C-30.10206897 37.78206897 -30.10206897 37.78206897 -32.9375 35.3125 C-34.42482538 32.07538005 -34.68241405 30.54855304 -34 27 C-29.48601723 20.83209119 -23.65511405 15.50181502 -18.25 10.125 C-17.11884766 8.98804688 -17.11884766 8.98804688 -15.96484375 7.828125 C-15.23910156 7.10367187 -14.51335937 6.37921875 -13.765625 5.6328125 C-13.11368164 4.98199707 -12.46173828 4.33118164 -11.79003906 3.66064453 C-7.84022549 -0.00365333 -5.31367544 -0.55933426 0 0 Z " fill="#040705" transform="translate(434,382)"/>
<path d="M0 0 C0.84691406 0.16242188 1.69382813 0.32484375 2.56640625 0.4921875 C6.07735745 1.01144081 9.3902331 1.13283926 12.9375 1.125 C14.10152344 1.12757813 15.26554688 1.13015625 16.46484375 1.1328125 C20.03916733 0.99852852 23.47081003 0.56791563 27 0 C27.10871967 2.54283234 27.18762401 5.08095088 27.25 7.625 C27.30027344 8.69427734 27.30027344 8.69427734 27.3515625 9.78515625 C27.44740662 15.00866097 26.421337 17.84242593 23 22 C19.73898473 24.75374623 17.73588601 25.89487343 13.5 26.5 C8.50668095 25.78666871 5.54248317 23.7020504 2.1875 20 C-0.33926582 15.74439441 -0.10762076 11.62304235 -0.0625 6.75 C-0.05347656 5.48671875 -0.04445312 4.2234375 -0.03515625 2.921875 C-0.02355469 1.95765625 -0.01195312 0.9934375 0 0 Z " fill="#F7B782" transform="translate(140,362)"/>
<path d="M0 0 C2.375 1.5625 2.375 1.5625 4 4 C4.56783945 7.97487617 4.62340519 10.06489221 2.375 13.4375 C-0.71685231 15.47161336 -2.36367425 15.60605429 -6 15 C-8.375 13.4375 -8.375 13.4375 -10 11 C-10.56783945 7.02512383 -10.62340519 4.93510779 -8.375 1.5625 C-5.28314769 -0.47161336 -3.63632575 -0.60605429 0 0 Z " fill="#645B64" transform="translate(259,64)"/>
</svg>
